<svg width="24" height="24" viewBox="0 0 24 24" fill="none" xmlns="http://www.w3.org/2000/svg">
<path d="M5.81998 12.7785C5.39334 12.3485 5.39334 11.6515 5.81998 11.2215L16.635 0.322466C17.0617 -0.107489 17.7534 -0.107489 18.18 0.322466C18.6067 0.752421 18.6067 1.44952 18.18 1.87947L7.36499 12.7785C6.93834 13.2085 6.24662 13.2085 5.81998 12.7785Z" fill="#777777"/>
<path d="M18.18 23.6775C17.7534 24.1075 17.0617 24.1075 16.635 23.6775L5.81998 12.7785C5.39334 12.3485 5.39334 11.6515 5.81998 11.2215C6.24662 10.7915 6.93834 10.7915 7.36498 11.2215L18.18 22.1205C18.6067 22.5505 18.6067 23.2476 18.18 23.6775Z" fill="#777777"/>
</svg>
