<svg width="24" height="24" viewBox="0 0 24 24" fill="none" xmlns="http://www.w3.org/2000/svg">
<path d="M18.18 11.2215C18.6067 11.6515 18.6067 12.3485 18.18 12.7785L7.36499 23.6775C6.93834 24.1075 6.24662 24.1075 5.81998 23.6775C5.39334 23.2476 5.39334 22.5505 5.81998 22.1205L16.635 11.2215C17.0617 10.7915 17.7534 10.7915 18.18 11.2215Z" fill="#777777"/>
<path d="M5.81998 0.322463C6.24663 -0.107492 6.93835 -0.107492 7.36499 0.322463L18.18 11.2215C18.6067 11.6515 18.6067 12.3485 18.18 12.7785C17.7534 13.2085 17.0617 13.2085 16.635 12.7785L5.81998 1.87947C5.39334 1.44951 5.39334 0.752417 5.81998 0.322463Z" fill="#777777"/>
</svg>
