<svg width="107" height="100" viewBox="0 0 107 100" fill="none" xmlns="http://www.w3.org/2000/svg">
<path d="M32.0822 69.286L32.0773 69.2761L29.4642 64.751L8.74747 28.8687H3.52127L26.8511 69.2774L26.8461 69.2861H26.856H32.0709H32.082" fill="#44494F"/>
<path d="M52.9805 69.286L52.9756 69.2761L50.3625 64.751L47.7507 60.2276L45.1376 55.7025L42.5262 51.1773L39.9131 46.6522L29.6453 28.8687H24.4209L37.3 51.1773L39.9131 55.7025L42.5262 60.2276L45.1376 64.751L47.7507 69.2761L47.7445 69.286H47.7568H52.9695H52.9819" fill="#44494F"/>
<path d="M60.8115 64.7515L58.2002 60.2281L55.5871 55.7029L52.9757 51.1778L50.3626 46.6527L47.7508 42.1293L45.1377 37.6041L40.0948 28.8691H34.8704L42.5246 42.1275L47.7508 51.1778L50.3626 55.7029L52.9757 60.2281L55.5871 64.7515L58.2002 69.2766L58.1927 69.2865H58.2051H63.4195H63.4294L63.4245 69.2778L60.8114 64.7514" fill="#44494F"/>
<path d="M72.0738 0H66.8476L47.7773 33.0332L50.3904 37.5579L72.0738 0" fill="#44494F"/>
<path d="M37.3067 69.286H42.5316L42.5266 69.2761L39.9135 64.751L37.3022 60.2276L34.6891 55.7025L19.1968 28.8687H13.9724L32.076 60.2258L34.6891 64.751L37.3022 69.2761L37.296 69.286H37.3071" fill="#44494F"/>
<path d="M55.6149 46.6064L82.5227 0H77.2983L53.0018 42.0813L53.0301 42.1292L55.6148 46.6064" fill="#44494F"/>
<path d="M60.8394 55.6567L92.9721 0H87.7476L58.2263 51.1298L58.2545 51.1777L60.8393 55.6567" fill="#44494F"/>
<path d="M103.421 0H98.1966L63.4512 60.1801L63.4791 60.228L66.0643 64.7052L103.421 0" fill="#44494F"/>
<path d="M6.86301 88.1792C6.34918 88.6543 5.64248 88.9499 4.8848 88.9499C3.26626 88.9499 1.95602 87.6523 1.95602 86.0338C1.95602 84.4283 3.26626 83.118 4.8848 83.118C5.64248 83.118 6.34918 83.4133 6.86301 83.9014L8.23728 82.5141C7.36378 81.6794 6.18199 81.1655 4.8848 81.1655C2.20029 81.1655 0.0161133 83.3493 0.0161133 86.0338C0.0161133 88.7188 2.20029 90.9024 4.8848 90.9024C6.18199 90.9024 7.36378 90.3886 8.23728 89.5535L6.86301 88.1792" fill="#44494F"/>
<path d="M21.0698 88.9625C19.4513 88.9625 18.1406 87.6523 18.1406 86.0338C18.1406 84.4283 19.4513 83.118 21.0698 83.118C22.6753 83.118 23.9856 84.4283 23.9856 86.0338C23.9856 87.6523 22.6753 88.9625 21.0698 88.9625ZM21.0698 81.1655C18.3853 81.1655 16.2011 83.3493 16.2011 86.0338C16.2011 88.7188 18.3853 90.9024 21.0698 90.9024C23.7543 90.9024 25.9381 88.7188 25.9381 86.0338C25.9381 83.3493 23.7543 81.1655 21.0698 81.1655Z" fill="#44494F"/>
<path d="M39.4891 88.282L36.6374 81.1655H34.5438V90.9024H36.4832V86.0338L38.4357 90.9024H40.5298L42.4823 86.0338V90.9024H44.4218V81.1655H42.3282L39.4891 88.282" fill="#44494F"/>
<path d="M55.7512 85.0575H54.9674V83.118H55.7512C56.2903 83.118 56.7274 83.5548 56.7274 84.0943C56.7274 84.6206 56.2903 85.0575 55.7512 85.0575ZM55.7512 81.1655H53.0279V90.9024H54.9674V87.01H55.7638C57.3697 87.01 58.6669 85.6998 58.6669 84.0943C58.6669 82.4758 57.3697 81.1655 55.7512 81.1655" fill="#44494F"/>
<path d="M69.7521 86.2267L70.5359 84.0299L71.3323 86.2267H69.7521ZM69.5082 81.1655L65.9885 90.9024H68.0564L69.0458 88.1792H72.0385L73.0279 90.9024H75.0958L71.5761 81.1655H69.5082" fill="#44494F"/>
<path d="M91.5503 81.1655H89.6109V87.6653L85.7185 81.1655H83.445V90.9024H85.3845V84.4152L89.29 90.9024H91.5503V81.1655" fill="#44494F"/>
<path d="M104.383 90.9024V86.265L106.926 81.1655H104.755L103.419 83.8631L102.071 81.1655H99.8995L102.443 86.265V90.9024H104.383Z" fill="#44494F"/>
<path d="M0 95.6307H1.12908V99.1987H1.75702V95.6307H2.8861V95.0732H0V95.6307" fill="#44494F"/>
<path d="M7.10471 97.7217L7.70169 95.9193H7.71404L8.31105 97.7217H7.10471ZM7.44437 95.0732L5.9447 99.1987H6.60699L6.92356 98.2765H8.48813L8.80817 99.1987H9.46786L7.96778 95.0732H7.44437" fill="#44494F"/>
<path d="M14.62 97.518H15.46V97.7331C15.4563 97.9917 15.3751 98.1999 15.217 98.3584C15.0585 98.5243 14.8573 98.6074 14.6139 98.6074C14.4667 98.6074 14.3405 98.5764 14.2351 98.5142C14.1276 98.4612 14.0409 98.3924 13.9747 98.3074C13.8937 98.2191 13.8397 98.1028 13.8132 97.9596C13.7832 97.8163 13.7678 97.542 13.7678 97.1361C13.7678 96.7303 13.7832 96.4542 13.8132 96.3071C13.8397 96.1673 13.8937 96.0531 13.9747 95.9648C14.0408 95.8798 14.1275 95.8089 14.2351 95.7522C14.3405 95.6978 14.4667 95.6681 14.6139 95.6648C14.8142 95.6685 14.9841 95.7262 15.1234 95.8373C15.2575 95.9543 15.3498 96.0959 15.4008 96.2619H16.0627C15.9969 95.9164 15.8384 95.6269 15.5876 95.393C15.3368 95.161 15.0124 95.0429 14.6139 95.0396C14.2895 95.0433 14.0191 95.1205 13.8023 95.271C13.5815 95.4206 13.4208 95.5903 13.3211 95.7806C13.2588 95.8809 13.2127 96.0118 13.1822 96.1743C13.1543 96.3362 13.14 96.6567 13.14 97.1362C13.14 97.6078 13.1544 97.9264 13.1822 98.0924C13.1975 98.1812 13.2161 98.2549 13.2392 98.3132C13.2635 98.3699 13.2906 98.4294 13.3211 98.4916C13.4208 98.682 13.5814 98.85 13.8022 98.9955C14.019 99.1462 14.2895 99.2254 14.6139 99.2328C15.035 99.2254 15.3837 99.083 15.6611 98.8056C15.9363 98.5265 16.0783 98.1804 16.0857 97.7671V96.9268H14.62V97.518" fill="#44494F"/>
<path d="M20.9179 95.0732H20.2926V99.1987H22.927V98.6073H20.9179V95.0732Z" fill="#44494F"/>
<path d="M26.9931 99.1987H27.6184V95.0732H26.9931V99.1987Z" fill="#44494F"/>
<path d="M34.4318 98.0047H34.4207L32.5531 95.0732H31.9644V99.1987H32.5901V96.2673H32.6012L34.4662 99.1987H35.0576V95.0732H34.4323V98.0047" fill="#44494F"/>
<path d="M39.4055 99.1987H42.0399V98.6073H40.0308V97.3964H41.7456V96.8416H40.0308V95.6647H42.0399V95.0732H39.4055V99.1987Z" fill="#44494F"/>
<path d="M52.3112 97.518H53.1516V97.7331C53.1479 97.9917 53.0667 98.1999 52.9082 98.3584C52.7497 98.5243 52.549 98.6074 52.3055 98.6074C52.1584 98.6074 52.0321 98.5764 51.9263 98.5142C51.8187 98.4612 51.7321 98.3924 51.6659 98.3074C51.5849 98.2191 51.5309 98.1028 51.5047 97.9596C51.4743 97.8163 51.4595 97.542 51.4595 97.1361C51.4595 96.7303 51.4743 96.4542 51.5047 96.3071C51.5309 96.1673 51.5849 96.0531 51.6659 95.9648C51.7321 95.8798 51.8187 95.8089 51.9263 95.7522C52.032 95.6978 52.1584 95.6681 52.3055 95.6648C52.5054 95.6685 52.6752 95.7262 52.815 95.8373C52.9487 95.9543 53.041 96.0959 53.0924 96.2619H53.7542C53.6885 95.9164 53.5296 95.6269 53.2788 95.393C53.0279 95.161 52.7035 95.0429 52.3055 95.0396C51.9811 95.0433 51.7103 95.1205 51.4934 95.271C51.2727 95.4206 51.1124 95.5903 51.0123 95.7806C50.9499 95.8809 50.9039 96.0118 50.8738 96.1743C50.8455 96.3362 50.8311 96.6567 50.8311 97.1362C50.8311 97.6078 50.8454 97.9264 50.8738 98.0924C50.8886 98.1812 50.9074 98.2549 50.9304 98.3132C50.9549 98.3699 50.9818 98.4294 51.0123 98.4916C51.1124 98.682 51.2727 98.85 51.4934 98.9955C51.7103 99.1462 51.9812 99.2254 52.3056 99.2328C52.7262 99.2254 53.0754 99.083 53.3524 98.8056C53.628 98.5265 53.7695 98.1804 53.7769 97.7671V96.9268H52.3112V97.518" fill="#44494F"/>
<path d="M60.1205 97.9596C60.0905 98.1028 60.0347 98.2191 59.9533 98.3074C59.8914 98.3925 59.8082 98.4612 59.7046 98.5143C59.5954 98.5765 59.466 98.6075 59.3171 98.6075C59.1699 98.6075 59.0432 98.5765 58.9378 98.5143C58.8298 98.4612 58.7436 98.3924 58.6774 98.3074C58.5964 98.2192 58.5424 98.1028 58.5159 97.9596C58.4859 97.8163 58.4706 97.542 58.4706 97.1362C58.4706 96.7303 58.4859 96.4542 58.5159 96.3071C58.5424 96.1673 58.5965 96.0532 58.6774 95.9649C58.7436 95.8798 58.8298 95.8089 58.9378 95.7522C59.0432 95.6978 59.1699 95.6682 59.3171 95.6649C59.466 95.6686 59.5953 95.6978 59.7046 95.7522C59.8083 95.8089 59.8914 95.8799 59.9533 95.9649C60.0347 96.0531 60.0904 96.1673 60.1205 96.3071C60.1487 96.4542 60.1627 96.7303 60.1627 97.1362C60.1627 97.542 60.1487 97.8163 60.1205 97.9596ZM60.6069 95.7806C60.5111 95.5903 60.3543 95.4206 60.1375 95.271C59.9184 95.1205 59.645 95.0429 59.3171 95.0396C58.9922 95.0433 58.7218 95.1205 58.5046 95.271C58.2838 95.4206 58.1236 95.5903 58.0238 95.7806C57.9615 95.8809 57.915 96.0118 57.8849 96.1743C57.8566 96.3362 57.8427 96.6567 57.8427 97.1362C57.8427 97.6078 57.8566 97.9264 57.8849 98.0924C57.9002 98.1812 57.9189 98.2549 57.9416 98.3132C57.966 98.3699 57.9934 98.4294 58.0239 98.4916C58.1236 98.682 58.2839 98.85 58.5046 98.9955C58.7219 99.1462 58.9923 99.2254 59.3171 99.2328C59.645 99.2254 59.9185 99.1462 60.1375 98.9955C60.3544 98.85 60.5111 98.682 60.6069 98.4916C60.677 98.3914 60.7249 98.2588 60.7515 98.0924C60.7763 97.9264 60.788 97.6078 60.788 97.1362C60.788 96.6567 60.7757 96.3362 60.7515 96.1743C60.725 96.0118 60.6771 95.8808 60.6069 95.7806" fill="#44494F"/>
<path d="M64.9957 99.1987H67.6297V98.6073H65.621V97.3964H67.3357V96.8416H65.621V95.6647H67.6297V95.0732H64.9957V99.1987Z" fill="#44494F"/>
<path d="M73.2295 96.8474C73.0336 96.823 72.8786 96.8012 72.7653 96.7821C72.5616 96.7447 72.4135 96.6767 72.3212 96.5787C72.2289 96.4826 72.1823 96.375 72.1823 96.2561C72.186 96.0579 72.255 95.9091 72.3891 95.8089C72.5171 95.7126 72.6778 95.6648 72.8703 95.6648C73.2417 95.6722 73.5822 95.778 73.8914 95.9817L74.2397 95.4667C73.8605 95.1931 73.4146 95.0504 72.9012 95.0396C72.4749 95.0433 72.1457 95.1543 71.9136 95.3731C71.6741 95.5939 71.5544 95.8842 71.5544 96.2448C71.5544 96.5449 71.6498 96.7995 71.84 97.0091C72.0251 97.2123 72.2946 97.3438 72.6495 97.4022C72.8476 97.4306 73.0297 97.4558 73.1956 97.4783C73.5578 97.5405 73.7368 97.7256 73.7329 98.0332C73.7255 98.4084 73.4538 98.6001 72.9182 98.6074C72.4653 98.6037 72.0747 98.4673 71.7464 98.1973L71.3366 98.6671C71.776 99.0442 72.3011 99.2327 72.9125 99.2327C73.8579 99.2216 74.3404 98.8217 74.3613 98.0332C74.3613 97.7409 74.2698 97.484 74.0869 97.2633C73.9023 97.039 73.6162 96.9002 73.2295 96.8474" fill="#44494F"/>
<path d="M85.6227 96.8416H83.9898V95.0732H83.3645V99.1987H83.9898V97.3964H85.6227V99.1987H86.248V95.0732H85.6227V96.8416Z" fill="#44494F"/>
<path d="M90.5963 99.1987H93.2308V98.6073H91.222V97.3964H92.9368V96.8416H91.222V95.6647H93.2308V95.0732H90.5963V99.1987Z" fill="#44494F"/>
<path d="M97.9222 96.8812V95.6307H98.9011C99.101 95.6307 99.2538 95.6729 99.3596 95.7579C99.4933 95.8541 99.5621 96.01 99.566 96.2247C99.566 96.4041 99.5085 96.5552 99.3936 96.6774C99.2764 96.8094 99.1009 96.8773 98.8671 96.8812H97.9222ZM100.157 96.2247C100.146 95.8436 100.009 95.55 99.7472 95.3446C99.5303 95.1639 99.2503 95.0732 98.9067 95.0732H97.2965V99.1987H97.9222V97.4361H98.7199L99.5717 99.1987H100.316L99.3596 97.3682C99.8839 97.1661 100.15 96.7851 100.157 96.2247" fill="#44494F"/>
<path d="M104.308 99.1987H106.942V98.6073H104.933V97.3964H106.648V96.8416H104.933V95.6647H106.942V95.0732H104.308V99.1987Z" fill="#44494F"/>
</svg>
