<svg width="84" height="112" viewBox="0 0 84 112" fill="none" xmlns="http://www.w3.org/2000/svg">
<path d="M60.0651 26.6377L49.0018 37.7019L53.2748 41.9749L64.3381 30.9107L60.0651 26.6377" fill="#44494F"/>
<path d="M37.7012 49.002L26.6374 60.0657L30.9104 64.3387L41.9742 53.275L37.7012 49.002Z" fill="#44494F"/>
<path d="M46.2472 34.9471L57.3109 23.8834L53.0379 19.6104L41.9741 30.6741L46.2472 34.9471Z" fill="#44494F"/>
<path d="M34.9465 46.2476L30.6735 41.9746L19.6098 53.0379L23.8828 57.3109L34.9465 46.2476Z" fill="#44494F"/>
<path d="M34.9465 37.7019L23.8828 26.6377L19.6098 30.9107L30.6735 41.9749L34.9465 37.7019" fill="#44494F"/>
<path d="M37.7012 34.9471L41.9742 30.6741L30.9104 19.6104L26.6374 23.8834L37.7012 34.9471Z" fill="#44494F"/>
<path d="M49.0018 46.2476L60.0651 57.3109L64.3381 53.0379L53.2748 41.9746L49.0018 46.2476Z" fill="#44494F"/>
<path d="M57.3109 60.0657L46.2472 49.002L41.9741 53.275L53.0379 64.3387L57.3109 60.0657" fill="#44494F"/>
<path d="M57.311 68.6119L53.0379 64.3389L41.9742 75.4026L30.9104 64.3389L26.6374 68.6119L41.9742 83.9487L57.311 68.6119" fill="#44494F"/>
<path d="M19.6098 30.9107L15.3368 26.6377L0 41.9749L15.3368 57.3112L19.6098 53.0382L8.54602 41.9749L19.6098 30.9107" fill="#44494F"/>
<path d="M68.6112 26.6377L64.3381 30.9107L75.4023 41.9749L64.3381 53.0382L68.6112 57.3112L83.9479 41.9749L68.6112 26.6377Z" fill="#44494F"/>
<path d="M53.0379 19.6102L57.311 15.3372L41.9742 0L26.6374 15.3372L30.9104 19.6102L41.9742 8.54603L53.0379 19.6102" fill="#44494F"/>
<path d="M6.7411 103.076C7.40254 102.573 7.8528 101.819 8.10406 100.853L8.13058 100.774L6.79421 100.443L6.76769 100.523C6.60876 101.237 6.30435 101.78 5.86759 102.15C5.41778 102.507 4.87524 102.692 4.22686 102.692C3.6978 102.692 3.20792 102.56 2.74504 102.296C2.2948 102.031 1.9643 101.621 1.75225 101.078C1.52755 100.536 1.42174 99.8873 1.42174 99.1597C1.42174 98.5905 1.51407 98.0349 1.69955 97.5054C1.88504 96.9763 2.20247 96.5526 2.63878 96.2352C3.08904 95.9308 3.65771 95.7719 4.3196 95.7719C4.90178 95.7719 5.37819 95.9043 5.76182 96.1956C6.14588 96.4734 6.43675 96.9232 6.63532 97.545L6.66184 97.6117L7.98473 97.3069L7.95855 97.2276C7.7073 96.4072 7.27057 95.7589 6.64832 95.2955C6.0265 94.8457 5.25925 94.6206 4.34612 94.6206C3.55187 94.6206 2.81074 94.7926 2.13624 95.1501C1.47437 95.5207 0.945291 96.0502 0.587792 96.7382C0.230726 97.4262 0.0452118 98.2466 0.0452118 99.1597C0.0452118 100.007 0.204164 100.814 0.521608 101.542C0.839485 102.283 1.3154 102.864 1.93765 103.248C2.5464 103.645 3.35375 103.844 4.33263 103.844C5.27231 103.844 6.07962 103.579 6.74106 103.076" fill="#44494F"/>
<path d="M16.5996 102.692C15.7526 102.692 15.0385 102.388 14.4693 101.806C13.9137 101.21 13.6224 100.39 13.6224 99.3581C13.6224 98.0744 13.9268 97.1347 14.509 96.5922C15.0912 96.0501 15.8057 95.7718 16.613 95.7718C17.1952 95.7718 17.7112 95.9172 18.1746 96.1955C18.6244 96.4733 18.9814 96.8835 19.2201 97.3995C19.4578 97.9155 19.5771 98.5373 19.5771 99.2388C19.5771 100.337 19.2993 101.197 18.7432 101.793C18.1876 102.388 17.46 102.692 16.5996 102.692V102.692ZM20.4105 101.66C20.7815 100.959 20.9666 100.138 20.9666 99.2388C20.9666 98.3523 20.7816 97.558 20.4371 96.8569C20.0801 96.1559 19.5636 95.5998 18.8891 95.2027C18.2142 94.806 17.4465 94.6074 16.613 94.6074C15.3293 94.6074 14.2708 95.0311 13.4635 95.8646C12.6562 96.698 12.246 97.8759 12.246 99.3446C12.246 100.125 12.418 100.866 12.7755 101.568C13.1195 102.269 13.6355 102.825 14.3104 103.235C14.9854 103.645 15.7526 103.844 16.5996 103.844C17.3938 103.844 18.1345 103.659 18.8094 103.288C19.4979 102.931 20.0269 102.375 20.4105 101.66" fill="#44494F"/>
<path d="M34.2921 94.9121H33.0084V103.844H34.2921V94.9121Z" fill="#44494F"/>
<path d="M30.5207 103.844L32.532 98.167V94.9913L30.4019 101.065C30.2299 101.555 30.0975 101.939 30.0047 102.243L29.6472 101.184L27.517 94.9121H27.3711V98.154L29.3428 103.844H30.5207" fill="#44494F"/>
<path d="M26.8952 94.9121H25.5984V103.844H26.8952V94.9121Z" fill="#44494F"/>
<path d="M45.1564 99.4772C45.6589 98.9477 45.9106 98.2998 45.9106 97.5321C45.9106 97.0823 45.8179 96.6721 45.6324 96.3016C45.4342 95.931 45.196 95.6266 44.8781 95.4281C44.5742 95.2164 44.1902 95.071 43.7534 95.0048C43.436 94.9386 42.9726 94.9121 42.3774 94.9121H40.7366V96.103H42.4701C42.9992 96.103 43.3567 96.1296 43.5553 96.1823C43.8461 96.2615 44.0843 96.4205 44.2563 96.6722C44.4414 96.9234 44.5211 97.2143 44.5211 97.5718C44.5211 98.0481 44.3757 98.4187 44.0713 98.6835C43.7669 98.9478 43.2374 99.0806 42.4963 99.0806H40.7366V100.285H42.4832C43.7534 100.285 44.6665 100.007 45.1564 99.4773" fill="#44494F"/>
<path d="M40.2603 94.9121H38.9239V103.844H40.2603V94.9121Z" fill="#44494F"/>
<path d="M55.4116 94.9121H54.0356L50.542 103.844H51.9581L52.3548 102.799H52.3417L53.3476 100.086L53.5592 99.5304L54.3003 97.5583H54.3134C54.4723 97.122 54.6047 96.6722 54.7101 96.2354C54.8429 96.6587 55.028 97.1751 55.2531 97.7569L56.1527 100.086H53.8636L53.4534 101.184H56.5764L57.6219 103.844H59.1433L55.4116 94.9121" fill="#44494F"/>
<path d="M69.5178 101.581V103.844H70.8411V94.9121H69.5444V101.621L69.5178 101.581" fill="#44494F"/>
<path d="M63.6427 103.844H64.8864V94.9121H63.6427V103.844Z" fill="#44494F"/>
<path d="M69.0414 100.88L65.3628 95.4946V97.7707L69.0414 103.17V100.88" fill="#44494F"/>
<path d="M82.4065 94.9121L80.6464 97.5322C80.3024 98.0482 79.9984 98.5376 79.7337 98.9613V98.9478L78.9926 100.073V103.844H80.3424V100.073L83.9815 94.9122H82.4065" fill="#44494F"/>
<path d="M78.8998 97.5984L77.1137 94.9121H75.4729L78.7017 99.6493L79.4559 98.4849L78.8998 97.5984" fill="#44494F"/>
<path d="M1.42478 111.1V108.299H2.31131V107.862H0.0452728V108.299H0.931844V111.1H1.42478" fill="#44494F"/>
<path d="M5.62244 109.941L6.09141 108.526H6.10008L6.5686 109.941H5.62244ZM5.88894 107.862L4.71194 111.1H5.23185L5.4805 110.376H6.70888L6.95971 111.1H7.47743L6.29998 107.862H5.88894" fill="#44494F"/>
<path d="M11.0154 108.561C11.0673 108.494 11.1351 108.439 11.2196 108.394C11.3023 108.351 11.4016 108.328 11.5175 108.325C11.6742 108.328 11.8079 108.374 11.9172 108.461C12.0221 108.553 12.0949 108.664 12.1349 108.794H12.6544C12.6031 108.523 12.4785 108.296 12.2813 108.112C12.0844 107.93 11.8297 107.838 11.5175 107.834C11.2628 107.837 11.0503 107.899 10.88 108.017C10.7067 108.134 10.5808 108.267 10.5025 108.417C10.4532 108.495 10.417 108.598 10.3936 108.725C10.3714 108.853 10.36 109.105 10.36 109.48C10.36 109.851 10.3711 110.101 10.3936 110.231C10.4047 110.301 10.4201 110.359 10.438 110.404C10.4572 110.449 10.4785 110.495 10.5025 110.545C10.5808 110.694 10.7067 110.826 10.88 110.94C11.0503 111.059 11.2628 111.12 11.5175 111.126C11.8476 111.12 12.1214 111.009 12.3391 110.791C12.5551 110.572 12.6666 110.3 12.6723 109.976V109.316H11.5218V109.78H12.1815V109.949C12.1791 110.152 12.1149 110.316 11.9908 110.44C11.8658 110.57 11.7086 110.636 11.5175 110.636C11.4017 110.636 11.3024 110.611 11.2196 110.562C11.1352 110.521 11.0672 110.467 11.0154 110.4C10.9519 110.33 10.9096 110.239 10.8887 110.127C10.8653 110.014 10.853 109.799 10.853 109.48C10.853 109.162 10.8654 108.945 10.8887 108.83C10.9096 108.72 10.9519 108.63 11.0154 108.561" fill="#44494F"/>
<path d="M15.9747 107.862V111.1H18.0426V110.636H16.4659V107.862H15.9747" fill="#44494F"/>
<path d="M21.7252 111.1V107.862H21.2348V111.1H21.7252Z" fill="#44494F"/>
<path d="M25.6276 108.799H25.6362L27.1002 111.1H27.5644V107.862H27.0736V110.163H27.065L25.5989 107.862H25.1369V111.1H25.6276V108.799Z" fill="#44494F"/>
<path d="M33.0462 108.326V107.862H30.9783V111.1H33.0462V110.636H31.4691V109.685H32.8155V109.25H31.4691V108.326H33.0462Z" fill="#44494F"/>
<path d="M40.0247 110.405C40.0439 110.449 40.0657 110.495 40.0892 110.545C40.1681 110.694 40.2938 110.826 40.4671 110.94C40.6374 111.059 40.8494 111.12 41.1042 111.126C41.4347 111.12 41.7086 111.009 41.9263 110.791C42.1427 110.572 42.2538 110.3 42.2594 109.976V109.316H41.109V109.781H41.7687V109.949C41.765 110.152 41.7016 110.316 41.5775 110.44C41.4534 110.57 41.2953 110.636 41.1042 110.636C40.9888 110.636 40.8895 110.611 40.8068 110.563C40.7223 110.521 40.6544 110.467 40.6026 110.4C40.539 110.33 40.4963 110.239 40.4758 110.127C40.4519 110.014 40.4402 109.799 40.4402 109.48C40.4402 109.162 40.4525 108.945 40.4758 108.83C40.4963 108.72 40.539 108.63 40.6026 108.561C40.6544 108.494 40.7223 108.439 40.8068 108.394C40.8895 108.351 40.9888 108.328 41.1042 108.325C41.2614 108.328 41.3946 108.374 41.5044 108.461C41.6093 108.553 41.682 108.664 41.7221 108.794H42.2416C42.1902 108.523 42.0652 108.296 41.8684 108.112C41.6716 107.93 41.4168 107.838 41.1042 107.834C40.8494 107.837 40.6374 107.899 40.4671 108.017C40.2938 108.134 40.168 108.267 40.0892 108.417C40.0404 108.495 40.0043 108.598 39.9803 108.725C39.9586 108.853 39.9472 109.105 39.9472 109.48C39.9472 109.851 39.9583 110.101 39.9803 110.231C39.9927 110.301 40.0068 110.359 40.0247 110.404" fill="#44494F"/>
<path d="M45.9794 108.83C46.0003 108.72 46.0426 108.63 46.1062 108.561C46.158 108.494 46.2264 108.439 46.3104 108.394C46.3936 108.351 46.4928 108.328 46.6082 108.325C46.7253 108.328 46.8268 108.351 46.9126 108.394C46.9941 108.439 47.0593 108.494 47.1081 108.561C47.1717 108.63 47.2156 108.72 47.2392 108.83C47.2614 108.945 47.2722 109.162 47.2722 109.48C47.2722 109.799 47.2611 110.014 47.2392 110.127C47.2157 110.239 47.1717 110.33 47.1081 110.4C47.0594 110.467 46.9941 110.521 46.9126 110.563C46.8268 110.611 46.7253 110.636 46.6082 110.636C46.4928 110.636 46.3935 110.611 46.3104 110.563C46.2263 110.521 46.158 110.467 46.1062 110.4C46.0426 110.33 46.0004 110.239 45.9794 110.127C45.956 110.014 45.9441 109.799 45.9441 109.48C45.9441 109.162 45.9565 108.945 45.9794 108.83ZM45.5287 110.404C45.5479 110.449 45.5692 110.495 45.5928 110.545C45.6717 110.694 45.7975 110.826 45.9708 110.94C46.141 111.059 46.3535 111.12 46.6082 111.126C46.866 111.12 47.0807 111.059 47.2527 110.94C47.423 110.826 47.5458 110.694 47.6211 110.545C47.6759 110.466 47.7138 110.362 47.7343 110.231C47.7534 110.101 47.7631 109.851 47.7631 109.48C47.7631 109.105 47.7532 108.853 47.7343 108.725C47.7138 108.598 47.6759 108.495 47.6211 108.417C47.5458 108.267 47.423 108.134 47.2527 108.017C47.0807 107.898 46.866 107.838 46.6082 107.834C46.3535 107.837 46.141 107.899 45.9708 108.017C45.7975 108.134 45.6716 108.267 45.5928 108.417C45.5444 108.495 45.5079 108.598 45.4843 108.725C45.4621 108.853 45.4507 109.105 45.4507 109.48C45.4507 109.851 45.4619 110.101 45.4843 110.231C45.4967 110.301 45.5108 110.359 45.5287 110.404Z" fill="#44494F"/>
<path d="M53.1337 108.326V107.862H51.0658V111.1H53.1337V110.636H51.5566V109.685H52.9029V109.25H51.5566V108.326H53.1337Z" fill="#44494F"/>
<path d="M57.2848 110.636C56.9295 110.633 56.623 110.526 56.3652 110.314L56.0434 110.682C56.3883 110.978 56.8006 111.126 57.2805 111.126C58.0225 111.118 58.4018 110.804 58.4179 110.185C58.4179 109.955 58.346 109.754 58.2023 109.581C58.0573 109.404 57.8331 109.295 57.5296 109.254C57.3754 109.235 57.2539 109.218 57.1651 109.203C57.0053 109.173 56.8886 109.12 56.8163 109.043C56.7436 108.968 56.7075 108.883 56.7075 108.79C56.7099 108.634 56.7645 108.517 56.8694 108.439C56.97 108.363 57.0963 108.325 57.2474 108.325C57.5392 108.331 57.8061 108.414 58.0491 108.574L58.3225 108.17C58.0247 107.955 57.6746 107.844 57.2718 107.834C56.9369 107.837 56.6787 107.925 56.4967 108.097C56.3081 108.27 56.2145 108.498 56.2145 108.781C56.2145 109.016 56.2889 109.216 56.4388 109.381C56.5838 109.541 56.7958 109.643 57.0741 109.689C57.2295 109.712 57.3724 109.731 57.503 109.75C57.7869 109.798 57.9275 109.943 57.9245 110.185C57.9183 110.479 57.7055 110.63 57.2848 110.636" fill="#44494F"/>
<path d="M67.7485 111.1V107.862H67.2578V109.25H65.9759V107.862H65.4851V111.1H65.9759V109.685H67.2578V111.1H67.7485Z" fill="#44494F"/>
<path d="M73.2303 108.326V107.862H71.1624V111.1H73.2303V110.636H71.6532V109.685H72.9991V109.25H71.6532V108.326H73.2303Z" fill="#44494F"/>
<path d="M78.0677 109.121C77.9759 109.225 77.8382 109.278 77.6544 109.281H76.9124V108.299H77.681C77.8382 108.299 77.9579 108.333 78.0411 108.399C78.146 108.474 78.2001 108.597 78.2031 108.766C78.2031 108.906 78.1578 109.025 78.0677 109.121V109.121ZM78.6673 108.766C78.6587 108.467 78.551 108.236 78.3455 108.075C78.1748 107.933 77.9554 107.862 77.6858 107.862H76.4217V111.1H76.9124V109.716H77.5391L78.2075 111.1H78.7918L78.0411 109.663C78.4526 109.505 78.6616 109.206 78.6673 108.766" fill="#44494F"/>
<path d="M83.9936 108.326V107.862H81.9253V111.1H83.9936V110.636H82.4164V109.685H83.7624V109.25H82.4164V108.326H83.9936Z" fill="#44494F"/>
</svg>
