<svg width="94" height="105" viewBox="0 0 94 105" fill="none" xmlns="http://www.w3.org/2000/svg">
<path d="M27.1179 30.92L41.9313 5.26191L55.498 28.7628C54.6628 28.7485 53.8268 28.7432 52.9933 28.7432C52.5635 28.7432 52.1303 28.7454 51.6918 28.7484L44.2099 15.787L41.9313 11.8405L39.6513 15.787L31.3025 30.2481C29.8908 30.4519 28.4926 30.6761 27.1179 30.92V30.92ZM41.9313 17.1025L50.1834 31.3986C51.1148 31.3811 52.0514 31.3742 52.9933 31.3742C55.4083 31.3742 57.7919 31.4286 60.1372 31.534L41.9313 0L21.9261 34.6505C25.4005 33.8579 29.0857 33.1948 32.9389 32.6775L41.9313 17.1025" fill="#44494F"/>
<path d="M53.7496 37.5745L58.8709 46.4454H25.0178C32.1874 42.4463 42.155 39.3307 53.7496 37.5745ZM29.6622 78.6896C19.3439 74.1553 13.0382 68.087 13.0382 61.4203C13.0382 59.2013 13.7363 57.0493 15.0491 54.9971H73.6834L63.0011 36.4955C67.0655 36.158 71.2737 35.9804 75.5837 35.9804C81.389 35.9804 87.0106 36.3022 92.3435 36.9052C92.0365 36.8055 91.7195 36.7115 91.4068 36.6144C91.7195 36.7115 92.0365 36.8055 92.344 36.9048C92.7019 36.9453 93.0576 36.9862 93.4134 37.0293C92.4732 36.7912 91.517 36.5639 90.5429 36.3466C90.5425 36.3466 90.542 36.3461 90.5417 36.3461C81.8319 34.4041 71.811 33.2924 61.1453 33.2806C61.0821 33.2793 61.0181 33.2793 60.955 33.2793C58.5269 33.2793 56.1334 33.3368 53.7806 33.4474C52.996 33.4844 52.2161 33.5275 51.4414 33.5763C44.0101 34.0426 37.0248 35.0472 30.7391 36.4881C30.1961 36.6126 29.6583 36.7402 29.1258 36.8713C25.3992 37.7874 21.9379 38.8604 18.7984 40.067C7.21307 44.5138 0 50.7776 0 57.7164C0 66.6247 11.8918 74.4205 29.6627 78.6896" fill="#44494F"/>
<path d="M5.65483 96.1988C5.97765 96.0512 6.25935 95.8517 6.50019 95.5996C6.74072 95.3484 6.92948 95.061 7.06643 94.7379C7.2032 94.4157 7.27157 94.0734 7.27157 93.7124V92.99H5.59757V93.5648C5.59757 93.7943 5.5647 93.9859 5.49903 94.1391C5.43336 94.2924 5.3512 94.4126 5.25275 94.5001C5.14339 94.5881 5.02551 94.6508 4.8998 94.6891C4.77396 94.7274 4.65636 94.7461 4.54684 94.7461C4.16395 94.7461 3.89878 94.6316 3.75113 94.4017C3.60333 94.1718 3.52948 93.8875 3.52948 93.5482V87.5739C3.52948 87.1799 3.59749 86.8546 3.73463 86.5972C3.87122 86.3403 4.14761 86.2114 4.56349 86.2114C4.88071 86.2114 5.13227 86.3321 5.31852 86.5729C5.50428 86.8137 5.59757 87.098 5.59757 87.4263V87.9841H7.27157V87.3279C7.27157 86.923 7.20318 86.548 7.06643 86.2036C6.92948 85.8587 6.74072 85.5609 6.50019 85.3092C6.00774 84.7945 5.36751 84.5376 4.57984 84.5376C4.17483 84.5376 3.80575 84.606 3.47185 84.7427C3.13814 84.8799 2.85079 85.0684 2.61029 85.3092C2.36945 85.5496 2.18373 85.8344 2.05226 86.1627C1.92112 86.4906 1.85541 86.8463 1.85541 87.2291V93.6632C1.85541 94.1992 1.93998 94.6395 2.1099 94.9843C2.27928 95.3292 2.49545 95.6109 2.7581 95.8295C3.02072 96.0486 3.31601 96.2018 3.6443 96.2889C3.97258 96.3764 4.29512 96.4204 4.61268 96.4204C4.9845 96.4204 5.33216 96.3464 5.65483 96.1988" fill="#44494F"/>
<path d="M19.0395 93.5648C19.0395 93.9697 18.9272 94.2676 18.7029 94.4592C18.4787 94.6508 18.213 94.7461 17.9069 94.7461C17.6008 94.7461 17.3352 94.6508 17.111 94.4592C16.8867 94.2676 16.7748 93.9697 16.7748 93.5648V87.3932C16.7748 86.9887 16.8867 86.6904 17.111 86.4988C17.3352 86.3077 17.6008 86.2114 17.9069 86.2114C18.213 86.2114 18.4787 86.3077 18.7029 86.4988C18.9272 86.6904 19.0395 86.9887 19.0395 87.3932V93.5648ZM20.7138 87.3932C20.7138 86.923 20.6314 86.5071 20.4673 86.1461C20.3031 85.7847 20.0898 85.4838 19.8272 85.2435C19.5538 85.0135 19.2503 84.8385 18.9167 84.7183C18.5827 84.5977 18.2461 84.5376 17.9069 84.5376C17.5677 84.5376 17.2311 84.5977 16.8976 84.7183C16.5636 84.8385 16.2658 85.0135 16.0032 85.2435C15.7297 85.4838 15.5107 85.7847 15.3465 86.1461C15.1824 86.5071 15.1005 86.923 15.1005 87.3932V93.5648C15.1005 94.0568 15.1824 94.4783 15.3465 94.8284C15.5107 95.179 15.7297 95.4685 16.0032 95.698C16.2658 95.9393 16.5636 96.1195 16.8976 96.2402C17.2311 96.3599 17.5677 96.4204 17.9069 96.4204C18.2461 96.4204 18.5827 96.3599 18.9167 96.2402C19.2503 96.1195 19.5538 95.9393 19.8272 95.698C20.0898 95.4685 20.3031 95.179 20.4673 94.8284C20.6315 94.4783 20.7138 94.0568 20.7138 93.5648V87.3932Z" fill="#44494F"/>
<path d="M32.547 90.8234H32.5143L30.3641 84.6357H28.756V96.3218H30.4298V89.2149H30.4629L32.1041 94.2373H32.941L34.5988 89.2149H34.6314V96.3218H36.3057V84.6357H34.6811L32.547 90.8234Z" fill="#44494F"/>
<path d="M48.2786 89.0181C48.2625 89.2589 48.2103 89.4613 48.1228 89.6255C48.0353 89.8001 47.8986 89.9368 47.7126 90.0357C47.5267 90.1341 47.2641 90.1833 46.9249 90.1833H46.1206V86.2112H46.9902C47.319 86.2112 47.5702 86.2608 47.7457 86.3592C47.9203 86.4576 48.0518 86.6 48.1393 86.786C48.2269 86.9719 48.276 87.1879 48.2869 87.4339C48.298 87.6804 48.3035 87.9403 48.3035 88.2138C48.3035 88.5095 48.2949 88.7773 48.2787 89.0181H48.2786ZM49.1243 85.4566C48.8395 85.15 48.5221 84.9371 48.172 84.8165C47.8219 84.6958 47.4174 84.6357 46.9575 84.6357H44.4464V96.3218H46.1206V91.7592H46.9741C47.5977 91.7592 48.101 91.6521 48.4838 91.4387C48.867 91.2253 49.1731 90.9275 49.403 90.5443C49.6002 90.2273 49.7287 89.8881 49.7888 89.5271C49.8489 89.1657 49.8794 88.7224 49.8794 88.1972C49.8794 87.497 49.8245 86.9419 49.7153 86.5317C49.6055 86.121 49.4087 85.7631 49.1244 85.4566" fill="#44494F"/>
<path d="M58.7912 92.2347L59.612 88.0004H59.6447L60.4656 92.2347H58.7912ZM58.9392 84.6357L56.3296 96.3218H58.0035L58.4959 93.8105H60.7772L61.2697 96.3218H62.944L60.3344 84.6357H58.9392" fill="#44494F"/>
<path d="M76.107 96.3218V84.6357H74.4327V91.6769H74.4L71.8723 84.6357H70.2638V96.3218H71.9381V89.2972H71.9708L74.5312 96.3218H76.107Z" fill="#44494F"/>
<path d="M87.4152 96.3218V91.3812L89.7129 84.6357H87.9403L86.5944 89.2806H86.5616L85.2157 84.6357H83.4434L85.7412 91.3812V96.3218H87.4151" fill="#44494F"/>
<path d="M3.25954 104.115V101.18H4.18792V100.722H1.81479V101.18H2.74295V104.115H3.25954Z" fill="#44494F"/>
<path d="M7.65685 102.9L8.14775 101.418H8.15762L8.64882 102.9H7.65685ZM7.93613 100.722L6.70316 104.115H7.24762L7.50806 103.356H8.79483L9.05783 104.115H9.59996L8.36676 100.722H7.93613" fill="#44494F"/>
<path d="M13.306 101.456C13.3605 101.385 13.4315 101.328 13.5203 101.281C13.6069 101.236 13.711 101.212 13.832 101.209C13.9966 101.212 14.136 101.259 14.2509 101.351C14.3611 101.447 14.4373 101.563 14.4787 101.7H15.0234C14.969 101.416 14.8388 101.178 14.6324 100.986C14.4264 100.795 14.1595 100.697 13.832 100.695C13.5651 100.697 13.3426 100.761 13.1641 100.886C12.9829 101.008 12.8506 101.148 12.7683 101.304C12.7173 101.386 12.6794 101.494 12.6546 101.628C12.6315 101.761 12.6198 102.025 12.6198 102.419C12.6198 102.807 12.6321 103.069 12.6546 103.205C12.6669 103.278 12.6825 103.339 12.7012 103.387C12.7212 103.433 12.744 103.482 12.7683 103.533C12.8506 103.69 12.9829 103.828 13.1641 103.948C13.3426 104.072 13.5651 104.137 13.832 104.143C14.1778 104.137 14.4648 104.019 14.6929 103.792C14.9194 103.562 15.0361 103.277 15.0417 102.937V102.247H13.8369V102.733H14.5279V102.909C14.5242 103.122 14.4577 103.294 14.328 103.424C14.1974 103.56 14.0323 103.629 13.832 103.629C13.7109 103.629 13.6069 103.603 13.5203 103.552C13.4314 103.509 13.3605 103.452 13.306 103.382C13.2394 103.309 13.1949 103.214 13.1737 103.096C13.1489 102.978 13.1362 102.752 13.1362 102.419C13.1362 102.085 13.1489 101.858 13.1737 101.737C13.195 101.622 13.2395 101.528 13.306 101.456" fill="#44494F"/>
<path d="M18.5013 100.722V104.115H20.6676V103.628H19.0156V100.722H18.5013Z" fill="#44494F"/>
<path d="M24.011 100.722V104.115H24.5252V100.722H24.011Z" fill="#44494F"/>
<path d="M28.0994 100.722V104.115H28.6132V101.704H28.6231L30.1563 104.115H30.6427V100.722H30.1284V103.133H30.1198L28.584 100.722H28.1001" fill="#44494F"/>
<path d="M36.3845 101.208V100.722H34.2182V104.115H36.3845V103.628H34.7325V102.632H36.1425V102.176H34.7325V101.208H36.3845Z" fill="#44494F"/>
<path d="M43.7623 101.304C43.7113 101.386 43.673 101.494 43.6482 101.628C43.6251 101.761 43.6134 102.025 43.6134 102.419C43.6134 102.807 43.6257 103.069 43.6482 103.205C43.6606 103.278 43.6761 103.339 43.6948 103.387C43.7148 103.433 43.7375 103.482 43.7623 103.533C43.8446 103.69 43.9761 103.828 44.1576 103.948C44.3362 104.072 44.5587 104.137 44.8257 104.143C45.1718 104.137 45.4584 104.019 45.6865 103.792C45.913 103.562 46.0292 103.277 46.0353 102.937V102.247H44.8305V102.733H45.5215V102.909C45.5178 103.122 45.4513 103.294 45.3212 103.424C45.191 103.56 45.026 103.629 44.8257 103.629C44.7046 103.629 44.6005 103.603 44.5138 103.552C44.4255 103.509 44.3541 103.452 44.2997 103.382C44.233 103.309 44.1886 103.214 44.1668 103.096C44.142 102.978 44.1298 102.752 44.1298 102.419C44.1298 102.085 44.1421 101.858 44.1668 101.737C44.1886 101.622 44.233 101.528 44.2997 101.456C44.3541 101.385 44.4254 101.328 44.5138 101.281C44.6005 101.236 44.7046 101.212 44.8257 101.209C44.9903 101.212 45.1296 101.259 45.2445 101.351C45.3543 101.447 45.4305 101.563 45.4723 101.7H46.017C45.9626 101.416 45.8324 101.178 45.626 100.986C45.4196 100.795 45.1531 100.697 44.8257 100.695C44.5587 100.697 44.3362 100.761 44.1576 100.886C43.9761 101.008 43.8446 101.148 43.7623 101.304" fill="#44494F"/>
<path d="M49.9326 101.737C49.9543 101.622 49.9984 101.528 50.0654 101.456C50.1198 101.385 50.1907 101.328 50.2796 101.281C50.3662 101.236 50.4703 101.212 50.5909 101.209C50.7137 101.212 50.82 101.236 50.9097 101.281C50.995 101.328 51.0634 101.385 51.1143 101.456C51.1813 101.528 51.2272 101.622 51.2519 101.737C51.2754 101.858 51.2867 102.085 51.2867 102.419C51.2867 102.752 51.2756 102.978 51.2519 103.096C51.2271 103.214 51.1813 103.309 51.1143 103.382C51.0633 103.452 50.995 103.509 50.9097 103.552C50.8199 103.603 50.7137 103.629 50.5909 103.629C50.4703 103.629 50.3662 103.603 50.2796 103.552C50.1907 103.509 50.1198 103.452 50.0654 103.382C49.9984 103.309 49.9543 103.214 49.9326 103.096C49.9077 102.978 49.8951 102.752 49.8951 102.419C49.8951 102.085 49.9077 101.858 49.9326 101.737ZM49.5275 101.304C49.4766 101.386 49.4383 101.494 49.4139 101.628C49.3903 101.761 49.3786 102.025 49.3786 102.419C49.3786 102.807 49.3909 103.069 49.4139 103.205C49.4262 103.278 49.4418 103.339 49.4604 103.387C49.4804 103.433 49.5027 103.482 49.5275 103.533C49.6098 103.69 49.7417 103.828 49.9233 103.948C50.1018 104.072 50.3243 104.137 50.5908 104.143C50.8608 104.137 51.0859 104.072 51.2657 103.948C51.4443 103.828 51.5727 103.69 51.652 103.533C51.7095 103.451 51.7491 103.342 51.7709 103.205C51.7909 103.069 51.8009 102.807 51.8009 102.419C51.8009 102.025 51.791 101.761 51.7709 101.628C51.7491 101.494 51.7095 101.386 51.652 101.304C51.5727 101.148 51.4443 101.008 51.2657 100.886C51.0859 100.761 50.8608 100.697 50.5908 100.695C50.3243 100.697 50.1018 100.761 49.9233 100.886C49.7417 101.008 49.6098 101.148 49.5275 101.304" fill="#44494F"/>
<path d="M55.2606 104.115H57.4269V103.628H55.7749V102.632H57.1848V102.176H55.7749V101.208H57.4269V100.722H55.2606V104.115Z" fill="#44494F"/>
<path d="M61.7753 103.629C61.403 103.626 61.0821 103.513 60.8121 103.291L60.4746 103.678C60.836 103.988 61.268 104.143 61.7709 104.143C62.5482 104.134 62.9449 103.805 62.9623 103.156C62.9623 102.916 62.887 102.705 62.7363 102.523C62.5843 102.339 62.3496 102.225 62.0313 102.181C61.8702 102.161 61.7431 102.144 61.6499 102.128C61.4827 102.097 61.3603 102.041 61.2846 101.96C61.2088 101.881 61.1705 101.793 61.1705 101.695C61.173 101.532 61.2301 101.41 61.3403 101.328C61.4461 101.248 61.5776 101.209 61.7361 101.209C62.0418 101.215 62.3214 101.302 62.5761 101.469L62.8622 101.046C62.5504 100.821 62.1833 100.704 61.7614 100.695C61.4108 100.697 61.1405 100.789 60.9493 100.969C60.7525 101.151 60.6541 101.389 60.6541 101.686C60.6541 101.932 60.7325 102.142 60.8888 102.314C61.0408 102.482 61.2628 102.589 61.5546 102.637C61.7174 102.661 61.8668 102.682 62.0035 102.7C62.3014 102.751 62.4486 102.903 62.4455 103.156C62.4393 103.465 62.216 103.623 61.7753 103.629" fill="#44494F"/>
<path d="M72.7363 104.115V100.722H72.2225V102.176H70.8795V100.722H70.3653V104.115H70.8795V102.632H72.2225V104.115H72.7363Z" fill="#44494F"/>
<path d="M78.4789 101.208V100.722H76.3126V104.115H78.4789V103.628H76.8268V102.632H78.2368V102.176H76.8268V101.208H78.4789Z" fill="#44494F"/>
<path d="M82.3361 102.209V101.18H83.1413C83.3059 101.18 83.4312 101.215 83.5183 101.285C83.6281 101.364 83.6851 101.492 83.6881 101.669C83.6881 101.816 83.6406 101.941 83.5462 102.041C83.4499 102.15 83.3059 102.206 83.1134 102.209L82.3361 102.209ZM83.5183 102.609C83.9494 102.443 84.1685 102.13 84.1746 101.669C84.1647 101.356 84.0526 101.115 83.8371 100.946C83.6585 100.796 83.4282 100.722 83.146 100.722H81.8223V104.115H82.3361V102.665H82.9923L83.6925 104.115H84.3048L83.5183 102.609" fill="#44494F"/>
<path d="M89.7535 101.208V100.722H87.5875V104.115H89.7535V103.628H88.1019V102.632H89.5118V102.176H88.1019V101.208H89.7535Z" fill="#44494F"/>
</svg>
