<svg width="56" height="57" viewBox="0 0 56 57" fill="none" xmlns="http://www.w3.org/2000/svg">
<path d="M0 28.0023C0 12.5383 12.536 0 28 0C43.464 0 56 12.5383 56 28.0023C56 43.4663 43.464 56.0046 28 56.0046C12.536 56.0046 0 43.4663 0 28.0023Z" fill="#333333"/>
<path d="M22.3254 28.7848H24.9561V39.6153C24.9561 39.8292 25.1294 40.0024 25.3432 40.0024H29.8038C30.0177 40.0024 30.1909 39.8292 30.1909 39.6153V28.8359H33.2152C33.4119 28.8359 33.5773 28.6883 33.5998 28.493L34.0591 24.5057C34.0717 24.396 34.037 24.2862 33.9636 24.2039C33.8901 24.1215 33.785 24.0743 33.6746 24.0743H30.1911V21.5749C30.1911 20.8215 30.5968 20.4394 31.397 20.4394C31.511 20.4394 33.6746 20.4394 33.6746 20.4394C33.8885 20.4394 34.0617 20.2661 34.0617 20.0523V16.3924C34.0617 16.1786 33.8885 16.0053 33.6746 16.0053H30.5357C30.5135 16.0042 30.4644 16.0024 30.3919 16.0024C29.8473 16.0024 27.9541 16.1094 26.4587 17.4851C24.8018 19.0096 25.0321 20.835 25.0871 21.1515V24.0743H22.3254C22.1115 24.0743 21.9383 24.2475 21.9383 24.4614V28.3977C21.9383 28.6115 22.1115 28.7848 22.3254 28.7848Z" fill="white"/>
</svg>
