<svg width="434" height="336" viewBox="0 0 434 336" fill="none" xmlns="http://www.w3.org/2000/svg">
<path d="M0 146C0 136.059 8.05887 128 18 128H381C390.941 128 399 136.059 399 146V318C399 327.941 390.941 336 381 336H18C8.05888 336 0 327.941 0 318V146Z" fill="white"/>
<path d="M17 289.812H24.2903V215.411H17V289.812Z" fill="#075269"/>
<path d="M33.5528 289.812H40.8431V236.305H33.5528V289.812Z" fill="#09373F"/>
<path d="M50.1056 289.812H57.3959V188.072H50.1056V289.812Z" fill="#CFCFCF"/>
<path d="M30.3019 300.825C30.5359 300.825 30.7069 300.846 30.8149 300.888C30.9289 300.924 31.0099 300.987 31.0579 301.077C31.1239 301.215 31.1569 301.401 31.1569 301.635V305.118C31.1569 305.748 30.9289 306.306 30.4729 306.792C30.0169 307.272 29.4349 307.512 28.7269 307.512C28.3309 307.512 27.9799 307.425 27.6739 307.251C27.3979 307.101 27.2059 306.966 27.0979 306.846L27.0259 306.774C26.8159 306.552 26.7109 306.363 26.7109 306.207C26.7109 306.045 26.8159 305.856 27.0259 305.64C27.2359 305.424 27.4219 305.316 27.5839 305.316C27.7459 305.316 27.9259 305.415 28.1239 305.613C28.3219 305.811 28.5349 305.91 28.7629 305.91C28.9969 305.91 29.1889 305.832 29.3389 305.676C29.4889 305.52 29.5639 305.313 29.5639 305.055V301.689C29.5639 301.329 29.6239 301.098 29.7439 300.996C29.8819 300.882 30.0679 300.825 30.3019 300.825Z" fill="#0B1F3B"/>
<path d="M35.6824 301.293L38.1124 306.315C38.2144 306.519 38.2654 306.672 38.2654 306.774C38.2654 306.99 38.0914 307.185 37.7434 307.359C37.5394 307.461 37.3774 307.512 37.2574 307.512C37.1434 307.512 37.0474 307.485 36.9694 307.431C36.8974 307.377 36.8434 307.32 36.8074 307.26C36.7774 307.2 36.7324 307.11 36.6724 306.99L36.2044 306.018H33.7114L33.2434 306.99C33.1834 307.11 33.1354 307.197 33.0994 307.251C33.0694 307.305 33.0154 307.362 32.9374 307.422C32.8654 307.476 32.7694 307.503 32.6494 307.503C32.5354 307.503 32.3764 307.452 32.1724 307.35C31.8244 307.182 31.6504 306.99 31.6504 306.774C31.6504 306.672 31.7014 306.519 31.8034 306.315L34.2334 301.284C34.2994 301.146 34.3984 301.035 34.5304 300.951C34.6684 300.867 34.8124 300.825 34.9624 300.825C35.2864 300.825 35.5264 300.981 35.6824 301.293ZM34.9534 303.453L34.3594 304.686H35.5564L34.9534 303.453Z" fill="#0B1F3B"/>
<path d="M43.0142 301.104C43.0742 300.996 43.1612 300.924 43.2752 300.888C43.3892 300.852 43.5302 300.834 43.6982 300.834C43.8722 300.834 44.0102 300.849 44.1122 300.879C44.2202 300.909 44.2982 300.945 44.3462 300.987C44.4002 301.029 44.4392 301.092 44.4632 301.176C44.4992 301.272 44.5172 301.425 44.5172 301.635V306.63C44.5172 306.774 44.5112 306.879 44.4992 306.945C44.4932 307.011 44.4662 307.089 44.4182 307.179C44.3342 307.341 44.1002 307.422 43.7162 307.422C43.4822 307.422 43.3202 307.404 43.2302 307.368C43.1402 307.332 43.0652 307.275 43.0052 307.197C41.6552 305.397 40.7672 304.221 40.3412 303.669V306.63C40.3412 306.774 40.3352 306.879 40.3232 306.945C40.3172 307.011 40.2902 307.089 40.2422 307.179C40.1582 307.341 39.9242 307.422 39.5402 307.422C39.1682 307.422 38.9402 307.341 38.8562 307.179C38.8082 307.089 38.7782 307.008 38.7662 306.936C38.7602 306.864 38.7572 306.759 38.7572 306.621V301.599C38.7572 301.371 38.7842 301.206 38.8382 301.104C38.8982 300.996 38.9852 300.924 39.0992 300.888C39.2132 300.852 39.3602 300.834 39.5402 300.834C39.7202 300.834 39.8612 300.852 39.9632 300.888C40.0712 300.918 40.1462 300.954 40.1882 300.996C40.2122 301.014 40.2812 301.092 40.3952 301.23C41.6612 302.952 42.5072 304.089 42.9332 304.641V301.599C42.9332 301.371 42.9602 301.206 43.0142 301.104Z" fill="#0B1F3B"/>
<path d="M97.8023 289.812H105.093V188.072H97.8023V289.812Z" fill="#075269"/>
<path d="M114.355 289.812H121.645V173.987H114.355V289.812Z" fill="#09373F"/>
<path d="M130.908 289.812H138.198V215.411H130.908V289.812Z" fill="#CFCFCF"/>
<path d="M111.766 300.825C111.904 300.825 112.006 300.831 112.072 300.843C112.144 300.849 112.222 300.876 112.306 300.924C112.396 300.972 112.459 301.053 112.495 301.167C112.531 301.281 112.549 301.434 112.549 301.626C112.549 301.818 112.531 301.971 112.495 302.085C112.459 302.199 112.396 302.28 112.306 302.328C112.216 302.37 112.135 302.397 112.063 302.409C111.997 302.415 111.892 302.418 111.748 302.418H108.994V303.327H110.767C110.911 303.327 111.016 303.333 111.082 303.345C111.154 303.351 111.235 303.378 111.325 303.426C111.481 303.516 111.559 303.753 111.559 304.137C111.559 304.557 111.445 304.806 111.217 304.884C111.121 304.914 110.968 304.929 110.758 304.929H108.994V306.63C108.994 306.774 108.988 306.879 108.976 306.945C108.97 307.011 108.943 307.089 108.895 307.179C108.811 307.341 108.577 307.422 108.193 307.422C107.773 307.422 107.527 307.308 107.455 307.08C107.419 306.984 107.401 306.831 107.401 306.621V301.617C107.401 301.311 107.458 301.104 107.572 300.996C107.686 300.882 107.902 300.825 108.22 300.825H111.766Z" fill="#0B1F3B"/>
<path d="M114.725 305.829H117.497C117.635 305.829 117.737 305.835 117.803 305.847C117.875 305.853 117.956 305.88 118.046 305.928C118.208 306.012 118.289 306.246 118.289 306.63C118.289 307.05 118.178 307.296 117.956 307.368C117.854 307.404 117.698 307.422 117.488 307.422H113.924C113.504 307.422 113.258 307.308 113.186 307.08C113.15 306.984 113.132 306.831 113.132 306.621V301.617C113.132 301.311 113.189 301.104 113.303 300.996C113.417 300.882 113.633 300.825 113.951 300.825H117.497C117.635 300.825 117.737 300.831 117.803 300.843C117.875 300.849 117.956 300.876 118.046 300.924C118.208 301.008 118.289 301.242 118.289 301.626C118.289 302.046 118.178 302.292 117.956 302.364C117.854 302.4 117.698 302.418 117.488 302.418H114.725V303.327H116.507C116.645 303.327 116.747 303.333 116.813 303.345C116.885 303.351 116.966 303.378 117.056 303.426C117.218 303.51 117.299 303.744 117.299 304.128C117.299 304.548 117.185 304.794 116.957 304.866C116.855 304.902 116.699 304.92 116.489 304.92H114.725V305.829Z" fill="#0B1F3B"/>
<path d="M123.569 303.885C123.923 304.305 124.1 304.776 124.1 305.298C124.088 305.898 123.881 306.402 123.479 306.81C123.083 307.212 122.6 307.413 122.03 307.413H119.663C119.243 307.413 118.997 307.299 118.925 307.071C118.889 306.969 118.871 306.813 118.871 306.603V301.608C118.871 301.464 118.874 301.359 118.88 301.293C118.892 301.227 118.922 301.149 118.97 301.059C119.054 300.897 119.288 300.816 119.672 300.816H121.94C122.492 300.816 122.954 301.008 123.326 301.392C123.716 301.782 123.911 302.25 123.911 302.796C123.911 303.192 123.797 303.555 123.569 303.885ZM122.507 305.208C122.507 305.064 122.489 304.95 122.453 304.866C122.423 304.782 122.369 304.722 122.291 304.686C122.171 304.638 122.003 304.614 121.787 304.614C121.571 304.614 121.409 304.572 121.301 304.488C121.193 304.404 121.139 304.233 121.139 303.975C121.139 303.711 121.193 303.537 121.301 303.453C121.415 303.369 121.601 303.327 121.859 303.327C122.099 303.327 122.243 303.264 122.291 303.138C122.309 303.072 122.318 302.964 122.318 302.814C122.318 302.664 122.267 302.559 122.165 302.499C122.069 302.439 121.922 302.409 121.724 302.409H120.464V305.82H121.94C122.318 305.82 122.507 305.616 122.507 305.208Z" fill="#0B1F3B"/>
<path d="M178.605 289.812H185.895V198.756H178.605V289.812Z" fill="#075269"/>
<path d="M195.154 289.812H202.444V230.184H195.154V289.812Z" fill="#0B1F3B"/>
<path d="M211.707 289.812H218.997V244.285H211.707V289.812Z" fill="#CFCFCF"/>
<path d="M194.633 301.077C194.681 301.167 194.708 301.248 194.714 301.32C194.726 301.392 194.732 301.497 194.732 301.635V306.63C194.732 307.044 194.618 307.287 194.39 307.359C194.276 307.395 194.132 307.413 193.958 307.413C193.784 307.413 193.646 307.398 193.544 307.368C193.442 307.338 193.364 307.302 193.31 307.26C193.256 307.218 193.214 307.158 193.184 307.08C193.154 306.978 193.139 306.822 193.139 306.612V303.597C192.989 303.783 192.77 304.08 192.482 304.488C192.194 304.89 192.011 305.142 191.933 305.244C191.855 305.346 191.801 305.418 191.771 305.46C191.741 305.496 191.666 305.55 191.546 305.622C191.432 305.688 191.306 305.721 191.168 305.721C191.036 305.721 190.913 305.691 190.799 305.631C190.691 305.565 190.613 305.502 190.565 305.442L190.493 305.343C190.373 305.193 190.136 304.875 189.782 304.389C189.428 303.897 189.236 303.633 189.206 303.597V306.63C189.206 306.768 189.2 306.873 189.188 306.945C189.182 307.011 189.155 307.086 189.107 307.17C189.017 307.332 188.783 307.413 188.405 307.413C188.039 307.413 187.811 307.332 187.721 307.17C187.673 307.086 187.643 307.008 187.631 306.936C187.625 306.864 187.622 306.756 187.622 306.612V301.617C187.622 301.479 187.625 301.377 187.631 301.311C187.643 301.239 187.673 301.158 187.721 301.068C187.811 300.912 188.045 300.834 188.423 300.834C188.585 300.834 188.723 300.855 188.837 300.897C188.957 300.933 189.035 300.972 189.071 301.014L189.125 301.068L191.168 303.75C192.188 302.4 192.869 301.509 193.211 301.077C193.313 300.915 193.553 300.834 193.931 300.834C194.315 300.834 194.549 300.915 194.633 301.077Z" fill="#0B1F3B"/>
<path d="M199.26 301.293L201.69 306.315C201.792 306.519 201.843 306.672 201.843 306.774C201.843 306.99 201.669 307.185 201.321 307.359C201.117 307.461 200.955 307.512 200.835 307.512C200.721 307.512 200.625 307.485 200.547 307.431C200.475 307.377 200.421 307.32 200.385 307.26C200.355 307.2 200.31 307.11 200.25 306.99L199.782 306.018H197.289L196.821 306.99C196.761 307.11 196.713 307.197 196.677 307.251C196.647 307.305 196.593 307.362 196.515 307.422C196.443 307.476 196.347 307.503 196.227 307.503C196.113 307.503 195.954 307.452 195.75 307.35C195.402 307.182 195.228 306.99 195.228 306.774C195.228 306.672 195.279 306.519 195.381 306.315L197.811 301.284C197.877 301.146 197.976 301.035 198.108 300.951C198.246 300.867 198.39 300.825 198.54 300.825C198.864 300.825 199.104 300.981 199.26 301.293ZM198.531 303.453L197.937 304.686H199.134L198.531 303.453Z" fill="#0B1F3B"/>
<path d="M207.384 306.306C207.474 306.522 207.519 306.678 207.519 306.774C207.519 307.002 207.333 307.194 206.961 307.35C206.769 307.434 206.613 307.476 206.493 307.476C206.379 307.476 206.283 307.449 206.205 307.395C206.133 307.335 206.079 307.275 206.043 307.215C205.983 307.101 205.749 306.558 205.341 305.586L205.062 305.604H203.928V306.621C203.928 306.759 203.922 306.864 203.91 306.936C203.904 307.002 203.877 307.08 203.829 307.17C203.745 307.332 203.511 307.413 203.127 307.413C202.707 307.413 202.461 307.302 202.389 307.08C202.353 306.978 202.335 306.822 202.335 306.612V301.617C202.335 301.479 202.338 301.377 202.344 301.311C202.356 301.239 202.386 301.158 202.434 301.068C202.518 300.906 202.752 300.825 203.136 300.825H205.08C205.608 300.825 206.121 301.017 206.619 301.401C206.859 301.587 207.057 301.839 207.213 302.157C207.369 302.475 207.447 302.829 207.447 303.219C207.447 303.897 207.222 304.455 206.772 304.893C206.904 305.211 207.108 305.682 207.384 306.306ZM203.928 304.011H205.08C205.254 304.011 205.428 303.945 205.602 303.813C205.776 303.681 205.863 303.483 205.863 303.219C205.863 302.955 205.776 302.757 205.602 302.625C205.428 302.487 205.248 302.418 205.062 302.418H203.928V304.011Z" fill="#0B1F3B"/>
<path d="M259.403 289.812H266.694V256.915H259.403V289.812Z" fill="#075269"/>
<path d="M275.956 289.812H283.247V220.412H275.956V289.812Z" fill="#0B1F3B"/>
<path d="M292.509 289.812H299.799V201.023H292.509V289.812Z" fill="#CFCFCF"/>
<path d="M273.071 301.293L275.501 306.315C275.603 306.519 275.654 306.672 275.654 306.774C275.654 306.99 275.48 307.185 275.132 307.359C274.928 307.461 274.766 307.512 274.646 307.512C274.532 307.512 274.436 307.485 274.358 307.431C274.286 307.377 274.232 307.32 274.196 307.26C274.166 307.2 274.121 307.11 274.061 306.99L273.593 306.018H271.1L270.632 306.99C270.572 307.11 270.524 307.197 270.488 307.251C270.458 307.305 270.404 307.362 270.326 307.422C270.254 307.476 270.158 307.503 270.038 307.503C269.924 307.503 269.765 307.452 269.561 307.35C269.213 307.182 269.039 306.99 269.039 306.774C269.039 306.672 269.09 306.519 269.192 306.315L271.622 301.284C271.688 301.146 271.787 301.035 271.919 300.951C272.057 300.867 272.201 300.825 272.351 300.825C272.675 300.825 272.915 300.981 273.071 301.293ZM272.342 303.453L271.748 304.686H272.945L272.342 303.453Z" fill="#0B1F3B"/>
<path d="M281.014 302.157C281.17 302.475 281.248 302.829 281.248 303.219C281.248 303.609 281.17 303.963 281.014 304.281C280.858 304.593 280.657 304.842 280.411 305.028C279.913 305.412 279.397 305.604 278.863 305.604H277.738V306.621C277.738 306.759 277.732 306.864 277.72 306.936C277.714 307.002 277.687 307.08 277.639 307.17C277.555 307.332 277.321 307.413 276.937 307.413C276.517 307.413 276.271 307.302 276.199 307.08C276.163 306.978 276.145 306.822 276.145 306.612V301.617C276.145 301.479 276.148 301.377 276.154 301.311C276.166 301.239 276.196 301.158 276.244 301.068C276.328 300.906 276.562 300.825 276.946 300.825H278.872C279.4 300.825 279.913 301.017 280.411 301.401C280.657 301.587 280.858 301.839 281.014 302.157ZM278.872 304.011C279.052 304.011 279.229 303.945 279.403 303.813C279.577 303.681 279.664 303.483 279.664 303.219C279.664 302.955 279.577 302.757 279.403 302.625C279.229 302.487 279.049 302.418 278.863 302.418H277.738V304.011H278.872Z" fill="#0B1F3B"/>
<path d="M286.881 306.306C286.971 306.522 287.016 306.678 287.016 306.774C287.016 307.002 286.83 307.194 286.458 307.35C286.266 307.434 286.11 307.476 285.99 307.476C285.876 307.476 285.78 307.449 285.702 307.395C285.63 307.335 285.576 307.275 285.54 307.215C285.48 307.101 285.246 306.558 284.838 305.586L284.559 305.604H283.425V306.621C283.425 306.759 283.419 306.864 283.407 306.936C283.401 307.002 283.374 307.08 283.326 307.17C283.242 307.332 283.008 307.413 282.624 307.413C282.204 307.413 281.958 307.302 281.886 307.08C281.85 306.978 281.832 306.822 281.832 306.612V301.617C281.832 301.479 281.835 301.377 281.841 301.311C281.853 301.239 281.883 301.158 281.931 301.068C282.015 300.906 282.249 300.825 282.633 300.825H284.577C285.105 300.825 285.618 301.017 286.116 301.401C286.356 301.587 286.554 301.839 286.71 302.157C286.866 302.475 286.944 302.829 286.944 303.219C286.944 303.897 286.719 304.455 286.269 304.893C286.401 305.211 286.605 305.682 286.881 306.306ZM283.425 304.011H284.577C284.751 304.011 284.925 303.945 285.099 303.813C285.273 303.681 285.36 303.483 285.36 303.219C285.36 302.955 285.273 302.757 285.099 302.625C284.925 302.487 284.745 302.418 284.559 302.418H283.425V304.011Z" fill="#0B1F3B"/>
<path d="M340.206 289.812H347.497V182.797H340.206V289.812Z" fill="#09373F"/>
<path d="M356.759 289.812H364.049V151.011H356.759V289.812Z" fill="#0B1F3B"/>
<path d="M373.312 289.812H380.602V226.153H373.312V289.812Z" fill="#CFCFCF"/>
<path d="M356.771 301.077C356.819 301.167 356.846 301.248 356.852 301.32C356.864 301.392 356.87 301.497 356.87 301.635V306.63C356.87 307.044 356.756 307.287 356.528 307.359C356.414 307.395 356.27 307.413 356.096 307.413C355.922 307.413 355.784 307.398 355.682 307.368C355.58 307.338 355.502 307.302 355.448 307.26C355.394 307.218 355.352 307.158 355.322 307.08C355.292 306.978 355.277 306.822 355.277 306.612V303.597C355.127 303.783 354.908 304.08 354.62 304.488C354.332 304.89 354.149 305.142 354.071 305.244C353.993 305.346 353.939 305.418 353.909 305.46C353.879 305.496 353.804 305.55 353.684 305.622C353.57 305.688 353.444 305.721 353.306 305.721C353.174 305.721 353.051 305.691 352.937 305.631C352.829 305.565 352.751 305.502 352.703 305.442L352.631 305.343C352.511 305.193 352.274 304.875 351.92 304.389C351.566 303.897 351.374 303.633 351.344 303.597V306.63C351.344 306.768 351.338 306.873 351.326 306.945C351.32 307.011 351.293 307.086 351.245 307.17C351.155 307.332 350.921 307.413 350.543 307.413C350.177 307.413 349.949 307.332 349.859 307.17C349.811 307.086 349.781 307.008 349.769 306.936C349.763 306.864 349.76 306.756 349.76 306.612V301.617C349.76 301.479 349.763 301.377 349.769 301.311C349.781 301.239 349.811 301.158 349.859 301.068C349.949 300.912 350.183 300.834 350.561 300.834C350.723 300.834 350.861 300.855 350.975 300.897C351.095 300.933 351.173 300.972 351.209 301.014L351.263 301.068L353.306 303.75C354.326 302.4 355.007 301.509 355.349 301.077C355.451 300.915 355.691 300.834 356.069 300.834C356.453 300.834 356.687 300.915 356.771 301.077Z" fill="#0B1F3B"/>
<path d="M361.398 301.293L363.828 306.315C363.93 306.519 363.981 306.672 363.981 306.774C363.981 306.99 363.807 307.185 363.459 307.359C363.255 307.461 363.093 307.512 362.973 307.512C362.859 307.512 362.763 307.485 362.685 307.431C362.613 307.377 362.559 307.32 362.523 307.26C362.493 307.2 362.448 307.11 362.388 306.99L361.92 306.018H359.427L358.959 306.99C358.899 307.11 358.851 307.197 358.815 307.251C358.785 307.305 358.731 307.362 358.653 307.422C358.581 307.476 358.485 307.503 358.365 307.503C358.251 307.503 358.092 307.452 357.888 307.35C357.54 307.182 357.366 306.99 357.366 306.774C357.366 306.672 357.417 306.519 357.519 306.315L359.949 301.284C360.015 301.146 360.114 301.035 360.246 300.951C360.384 300.867 360.528 300.825 360.678 300.825C361.002 300.825 361.242 300.981 361.398 301.293ZM360.669 303.453L360.075 304.686H361.272L360.669 303.453Z" fill="#0B1F3B"/>
<path d="M368.357 300.951C368.651 301.155 368.798 301.353 368.798 301.545C368.798 301.659 368.729 301.818 368.591 302.022L366.647 304.929V306.648C366.647 306.786 366.641 306.891 366.629 306.963C366.623 307.029 366.596 307.107 366.548 307.197C366.5 307.287 366.419 307.35 366.305 307.386C366.191 307.422 366.038 307.44 365.846 307.44C365.654 307.44 365.501 307.422 365.387 307.386C365.273 307.35 365.192 307.287 365.144 307.197C365.096 307.101 365.066 307.02 365.054 306.954C365.048 306.882 365.045 306.774 365.045 306.63V304.929L363.101 302.022C362.963 301.818 362.894 301.659 362.894 301.545C362.894 301.353 363.026 301.17 363.29 300.996C363.554 300.816 363.743 300.726 363.857 300.726C363.971 300.726 364.061 300.75 364.127 300.798C364.229 300.864 364.337 300.987 364.451 301.167L365.846 303.399L367.241 301.167C367.355 300.987 367.454 300.87 367.538 300.816C367.622 300.756 367.718 300.726 367.826 300.726C367.94 300.726 368.117 300.801 368.357 300.951Z" fill="#0B1F3B"/>
<path d="M136 18C136 8.05888 144.059 0 154 0H415.515C425.456 0 433.515 8.05888 433.515 18V165C433.515 174.941 425.456 183 415.515 183H154C144.059 183 136 174.941 136 165V18Z" fill="white"/>
<path d="M234.998 143.504C231.865 145.298 228.482 146.696 224.929 147.629C221.472 148.559 217.84 149.054 214.114 149.054C210.358 149.054 206.729 148.559 203.275 147.629C199.717 146.696 196.337 145.298 193.206 143.504C190.046 141.687 187.113 139.506 184.553 136.952C181.969 134.422 179.752 131.526 177.914 128.409C176.1 125.316 174.685 121.979 173.738 118.465C172.819 115.055 172.323 111.471 172.323 107.766C172.323 104.084 172.819 100.498 173.738 97.088C174.685 93.5776 176.1 90.2379 177.914 87.147C179.752 84.005 181.969 81.1337 184.553 78.6063C187.113 76.0522 190.046 73.8664 193.206 72.0514C196.337 70.2583 199.717 68.8605 203.275 67.9286C206.729 66.9943 210.358 66.5039 214.114 66.5039V58.3804C209.612 58.3804 205.286 58.9683 201.16 60.0465C196.885 61.176 192.83 62.8471 189.077 64.9817C185.297 67.165 181.793 69.7924 178.71 72.8344C175.626 75.8789 172.967 79.3162 170.781 83.073C168.592 86.7786 166.902 90.7551 165.758 94.9778C164.663 99.0762 164.067 103.345 164.067 107.766C164.067 112.208 164.663 116.48 165.758 120.554C166.902 124.773 168.592 128.777 170.781 132.485C172.967 136.239 175.626 139.676 178.71 142.719C181.793 145.764 185.297 148.388 189.077 150.549C192.83 152.711 196.885 154.377 201.16 155.506C205.286 156.587 209.612 157.178 214.114 157.178C218.589 157.178 222.913 156.587 227.066 155.506C231.341 154.377 235.368 152.711 239.124 150.549C242.877 148.415 246.334 145.812 249.393 142.792L243.549 137.025C241.012 139.552 238.128 141.714 234.998 143.504Z" fill="#075269"/>
<path d="M262.281 95.3737C261.125 91.1053 259.418 87.0858 257.235 83.3401C254.999 79.5427 252.311 76.0682 249.199 72.9908C246.084 69.9158 242.57 67.26 238.727 65.0531C234.934 62.8954 230.866 61.2063 226.548 60.0646C222.353 58.9746 217.986 58.3804 213.466 58.3804V66.5918C217.23 66.5918 220.898 67.0874 224.39 68.0319C227.978 68.9738 231.395 70.3868 234.559 72.1992C237.774 74.0339 240.711 76.2433 243.296 78.8251C245.909 81.3798 248.143 84.2821 250.002 87.4582C251.836 90.5825 253.266 93.9583 254.245 97.5067C255.173 100.954 255.677 104.579 255.677 108.3C255.677 112.046 255.173 115.668 254.245 119.115C253.266 122.666 251.836 126.04 250.002 129.166C248.143 132.317 245.909 135.245 243.296 137.802L243.197 137.876L249.099 143.706L249.199 143.631C252.311 140.556 254.999 137.081 257.235 133.287C259.418 129.538 261.125 125.492 262.281 121.226C263.384 117.108 263.988 112.79 263.988 108.3C263.988 103.832 263.384 99.5164 262.281 95.3737Z" fill="#CED1D5"/>
<path d="M406.571 107.791C406.571 112.209 405.973 116.493 404.879 120.562C403.733 124.791 402.043 128.78 399.86 132.471C397.679 136.216 395.004 139.665 391.922 142.71C388.839 145.754 385.35 148.393 381.558 150.549C377.819 152.706 373.781 154.375 369.501 155.506C365.381 156.582 361.044 157.178 356.544 157.178C352.068 157.178 347.734 156.582 343.614 155.506C339.329 154.375 335.291 152.706 331.556 150.549C327.765 148.393 324.273 145.754 321.19 142.71C318.105 139.665 315.433 136.216 313.252 132.471C311.071 128.78 309.377 124.791 308.231 120.562C307.413 117.547 306.895 114.419 306.65 111.214H314.944C315.161 113.69 315.571 116.117 316.199 118.461C317.155 121.991 318.572 125.331 320.37 128.402C322.225 131.527 324.436 134.41 327.029 136.943C329.593 139.504 332.51 141.685 335.676 143.517C338.786 145.295 342.169 146.696 345.741 147.637C349.203 148.554 352.804 149.04 356.544 149.04C360.305 149.04 363.906 148.554 367.374 147.637C370.945 146.696 374.329 145.295 377.439 143.517C380.603 141.685 383.522 139.504 386.086 136.943C388.677 134.41 390.885 131.527 392.739 128.402C394.542 125.331 395.96 121.991 396.916 118.461C397.842 115.039 398.334 111.482 398.334 107.791C398.334 104.074 397.842 100.517 396.916 97.0968C395.96 93.5645 394.542 90.2249 392.739 87.1536C390.885 84.0262 388.677 81.1453 386.086 78.6131C383.522 76.0541 380.603 73.8708 377.439 72.0388C374.329 70.2605 370.945 68.8602 367.374 67.9162C363.906 67.0014 360.305 66.5159 356.544 66.5159V58.3804C361.044 58.3804 365.381 58.9707 369.501 60.0489C373.781 61.1808 377.819 62.8519 381.558 65.0059C385.35 67.1624 388.839 69.8019 391.922 72.8463C395.004 75.8907 397.679 79.3377 399.86 83.0871C402.043 86.7755 403.733 90.764 404.879 94.9916C405.973 99.0606 406.571 103.344 406.571 107.791Z" fill="#CED1D5"/>
<path d="M398.343 107.796C398.343 111.487 397.852 115.043 396.927 118.465C395.973 121.994 394.557 125.334 392.756 128.405C390.903 131.529 388.698 134.412 386.11 136.945C383.549 139.506 380.633 141.686 377.473 143.518C374.367 145.296 370.988 146.697 367.421 147.638C363.957 148.555 360.36 149.041 356.603 149.041C352.868 149.041 349.271 148.555 345.813 147.638C342.246 146.697 338.866 145.296 335.76 143.518C332.597 141.686 329.684 139.506 327.123 136.945C324.533 134.412 322.325 131.529 320.472 128.405C318.677 125.334 317.261 121.994 316.306 118.465C315.679 116.121 315.27 113.694 315.053 111.218H315.048C314.951 110.084 314.887 108.94 314.887 107.784C314.887 104.089 315.386 100.51 316.306 97.1052C317.261 93.5781 318.677 90.2413 320.48 87.1581C322.315 84.0237 324.54 81.1504 327.109 78.6087C329.679 76.0695 332.588 73.8669 335.755 72.0546C338.873 70.2715 342.251 68.8714 345.815 67.9274C349.259 67.0176 352.878 66.5249 356.615 66.5249V58.3804C352.14 58.3804 347.808 58.9707 343.684 60.061C339.414 61.1879 335.373 62.8661 331.635 65.0052C327.846 67.1713 324.363 69.8081 321.287 72.8497C318.208 75.8914 315.544 79.338 313.35 83.0846C311.187 86.78 309.49 90.7754 308.35 94.9953C307.247 99.076 306.65 103.359 306.65 107.784C306.65 108.938 306.695 110.082 306.776 111.218H306.769C307.013 114.424 307.531 117.551 308.348 120.565C309.492 124.795 311.185 128.783 313.363 132.473C315.541 136.218 318.21 139.667 321.292 142.711C324.37 145.755 327.859 148.394 331.645 150.55C335.375 152.706 339.409 154.375 343.689 155.507C347.804 156.583 352.133 157.178 356.603 157.178C361.098 157.178 365.43 156.583 369.545 155.507C373.82 154.375 377.853 152.706 381.588 150.55C385.375 148.394 388.86 145.755 391.939 142.711C395.018 139.667 397.69 136.218 399.868 132.473C402.049 128.783 403.736 124.795 404.881 120.565C405.974 116.497 406.571 112.214 406.571 107.796H398.343Z" fill="#075269"/>
<path d="M196.298 114.443C195.034 114.443 193.946 114.171 193.034 113.627C192.138 113.067 191.442 112.275 190.946 111.251C190.466 110.211 190.226 108.979 190.226 107.555C190.226 106.339 190.37 105.211 190.658 104.171C190.946 103.131 191.354 102.195 191.882 101.363C192.426 100.515 193.074 99.7946 193.826 99.2026C194.594 98.6106 195.45 98.1546 196.394 97.8346C197.354 97.5146 198.386 97.3546 199.49 97.3546C199.842 97.3546 200.178 97.3866 200.498 97.4506C200.818 97.5146 201.082 97.6986 201.29 98.0026C201.498 98.3066 201.602 98.8266 201.602 99.5626C201.602 100.283 201.49 100.795 201.266 101.099C201.058 101.403 200.786 101.587 200.45 101.651C200.114 101.715 199.762 101.747 199.394 101.747C198.674 101.747 198.058 101.843 197.546 102.035C197.05 102.227 196.634 102.467 196.298 102.755C195.978 103.043 195.722 103.331 195.53 103.619C195.338 103.907 195.202 104.147 195.122 104.339C195.058 104.531 195.026 104.627 195.026 104.627L194.738 104.363C194.738 104.363 194.818 104.331 194.978 104.267C195.154 104.187 195.37 104.115 195.626 104.051C195.898 103.987 196.178 103.955 196.466 103.955C197.474 103.955 198.402 104.187 199.25 104.651C200.098 105.115 200.778 105.723 201.29 106.475C201.802 107.227 202.058 108.051 202.058 108.947C202.058 109.971 201.802 110.899 201.29 111.731C200.778 112.563 200.082 113.227 199.202 113.723C198.338 114.203 197.37 114.443 196.298 114.443ZM196.202 110.339C196.554 110.339 196.842 110.299 197.066 110.219C197.29 110.123 197.45 109.979 197.546 109.787C197.658 109.595 197.714 109.355 197.714 109.067C197.714 108.827 197.658 108.619 197.546 108.443C197.434 108.267 197.274 108.131 197.066 108.035C196.858 107.939 196.618 107.891 196.346 107.891C196.026 107.891 195.738 107.939 195.482 108.035C195.242 108.131 195.058 108.267 194.93 108.443C194.802 108.603 194.738 108.795 194.738 109.019C194.738 109.323 194.786 109.579 194.882 109.787C194.978 109.979 195.13 110.123 195.338 110.219C195.562 110.299 195.85 110.339 196.202 110.339Z" fill="#0B1F3B"/>
<path d="M208.069 114.467C207.317 114.467 206.653 114.379 206.077 114.203C205.501 114.043 205.013 113.851 204.613 113.627C204.229 113.403 203.933 113.211 203.725 113.051C203.533 112.875 203.437 112.787 203.437 112.787C203.197 112.579 202.981 112.363 202.789 112.139C202.613 111.899 202.525 111.627 202.525 111.323C202.525 111.067 202.597 110.811 202.741 110.555C202.885 110.283 203.109 109.995 203.413 109.691C203.653 109.419 203.893 109.219 204.133 109.091C204.389 108.947 204.645 108.875 204.901 108.875C205.141 108.875 205.381 108.939 205.621 109.067C205.877 109.179 206.181 109.379 206.533 109.667C206.533 109.667 206.573 109.699 206.653 109.763C206.749 109.827 206.893 109.891 207.085 109.955C207.293 110.019 207.573 110.051 207.925 110.051C208.261 110.051 208.541 109.995 208.765 109.883C209.005 109.771 209.181 109.619 209.293 109.427C209.421 109.219 209.485 108.971 209.485 108.683C209.485 108.411 209.421 108.171 209.293 107.963C209.165 107.755 208.989 107.595 208.765 107.483C208.541 107.355 208.285 107.291 207.997 107.291C207.805 107.291 207.637 107.315 207.493 107.363C207.365 107.411 207.261 107.467 207.181 107.531C207.117 107.579 207.077 107.611 207.061 107.627C206.901 107.771 206.717 107.907 206.509 108.035C206.301 108.147 206.037 108.203 205.717 108.203C205.477 108.203 205.229 108.163 204.973 108.083C204.717 108.003 204.445 107.883 204.157 107.723C203.645 107.451 203.285 107.211 203.077 107.003C202.885 106.795 202.789 106.563 202.789 106.307L203.677 99.4906C203.709 99.2506 203.773 98.9626 203.869 98.6266C203.965 98.2746 204.165 97.9706 204.469 97.7146C204.773 97.4426 205.245 97.3066 205.885 97.3066L211.381 97.3307C211.749 97.3307 212.093 97.3627 212.413 97.4267C212.749 97.4907 213.021 97.6826 213.229 98.0026C213.453 98.3066 213.565 98.8346 213.565 99.5866C213.565 100.275 213.461 100.771 213.253 101.075C213.061 101.363 212.805 101.539 212.485 101.603C212.165 101.651 211.837 101.675 211.501 101.675H207.805L207.637 102.947C207.685 102.931 207.733 102.923 207.781 102.923C207.829 102.923 207.869 102.923 207.901 102.923C207.949 102.907 207.997 102.899 208.045 102.899H208.165C208.917 102.899 209.637 103.051 210.325 103.355C211.013 103.643 211.621 104.051 212.149 104.579C212.693 105.107 213.117 105.707 213.421 106.379C213.741 107.051 213.901 107.763 213.901 108.515C213.901 109.635 213.645 110.643 213.133 111.539C212.621 112.435 211.925 113.147 211.045 113.675C210.165 114.203 209.173 114.467 208.069 114.467Z" fill="#0B1F3B"/>
<path d="M218.897 114.587C218.673 114.459 218.489 114.323 218.345 114.179C218.217 114.051 218.145 113.899 218.129 113.723C218.113 113.547 218.169 113.355 218.297 113.147L226.937 96.8506C227.065 96.6266 227.201 96.4666 227.345 96.3706C227.489 96.2586 227.657 96.2106 227.849 96.2266C228.041 96.2426 228.257 96.3226 228.497 96.4666C228.753 96.6106 228.945 96.7626 229.073 96.9226C229.201 97.0666 229.265 97.2186 229.265 97.3786C229.265 97.5226 229.201 97.6906 229.073 97.8826L220.385 114.275C220.273 114.499 220.145 114.651 220.001 114.731C219.873 114.811 219.713 114.835 219.521 114.803C219.345 114.771 219.137 114.699 218.897 114.587ZM218.897 106.067C217.697 106.067 216.729 105.667 215.993 104.867C215.273 104.067 214.913 103.011 214.913 101.699C214.913 100.355 215.265 99.2827 215.969 98.4827C216.689 97.6827 217.657 97.2826 218.873 97.2826C220.137 97.2826 221.121 97.6746 221.825 98.4586C222.529 99.2266 222.881 100.299 222.881 101.675C222.881 103.067 222.537 104.147 221.849 104.915C221.161 105.683 220.177 106.067 218.897 106.067ZM218.873 102.947C219.273 102.947 219.561 102.843 219.737 102.635C219.913 102.427 220.001 102.099 220.001 101.651C220.001 101.187 219.913 100.867 219.737 100.691C219.577 100.499 219.289 100.403 218.873 100.403C218.473 100.403 218.185 100.499 218.009 100.691C217.849 100.867 217.769 101.187 217.769 101.651C217.769 102.115 217.849 102.451 218.009 102.659C218.185 102.851 218.473 102.947 218.873 102.947ZM228.305 114.203C227.105 114.203 226.137 113.803 225.401 113.003C224.665 112.203 224.297 111.147 224.297 109.835C224.297 108.475 224.657 107.403 225.377 106.619C226.097 105.819 227.065 105.419 228.281 105.419C229.545 105.419 230.521 105.803 231.209 106.571C231.913 107.339 232.265 108.419 232.265 109.811C232.265 111.219 231.921 112.307 231.233 113.075C230.561 113.827 229.585 114.203 228.305 114.203ZM228.281 111.083C228.697 111.083 228.985 110.987 229.145 110.795C229.321 110.587 229.409 110.251 229.409 109.787C229.409 109.323 229.321 109.003 229.145 108.827C228.985 108.635 228.697 108.539 228.281 108.539C227.881 108.539 227.593 108.635 227.417 108.827C227.257 109.019 227.177 109.347 227.177 109.811C227.177 110.275 227.257 110.603 227.417 110.795C227.593 110.987 227.881 111.083 228.281 111.083Z" fill="#0B1F3B"/>
<path d="M339.35 114.155C338.63 114.155 338.118 114.075 337.814 113.915C337.51 113.755 337.318 113.531 337.238 113.243C337.174 112.939 337.142 112.603 337.142 112.235C337.142 111.403 337.238 110.603 337.43 109.835C337.638 109.067 337.902 108.331 338.222 107.627C338.558 106.923 338.91 106.267 339.278 105.659C339.662 105.035 340.03 104.475 340.382 103.979C340.734 103.467 341.038 103.027 341.294 102.659C341.566 102.291 341.742 101.995 341.822 101.771H337.022C336.67 101.771 336.326 101.739 335.99 101.675C335.654 101.595 335.374 101.403 335.15 101.099C334.942 100.795 334.838 100.283 334.838 99.5626C334.838 98.8426 334.942 98.3306 335.15 98.0266C335.358 97.7226 335.614 97.5386 335.918 97.4746C336.238 97.4106 336.566 97.3786 336.902 97.3786H344.942C345.678 97.3786 346.19 97.4906 346.478 97.7146C346.782 97.9226 346.966 98.1946 347.03 98.5306C347.094 98.8666 347.126 99.2186 347.126 99.5866C347.126 100.211 346.99 100.875 346.718 101.579C346.446 102.267 346.102 102.979 345.686 103.715C345.27 104.435 344.822 105.171 344.342 105.923C343.862 106.659 343.414 107.395 342.998 108.131C342.582 108.867 342.238 109.587 341.966 110.291C341.694 110.979 341.558 111.643 341.558 112.283C341.558 112.635 341.518 112.955 341.438 113.243C341.374 113.531 341.182 113.755 340.862 113.915C340.558 114.075 340.054 114.155 339.35 114.155Z" fill="#0B1F3B"/>
<path d="M352.921 114.467C352.169 114.467 351.505 114.379 350.929 114.203C350.353 114.043 349.865 113.851 349.465 113.627C349.081 113.403 348.785 113.211 348.577 113.051C348.385 112.875 348.289 112.787 348.289 112.787C348.049 112.579 347.833 112.363 347.641 112.139C347.465 111.899 347.377 111.627 347.377 111.323C347.377 111.067 347.449 110.811 347.593 110.555C347.737 110.283 347.961 109.995 348.265 109.691C348.505 109.419 348.745 109.219 348.985 109.091C349.241 108.947 349.497 108.875 349.753 108.875C349.993 108.875 350.233 108.939 350.473 109.067C350.729 109.179 351.033 109.379 351.385 109.667C351.385 109.667 351.425 109.699 351.505 109.763C351.601 109.827 351.745 109.891 351.937 109.955C352.145 110.019 352.425 110.051 352.777 110.051C353.113 110.051 353.393 109.995 353.617 109.883C353.857 109.771 354.033 109.619 354.145 109.427C354.273 109.219 354.337 108.971 354.337 108.683C354.337 108.411 354.273 108.171 354.145 107.963C354.017 107.755 353.841 107.595 353.617 107.483C353.393 107.355 353.137 107.291 352.849 107.291C352.657 107.291 352.489 107.315 352.345 107.363C352.217 107.411 352.113 107.467 352.033 107.531C351.969 107.579 351.929 107.611 351.913 107.627C351.753 107.771 351.569 107.907 351.361 108.035C351.153 108.147 350.889 108.203 350.569 108.203C350.329 108.203 350.081 108.163 349.825 108.083C349.569 108.003 349.297 107.883 349.009 107.723C348.497 107.451 348.137 107.211 347.929 107.003C347.737 106.795 347.641 106.563 347.641 106.307L348.529 99.4906C348.561 99.2506 348.625 98.9626 348.721 98.6266C348.817 98.2746 349.017 97.9706 349.321 97.7146C349.625 97.4426 350.097 97.3066 350.737 97.3066L356.233 97.3307C356.601 97.3307 356.945 97.3627 357.265 97.4267C357.601 97.4907 357.873 97.6826 358.081 98.0026C358.305 98.3066 358.417 98.8346 358.417 99.5866C358.417 100.275 358.313 100.771 358.105 101.075C357.913 101.363 357.657 101.539 357.337 101.603C357.017 101.651 356.689 101.675 356.353 101.675H352.657L352.489 102.947C352.537 102.931 352.585 102.923 352.633 102.923C352.681 102.923 352.721 102.923 352.753 102.923C352.801 102.907 352.849 102.899 352.897 102.899H353.017C353.769 102.899 354.489 103.051 355.177 103.355C355.865 103.643 356.473 104.051 357.001 104.579C357.545 105.107 357.969 105.707 358.273 106.379C358.593 107.051 358.753 107.763 358.753 108.515C358.753 109.635 358.497 110.643 357.985 111.539C357.473 112.435 356.777 113.147 355.897 113.675C355.017 114.203 354.025 114.467 352.921 114.467Z" fill="#0B1F3B"/>
<path d="M363.749 114.587C363.525 114.459 363.341 114.323 363.197 114.179C363.069 114.051 362.997 113.899 362.981 113.723C362.965 113.547 363.021 113.355 363.149 113.147L371.789 96.8506C371.917 96.6266 372.053 96.4666 372.197 96.3706C372.341 96.2586 372.509 96.2106 372.701 96.2266C372.893 96.2426 373.109 96.3226 373.349 96.4666C373.605 96.6106 373.797 96.7626 373.925 96.9226C374.053 97.0666 374.117 97.2186 374.117 97.3786C374.117 97.5226 374.053 97.6906 373.925 97.8826L365.237 114.275C365.125 114.499 364.997 114.651 364.853 114.731C364.725 114.811 364.565 114.835 364.373 114.803C364.197 114.771 363.989 114.699 363.749 114.587ZM363.749 106.067C362.549 106.067 361.581 105.667 360.845 104.867C360.125 104.067 359.765 103.011 359.765 101.699C359.765 100.355 360.117 99.2827 360.821 98.4827C361.541 97.6827 362.509 97.2826 363.725 97.2826C364.989 97.2826 365.973 97.6746 366.677 98.4586C367.381 99.2266 367.733 100.299 367.733 101.675C367.733 103.067 367.389 104.147 366.701 104.915C366.013 105.683 365.029 106.067 363.749 106.067ZM363.725 102.947C364.125 102.947 364.413 102.843 364.589 102.635C364.765 102.427 364.853 102.099 364.853 101.651C364.853 101.187 364.765 100.867 364.589 100.691C364.429 100.499 364.141 100.403 363.725 100.403C363.325 100.403 363.037 100.499 362.861 100.691C362.701 100.867 362.621 101.187 362.621 101.651C362.621 102.115 362.701 102.451 362.861 102.659C363.037 102.851 363.325 102.947 363.725 102.947ZM373.157 114.203C371.957 114.203 370.989 113.803 370.253 113.003C369.517 112.203 369.149 111.147 369.149 109.835C369.149 108.475 369.509 107.403 370.229 106.619C370.949 105.819 371.917 105.419 373.133 105.419C374.397 105.419 375.373 105.803 376.061 106.571C376.765 107.339 377.117 108.419 377.117 109.811C377.117 111.219 376.773 112.307 376.085 113.075C375.413 113.827 374.437 114.203 373.157 114.203ZM373.133 111.083C373.549 111.083 373.837 110.987 373.997 110.795C374.173 110.587 374.261 110.251 374.261 109.787C374.261 109.323 374.173 109.003 373.997 108.827C373.837 108.635 373.549 108.539 373.133 108.539C372.733 108.539 372.445 108.635 372.269 108.827C372.109 109.019 372.029 109.347 372.029 109.811C372.029 110.275 372.109 110.603 372.269 110.795C372.445 110.987 372.733 111.083 373.133 111.083Z" fill="#0B1F3B"/>
</svg>
