<svg width="78" height="78" viewBox="0 0 78 78" fill="none" xmlns="http://www.w3.org/2000/svg">
<rect width="78" height="78" fill="#0B1F3B"/>
<path d="M54.6065 33.3321C54.2403 32.9661 53.6467 32.9661 53.2806 33.3321C52.9145 33.6983 52.9145 34.2919 53.2806 34.658C53.295 34.6725 53.31 34.6872 53.3246 34.7007C53.5055 34.8701 53.7357 34.9539 53.9653 34.9539C54.2155 34.9539 54.4652 34.8542 54.6497 34.6573C55.0037 34.2795 54.9843 33.6861 54.6065 33.3321Z" fill="white"/>
<path d="M52.7018 31.7924C52.1651 31.4279 51.6142 31.1029 51.0642 30.8261C47.9531 29.2605 44.6562 28.9463 41.5298 29.9172C41.0354 30.0708 40.7589 30.5961 40.9126 31.0905C41.0661 31.5851 41.5912 31.8613 42.0859 31.7078C44.7394 30.8836 47.5526 31.1579 50.2212 32.5008C50.692 32.7379 51.1855 33.0295 51.6487 33.3436C51.81 33.4531 51.9931 33.5057 52.1743 33.5057C52.4745 33.5057 52.7695 33.3618 52.9509 33.0946C53.2417 32.6663 53.1301 32.0832 52.7018 31.7924Z" fill="white"/>
<path d="M61.2309 43.9245C60.8465 43.1183 60.2101 41.7831 60.1986 41.3415C61.2949 38.6392 60.895 35.6489 59.0689 32.9135C56.2608 28.7067 50.5056 25.6533 45.3843 25.6533C42.6772 25.6533 40.0337 26.2989 37.6555 27.5312C36.9732 23.7927 33.6946 20.9492 29.7621 20.9492C25.3366 20.9492 21.7362 24.5496 21.7362 28.975C21.7362 31.7906 23.1712 34.3506 25.5743 35.823C26.2672 36.2475 26.4239 36.6144 26.4796 37.2156V40.4165V42.7015C26.4796 43.7483 27.331 44.5999 28.3775 44.5999H28.6963C29.2113 48.7039 31.1974 52.43 34.3502 55.1719C34.38 55.2645 34.4667 55.6986 34.0941 56.994C33.804 58.0031 33.3587 59.1241 32.9659 60.1131C32.7031 60.7749 32.476 61.3465 32.3388 61.7787C32.2483 62.0636 32.2991 62.3746 32.4756 62.6161C32.6523 62.8574 32.9333 63.0001 33.2323 63.0001H46.6146C47.0543 63.0001 47.6582 62.8032 48.0383 61.8652C48.2038 61.457 48.3118 60.966 48.4263 60.4459C48.5377 59.9393 48.7988 58.7527 49.0585 58.6094C49.0587 58.6094 49.0739 58.6068 49.1106 58.6125C49.1587 58.6202 49.2073 58.6238 49.2561 58.6238C50.6575 58.6238 51.8027 58.6874 52.813 58.7433C55.7764 58.9078 57.5651 59.0071 59.1342 56.747C59.9322 55.5974 59.8417 53.9209 59.746 52.1459C59.6967 51.2311 59.6458 50.2869 59.7361 49.5019C59.8997 49.3407 60.3094 49.0595 60.5663 48.8831C61.4501 48.2761 62.2847 47.703 62.2847 46.8316C62.285 46.1693 61.8844 45.2954 61.2309 43.9245ZM26.554 34.224C24.7114 33.0952 23.6113 31.1331 23.6113 28.9749C23.6113 25.5833 26.3707 22.8241 29.7622 22.8241C33.1539 22.8241 35.9131 25.5834 35.9131 28.9749C35.9131 31.1331 34.8132 33.0953 32.9704 34.2242C32.0947 34.7609 31.5742 35.3868 31.3272 36.2327L29.7619 36.2321L28.1975 36.2327C27.9502 35.3869 27.4298 34.7609 26.554 34.224ZM31.1699 38.1078V39.4789H28.3548V38.1078H31.1699ZM28.3777 42.7248C28.3673 42.7248 28.3548 42.7119 28.3548 42.7014V41.3539H31.1699V42.7014C31.1699 42.712 31.1572 42.7248 31.1466 42.7248H28.3777ZM59.5051 47.3373C58.6982 47.8916 58.0013 48.37 57.8986 49.0942C57.7574 50.0875 57.8166 51.1853 57.8738 52.2467C57.9449 53.5636 58.0253 55.0563 57.5941 55.6775C56.6613 57.0214 55.8544 57.0344 52.917 56.8712C51.9478 56.8174 50.7452 56.7507 49.3193 56.7486C48.7718 56.6841 47.8452 56.7869 47.2269 57.9889C46.9129 58.5992 46.7441 59.3661 46.5953 60.0427C46.5204 60.3827 46.4154 60.8605 46.3169 61.1249H34.5819C34.623 61.0213 34.6653 60.9145 34.7088 60.805C36.0594 57.4044 36.9148 54.9103 35.6128 53.7847C32.8532 51.398 31.0933 48.166 30.5886 44.5998H31.1467C32.1934 44.5998 33.045 43.7482 33.045 42.7014V40.4164V37.2174C33.1006 36.6151 33.2568 36.2478 33.9502 35.8229C36.1694 34.4633 37.5617 32.1761 37.7622 29.6168C40.0632 28.2495 42.6878 27.5282 45.3844 27.5282C49.8514 27.5282 55.0641 30.2909 57.5096 33.9544C58.5577 35.5246 59.5701 37.9672 58.4406 40.6869C58.0727 41.5725 58.6182 42.8009 59.5384 44.7313C59.8364 45.3563 60.2676 46.261 60.3818 46.6836C60.1881 46.8684 59.7717 47.1543 59.5051 47.3373Z" fill="white"/>
<path d="M34.3608 27.6503C34.0839 26.6242 33.3957 25.8024 32.3704 25.2734C31.9102 25.0363 31.3448 25.2167 31.1074 25.677C30.8701 26.1372 31.0507 26.7026 31.5109 26.9399C32.0707 27.2286 32.4108 27.6209 32.5505 28.1387C32.7716 28.9584 32.4371 29.8454 32.2903 30.0757C32.012 30.5124 32.1403 31.092 32.5769 31.3703C32.7331 31.47 32.9076 31.5173 33.08 31.5173C33.3896 31.5173 33.6926 31.3642 33.8713 31.0837C34.2712 30.4566 34.7315 29.0245 34.3608 27.6503Z" fill="white"/>
<path d="M29.7622 15C29.2444 15 28.8247 15.4199 28.8247 15.9375V18.6101C28.8247 19.1277 29.2444 19.5476 29.7622 19.5476C30.2799 19.5476 30.6997 19.1277 30.6997 18.6101V15.9375C30.6997 15.4199 30.2799 15 29.7622 15Z" fill="white"/>
<path d="M19.3601 28.0748H16.6875C16.1697 28.0748 15.75 28.4947 15.75 29.0123C15.75 29.53 16.1697 29.9498 16.6875 29.9498H19.3602C19.8779 29.9498 20.2976 29.53 20.2976 29.0123C20.2976 28.4947 19.8778 28.0748 19.3601 28.0748Z" fill="white"/>
<path d="M25.3727 19.534L24.0368 17.2205C23.7778 16.7721 23.2044 16.6186 22.7561 16.8774C22.3077 17.1363 22.1541 17.7096 22.413 18.158L23.749 20.4715C23.9227 20.7724 24.2377 20.9405 24.5617 20.9405C24.7208 20.9405 24.882 20.9 25.0296 20.8147C25.478 20.5557 25.6316 19.9824 25.3727 19.534Z" fill="white"/>
<path d="M21.2215 22.9992L18.9077 21.6633C18.4594 21.4045 17.8859 21.5582 17.6271 22.0064C17.3681 22.4548 17.5218 23.0281 17.9702 23.287L20.284 24.6229C20.4316 24.7083 20.5929 24.7488 20.7519 24.7488C21.0758 24.7488 21.3909 24.5807 21.5647 24.2798C21.8236 23.8316 21.6699 23.2581 21.2215 22.9992Z" fill="white"/>
<path d="M41.8977 22.0063C41.6387 21.5579 41.0654 21.4042 40.6171 21.6631L38.3033 22.9991C37.8549 23.258 37.7012 23.8315 37.9601 24.2797C38.1338 24.5805 38.4489 24.7486 38.7729 24.7486C38.9319 24.7486 39.0931 24.7081 39.2408 24.6228L41.5546 23.2869C42.003 23.0279 42.1567 22.4547 41.8977 22.0063Z" fill="white"/>
<path d="M21.5651 33.745C21.3064 33.2966 20.7332 33.1431 20.2847 33.4017L17.9703 34.7376C17.5219 34.9964 17.3682 35.5698 17.627 36.0182C17.8006 36.3191 18.1158 36.4872 18.4398 36.4872C18.5988 36.4872 18.76 36.4467 18.9076 36.3616L21.2219 35.0256C21.6703 34.7669 21.8241 34.1934 21.5651 33.745Z" fill="white"/>
<path d="M24.8368 37.5437C24.3885 37.2849 23.8151 37.4386 23.5561 37.8868L22.413 39.8671C22.1541 40.3155 22.3078 40.889 22.7562 41.1477C22.9038 41.233 23.065 41.2735 23.224 41.2735C23.548 41.2735 23.8632 41.1054 24.0368 40.8046L25.18 38.8243C25.4389 38.3759 25.2853 37.8026 24.8368 37.5437Z" fill="white"/>
<path d="M36.7686 16.8773C36.3201 16.6184 35.7469 16.772 35.488 17.2204L34.1521 19.534C33.8931 19.9824 34.0467 20.5558 34.4951 20.8146C34.6428 20.8999 34.804 20.9404 34.963 20.9404C35.287 20.9404 35.6021 20.7723 35.7758 20.4715L37.1118 18.1579C37.3707 17.7095 37.217 17.1363 36.7686 16.8773Z" fill="white"/>
</svg>
