<svg width="78" height="78" viewBox="0 0 78 78" fill="none" xmlns="http://www.w3.org/2000/svg">
<rect width="78" height="78" fill="#075269"/>
<path d="M60.8542 47.2477L57.9503 46.418C57.825 46.3822 57.7374 46.2661 57.7374 46.1357V45.1664C57.9737 45.0027 58.1991 44.8195 58.4097 44.6151C59.4307 43.6243 59.9929 42.2954 59.9929 40.873V39.5355L60.2737 38.974C60.5818 38.3576 60.7447 37.6675 60.7447 36.9785V33.355C60.7447 32.9667 60.4298 32.6519 60.0415 32.6519H53.2753C50.8149 32.6519 48.8132 34.6537 48.8132 37.114V37.1559C48.8132 37.7289 48.9487 38.3028 49.2049 38.8152L49.565 39.5354V40.6838C49.565 42.5039 50.4619 44.1369 51.8204 45.1196L51.8206 46.1355C51.8206 46.2922 51.8206 46.357 51.24 46.523L49.8231 46.9278L45.7242 45.4373C45.7389 45.2439 45.6737 45.0472 45.5326 44.899L44.2228 43.523V41.213C44.3613 41.0989 44.4978 40.9817 44.6301 40.8577C46.2824 39.309 47.23 37.1224 47.23 34.8586V33.0138C47.729 31.9281 47.9818 30.7792 47.9818 29.5959V22.0781C47.9818 21.6898 47.667 21.375 47.2787 21.375H36.7535C33.0494 21.375 30.036 24.3885 30.036 28.0925V29.5961C30.036 30.7793 30.2888 31.9282 30.7878 33.014V34.6012C30.7878 37.2296 31.9565 39.5976 33.795 41.1587V43.5231L32.4852 44.8991C32.3441 45.0473 32.2789 45.244 32.2936 45.4374L27.9675 47.0105C27.654 47.1245 27.3627 47.2789 27.0983 47.4659L26.4189 47.1262C28.4411 46.246 29.0817 45.0081 29.1125 44.9466C29.2115 44.7487 29.2115 44.5156 29.1125 44.3177C28.6056 43.3039 28.5442 41.4457 28.4948 39.9526C28.4784 39.4555 28.4629 38.9859 28.4332 38.5678C28.1934 35.1952 25.6296 32.6519 22.4692 32.6519C19.3089 32.6519 16.745 35.1952 16.5053 38.5678C16.4756 38.986 16.4601 39.4556 16.4437 39.9528C16.3943 41.4457 16.3328 43.3038 15.826 44.3176C15.727 44.5155 15.727 44.7486 15.826 44.9465C15.8568 45.008 16.4961 46.2434 18.5223 47.1247L16.6354 48.0681C15.6266 48.5728 15 49.5867 15 50.7144V55.909C15 56.2973 15.3148 56.6122 15.7031 56.6122C16.0914 56.6122 16.4062 56.2973 16.4062 55.909V50.7144C16.4062 50.1227 16.735 49.5907 17.2643 49.326L19.6139 48.1512L20.4312 48.9279C21.0027 49.471 21.7358 49.7424 22.4692 49.7424C23.2025 49.7424 23.936 49.4708 24.5073 48.9279L25.3245 48.1513L26.0906 48.5344C25.7299 49.1116 25.5251 49.7885 25.5251 50.4975V55.9092C25.5251 56.2975 25.8399 56.6123 26.2282 56.6123C26.6166 56.6123 26.9314 56.2975 26.9314 55.9092V50.4975C26.9314 49.5322 27.5408 48.6621 28.4481 48.3322L33.0092 46.6736L34.9079 49.5218C35.1506 49.886 35.5396 50.1195 35.9751 50.1626C36.0236 50.1674 36.0719 50.1697 36.1201 50.1697C36.5043 50.1697 36.8723 50.0185 37.1473 49.7436L38.3057 48.5852V55.9093C38.3057 56.2976 38.6205 56.6124 39.0088 56.6124C39.3971 56.6124 39.7119 56.2976 39.7119 55.9093V48.5852L40.8703 49.7436C41.1453 50.0186 41.5133 50.1698 41.8975 50.1698C41.9456 50.1698 41.994 50.1675 42.0425 50.1627C42.478 50.1196 42.867 49.8861 43.1097 49.5219L45.0085 46.6738L49.5696 48.3323C50.4767 48.6622 51.0863 49.5324 51.0863 50.4977V55.9094C51.0863 56.2977 51.4011 56.6125 51.7894 56.6125C52.1777 56.6125 52.4925 56.2977 52.4925 55.9094V50.4977C52.4925 49.5201 52.1041 48.6032 51.4525 47.9251L51.6263 47.8755C51.8015 47.8254 52.0405 47.7569 52.2805 47.6392L54.0758 49.4345V55.9094C54.0758 56.2977 54.3906 56.6125 54.7789 56.6125C55.1672 56.6125 55.482 56.2977 55.482 55.9094V49.4345L57.2648 47.6517C57.3595 47.6999 57.4591 47.7406 57.5639 47.7705L60.4679 48.6002C61.1307 48.7896 61.5938 49.4033 61.5938 50.0928V55.9094C61.5938 56.2977 61.9086 56.6125 62.2969 56.6125C62.6852 56.6125 63 56.2977 63 55.9094V50.0928C63 48.7786 62.1176 47.6087 60.8542 47.2477ZM19.5108 46.0057C18.1956 45.5325 17.5358 44.9016 17.2542 44.557C17.4462 44.0551 17.5707 43.4802 17.655 42.8734C18.0427 43.8031 18.6922 44.5968 19.5108 45.163V46.0057ZM23.5387 47.9087C22.939 48.4785 21.9996 48.4784 21.4 47.9086L20.7461 47.2872C20.8565 47.0805 20.9171 46.8461 20.9171 46.6006V45.8512C21.4076 46.0044 21.9291 46.0871 22.4694 46.0871C23.0092 46.0871 23.5303 46.0041 24.0217 45.8516L24.0216 46.6005C24.0216 46.8461 24.0821 47.0806 24.1926 47.2874L23.5387 47.9087ZM22.4696 44.6809C20.37 44.6809 18.662 42.9727 18.662 40.8732C18.662 40.4849 18.3472 40.1701 17.9588 40.1701C17.9195 40.1701 17.881 40.1741 17.8434 40.1804C17.8455 40.1199 17.8475 40.0594 17.8495 39.9995C17.8652 39.516 17.8803 39.0593 17.9081 38.6677C17.9979 37.4043 18.5028 36.2401 19.3297 35.3894C20.1639 34.531 21.279 34.0583 22.4694 34.0583C23.6599 34.0583 24.7748 34.531 25.6092 35.3894C26.4361 36.2401 26.9409 37.4043 27.0308 38.6677C27.0585 39.0592 27.0737 39.5158 27.0896 39.9992C27.091 40.0407 27.0924 40.0828 27.0938 40.1246C26.3288 38.946 25.1474 38.0774 23.6209 37.5869C22.2106 37.1338 20.9977 37.1618 20.9465 37.1632C20.7623 37.1683 20.5876 37.2454 20.4598 37.3779L19.1912 38.6936C18.9217 38.9732 18.9297 39.4183 19.2093 39.6878C19.4888 39.9574 19.934 39.9492 20.2035 39.6697L21.2591 38.575C22.1682 38.6195 25.0929 38.9596 26.2304 41.4643C25.9442 43.3101 24.3577 44.6809 22.4696 44.6809ZM25.4277 46.0081L25.4278 45.1695C26.2458 44.6063 26.8961 43.8142 27.2842 42.8774C27.3684 43.4828 27.4928 44.0564 27.6845 44.5572C27.4044 44.8985 26.7416 45.535 25.4277 46.0081ZM32.194 34.6012V32.8567C32.194 32.7508 32.1701 32.6463 32.1241 32.5509C31.6717 31.614 31.4422 30.6199 31.4422 29.5961V28.0926C31.4422 25.1639 33.8249 22.7813 36.7535 22.7813H46.5756V29.5962C46.5756 30.62 46.3462 31.6141 45.8937 32.551C45.8477 32.6464 45.8238 32.7509 45.8238 32.8567V34.8588C45.8238 36.7629 45.0583 38.5291 43.6684 39.8319C43.4948 39.9945 43.3147 40.1469 43.1286 40.289C43.1244 40.2918 43.1205 40.2949 43.1165 40.2978C41.8144 41.2864 40.2195 41.7668 38.5539 41.6589C34.9876 41.428 32.194 38.3279 32.194 34.6012ZM36.153 48.7491C36.1481 48.7539 36.1368 48.7655 36.1138 48.763C36.0909 48.7608 36.0819 48.7474 36.0781 48.7416L33.8914 45.4614L34.5951 44.722L37.9124 46.9896L36.153 48.7491ZM39.0089 46.0357L35.2013 43.433V42.1205C36.1865 42.6531 37.2896 42.9862 38.4629 43.0621C38.6483 43.0741 38.8325 43.08 39.0161 43.08C40.3606 43.08 41.6545 42.7586 42.8166 42.1486V43.433L39.0089 46.0357ZM41.9397 48.7417C41.9359 48.7476 41.9269 48.761 41.904 48.7632C41.881 48.7661 41.8698 48.754 41.8648 48.7492L40.1054 46.9898L43.4227 44.7222L44.1265 45.4616L41.9397 48.7417ZM54.7789 48.1485L53.1833 46.553C53.2111 46.4265 53.2268 46.288 53.2268 46.1353L53.2267 45.8386C53.6694 45.9839 54.1361 46.0702 54.619 46.0846C54.6732 46.0863 54.7269 46.087 54.7809 46.087C55.3146 46.087 55.8354 46.0064 56.3312 45.8526V46.1357C56.3312 46.2759 56.3488 46.4134 56.382 46.5455L54.7789 48.1485ZM57.4304 43.6059C56.6852 44.3291 55.7007 44.7111 54.6613 44.679C52.6266 44.618 50.9712 42.8257 50.9712 40.684V39.3696C50.9712 39.2603 50.9458 39.1527 50.897 39.0551L50.4626 38.1864C50.3035 37.8682 50.2194 37.5119 50.2194 37.156V37.1141C50.2194 35.4291 51.5903 34.0582 53.2753 34.0582H59.3384V36.9786C59.3384 37.4505 59.2268 37.9231 59.0158 38.3452L58.6609 39.0551C58.612 39.1528 58.5866 39.2603 58.5866 39.3696V40.8731C58.5866 41.9119 58.176 42.8824 57.4304 43.6059Z" fill="white"/>
</svg>
