<svg width="78" height="78" viewBox="0 0 78 78" fill="none" xmlns="http://www.w3.org/2000/svg">
<rect width="78" height="78" fill="#075269"/>
<path d="M39 51.1875C42.9599 51.1875 46.9688 49.8995 46.9688 47.4375V42.1092L50.7188 40.4425V50.25C50.7188 50.7677 51.1386 51.1875 51.6562 51.1875C52.1739 51.1875 52.5938 50.7677 52.5938 50.25V39C52.5938 38.5843 52.334 38.2676 52.0197 38.1356L39.3807 32.5183C39.1383 32.4105 38.8616 32.4105 38.6192 32.5183L25.9629 38.1433C25.6245 38.2938 25.4062 38.6295 25.4062 39C25.4062 39.3704 25.6244 39.7062 25.9629 39.8567L31.0312 42.1092V47.4375C31.0312 49.8995 35.04 51.1875 39 51.1875ZM45.0938 47.4375C45.0938 47.9982 43.0205 49.3125 39 49.3125C34.9795 49.3125 32.9062 47.9982 32.9062 47.4375V42.9427L38.6192 45.4818C38.7404 45.5356 38.8702 45.5625 39 45.5625C39.1298 45.5625 39.2596 45.5356 39.3808 45.4818L45.0938 42.9426V47.4375ZM28.652 39.0001L39 34.4009L49.348 39.0001L39 43.5991L28.652 39.0001Z" fill="white"/>
<path d="M62.0625 18.375H15.9375C15.4197 18.375 15 18.7947 15 19.3125V58.6875C15 59.2052 15.4197 59.625 15.9375 59.625H34.7812C35.299 59.625 35.7188 59.2052 35.7188 58.6875C35.7188 58.1698 35.299 57.75 34.7812 57.75H16.875V28.6875H61.125V57.75H43.2188C42.7011 57.75 42.2812 58.1698 42.2812 58.6875C42.2812 59.2052 42.7011 59.625 43.2188 59.625H62.0625C62.5802 59.625 63 59.2052 63 58.6875V19.3125C63 18.7947 62.5802 18.375 62.0625 18.375ZM61.125 26.8125H16.875V20.25H43.6875V22.125C43.6875 22.6427 44.1073 23.0625 44.625 23.0625C45.1427 23.0625 45.5625 22.6427 45.5625 22.125V20.25H49.3125V22.125C49.3125 22.6427 49.7323 23.0625 50.25 23.0625C50.7677 23.0625 51.1875 22.6427 51.1875 22.125V20.25H54.9375V22.125C54.9375 22.6427 55.3573 23.0625 55.875 23.0625C56.3927 23.0625 56.8125 22.6427 56.8125 22.125V20.25H61.125V26.8125Z" fill="white"/>
<path d="M39 59.625C39.5178 59.625 39.9375 59.2053 39.9375 58.6875C39.9375 58.1697 39.5178 57.75 39 57.75C38.4822 57.75 38.0625 58.1697 38.0625 58.6875C38.0625 59.2053 38.4822 59.625 39 59.625Z" fill="white"/>
</svg>
