<svg width="78" height="78" viewBox="0 0 78 78" fill="none" xmlns="http://www.w3.org/2000/svg">
<rect width="78" height="78" fill="#0B1F3B"/>
<path d="M57.9034 27.7501C55.0931 27.7501 52.8069 30.0364 52.8069 32.8466C52.8069 33.8716 53.112 34.826 53.6348 35.626L48.1286 41.1322C47.3285 40.6095 46.374 40.3043 45.3491 40.3043C44.287 40.3043 43.2999 40.6313 42.4826 41.1894L36.9196 35.6256C37.4423 34.8257 37.7473 33.8713 37.7473 32.8465C37.7473 30.0363 35.461 27.75 32.6507 27.75C29.8405 27.75 27.5542 30.0363 27.5542 32.8465C27.5542 33.8713 27.8593 34.8254 28.3818 35.6254L22.8754 41.1319C22.0755 40.6093 21.1212 40.3043 20.0965 40.3043C17.2863 40.3043 15 42.5907 15 45.4009C15 48.2112 17.2863 50.4975 20.0965 50.4975C22.9068 50.4975 25.193 48.2112 25.193 45.4009C25.193 44.376 24.8879 43.4215 24.3651 42.6214L29.8713 37.1152C30.6714 37.638 31.6259 37.9431 32.6508 37.9431C33.6757 37.9431 34.6302 37.638 35.4301 37.1152L41.0238 42.7097C40.5358 43.4913 40.2526 44.4135 40.2526 45.4008C40.2526 48.2111 42.5389 50.4974 45.3492 50.4974C48.1594 50.4974 50.4457 48.2111 50.4457 45.4008C50.4457 44.3761 50.1406 43.4219 49.6182 42.622L55.1246 37.1155C55.9246 37.6381 56.8789 37.943 57.9035 37.943C60.7137 37.943 63 35.6568 63 32.8465C63 30.0362 60.7136 27.7501 57.9034 27.7501ZM20.0965 48.3908C18.4478 48.3908 17.1066 47.0495 17.1066 45.4009C17.1066 43.7523 18.4478 42.411 20.0965 42.411C21.7451 42.411 23.0865 43.7523 23.0865 45.4009C23.0865 47.0495 21.7452 48.3908 20.0965 48.3908ZM32.6508 35.8365C31.0023 35.8365 29.6609 34.4952 29.6609 32.8465C29.6609 31.1979 31.0022 29.8566 32.6508 29.8566C34.2995 29.8566 35.6408 31.1978 35.6408 32.8465C35.6408 34.4952 34.2995 35.8365 32.6508 35.8365ZM45.3491 48.3908C43.7005 48.3908 42.3591 47.0495 42.3591 45.4008C42.3591 43.7522 43.7004 42.4109 45.3491 42.4109C46.9977 42.4109 48.339 43.7522 48.339 45.4008C48.3389 47.0495 46.9977 48.3908 45.3491 48.3908ZM57.9034 35.8365C56.2548 35.8365 54.9134 34.4952 54.9134 32.8465C54.9134 31.1979 56.2547 29.8566 57.9034 29.8566C59.552 29.8566 60.8933 31.1978 60.8933 32.8465C60.8933 34.4952 59.552 35.8365 57.9034 35.8365Z" fill="white"/>
<path d="M31.5725 40.691C31.1612 40.2797 30.4943 40.2797 30.0829 40.691L27.9404 42.8335C27.5291 43.2448 27.5291 43.9117 27.9405 44.3231C28.1462 44.5288 28.4157 44.6316 28.6852 44.6316C28.9547 44.6316 29.2244 44.5287 29.43 44.3231L31.5725 42.1806C31.984 41.7693 31.984 41.1022 31.5725 40.691Z" fill="white"/>
<path d="M50.0589 33.9618C49.6475 33.5505 48.9807 33.5505 48.5692 33.9619L46.4266 36.1044C46.0153 36.5157 46.0153 37.1826 46.4266 37.594C46.6324 37.7996 46.9019 37.9024 47.1715 37.9024C47.4411 37.9024 47.7105 37.7995 47.9162 37.5939L50.0588 35.4514C50.4701 35.04 50.4701 34.373 50.0589 33.9618Z" fill="white"/>
</svg>
