<svg width="56" height="57" viewBox="0 0 56 57" fill="none" xmlns="http://www.w3.org/2000/svg">
<path d="M0 28.0023C0 12.5383 12.536 0 28 0C43.464 0 56 12.5383 56 28.0023C56 43.4663 43.464 56.0046 28 56.0046C12.536 56.0046 0 43.4663 0 28.0023Z" fill="#333333"/>
<path d="M39.939 23.0574C39.8828 21.782 39.6765 20.9051 39.381 20.1453C39.0762 19.3388 38.6073 18.6167 37.9929 18.0164C37.3927 17.4068 36.6658 16.9331 35.8686 16.6331C35.1044 16.3376 34.2321 16.1313 32.9567 16.0751C31.6717 16.0141 31.2638 16 28.0047 16C24.7456 16 24.3377 16.0141 23.0574 16.0703C21.782 16.1266 20.9051 16.333 20.1455 16.6283C19.3388 16.9331 18.6167 17.402 18.0164 18.0164C17.4068 18.6167 16.9333 19.3435 16.6331 20.1407C16.3376 20.9051 16.1313 21.7772 16.0751 23.0527C16.0141 24.3377 16 24.7456 16 28.0047C16 31.2638 16.0141 31.6717 16.0703 32.9519C16.1266 34.2274 16.333 35.1042 16.6285 35.8641C16.9333 36.6706 17.4068 37.3927 18.0164 37.9929C18.6167 38.6025 19.3435 39.0762 20.1407 39.3763C20.9051 39.6717 21.7772 39.878 23.0529 39.9342C24.3329 39.9907 24.741 40.0046 28.0001 40.0046C31.2592 40.0046 31.6671 39.9907 32.9473 39.9342C34.2228 39.878 35.0997 39.6717 35.8593 39.3763C37.4725 38.7526 38.748 37.4771 39.3717 35.8641C39.667 35.0997 39.8734 34.2274 39.9297 32.9519C39.9859 31.6717 40 31.2638 40 28.0047C40 24.7456 39.9952 24.3377 39.939 23.0574ZM37.7773 32.8581C37.7257 34.0305 37.5288 34.6635 37.3646 35.0856C36.9613 36.1313 36.1313 36.9613 35.0856 37.3646C34.6635 37.5288 34.0259 37.7257 32.8581 37.7772C31.592 37.8336 31.2123 37.8475 28.0094 37.8475C24.8066 37.8475 24.4221 37.8336 23.1606 37.7772C21.9882 37.7257 21.3552 37.5288 20.9331 37.3646C20.4127 37.1723 19.939 36.8675 19.5545 36.4689C19.156 36.0797 18.8511 35.6107 18.6588 35.0903C18.4947 34.6683 18.2978 34.0305 18.2463 32.8629C18.1899 31.5968 18.176 31.2169 18.176 28.014C18.176 24.8112 18.1899 24.4267 18.2463 23.1653C18.2978 21.993 18.4947 21.3599 18.6588 20.9379C18.8511 20.4173 19.156 19.9438 19.5593 19.5591C19.9484 19.1605 20.4173 18.8557 20.9379 18.6636C21.3599 18.4994 21.9978 18.3025 23.1653 18.2509C24.4314 18.1946 24.8114 18.1805 28.014 18.1805C31.2216 18.1805 31.6013 18.1946 32.8629 18.2509C34.0352 18.3025 34.6683 18.4994 35.0903 18.6636C35.6107 18.8557 36.0844 19.1605 36.4689 19.5591C36.8675 19.9484 37.1723 20.4173 37.3646 20.9379C37.5288 21.3599 37.7257 21.9976 37.7773 23.1653C37.8336 24.4314 37.8477 24.8112 37.8477 28.014C37.8477 31.2169 37.8336 31.592 37.7773 32.8581Z" fill="white"/>
<path d="M28.0047 21.8382C24.6003 21.8382 21.8382 24.6001 21.8382 28.0047C21.8382 31.4092 24.6003 34.1711 28.0047 34.1711C31.4092 34.1711 34.1711 31.4092 34.1711 28.0047C34.1711 24.6001 31.4092 21.8382 28.0047 21.8382ZM28.0047 32.0047C25.7961 32.0047 24.0046 30.2134 24.0046 28.0047C24.0046 25.7959 25.7961 24.0046 28.0047 24.0046C30.2134 24.0046 32.0047 25.7959 32.0047 28.0047C32.0047 30.2134 30.2134 32.0047 28.0047 32.0047Z" fill="white"/>
<path d="M35.8547 21.5944C35.8547 22.3894 35.2101 23.034 34.4149 23.034C33.62 23.034 32.9754 22.3894 32.9754 21.5944C32.9754 20.7992 33.62 20.1548 34.4149 20.1548C35.2101 20.1548 35.8547 20.7992 35.8547 21.5944Z" fill="white"/>
</svg>
