<svg width="210" height="28" viewBox="0 0 210 28" fill="none" xmlns="http://www.w3.org/2000/svg">
<path d="M3.212 26.824C2.348 26.824 1.724 26.692 1.34 26.428C0.98 26.164 0.752 25.828 0.656 25.42C0.56 24.988 0.512 24.532 0.512 24.052V4.36C0.512 3.904 0.56 3.484 0.656 3.1C0.752 2.692 0.992 2.356 1.376 2.092C1.76 1.828 2.396 1.696 3.284 1.696C3.884 1.696 4.34 1.732 4.652 1.804C4.964 1.876 5.192 1.984 5.336 2.128C5.48 2.248 5.636 2.392 5.804 2.56L13.904 13.504H13.364L21.5 2.56C21.692 2.32 21.884 2.14 22.076 2.02C22.268 1.9 22.508 1.816 22.796 1.768C23.108 1.72 23.54 1.696 24.092 1.696C24.956 1.696 25.58 1.828 25.964 2.092C26.348 2.356 26.588 2.704 26.684 3.136C26.78 3.544 26.828 3.976 26.828 4.432V24.124C26.828 24.58 26.78 25.012 26.684 25.42C26.588 25.828 26.348 26.164 25.964 26.428C25.58 26.692 24.944 26.824 24.056 26.824C23.192 26.824 22.568 26.692 22.184 26.428C21.8 26.164 21.56 25.816 21.464 25.384C21.368 24.952 21.32 24.508 21.32 24.052V11.2L15.956 18.796C15.86 18.916 15.728 19.084 15.56 19.3C15.392 19.492 15.152 19.66 14.84 19.804C14.552 19.948 14.156 20.02 13.652 20.02C13.124 20.02 12.704 19.948 12.392 19.804C12.104 19.66 11.876 19.492 11.708 19.3C11.54 19.108 11.396 18.94 11.276 18.796L5.948 11.236V24.124C5.948 24.58 5.9 25.012 5.804 25.42C5.708 25.828 5.468 26.164 5.084 26.428C4.724 26.692 4.1 26.824 3.212 26.824ZM38.366 27.112C37.238 27.112 36.11 26.896 34.982 26.464C33.878 26.008 32.87 25.372 31.958 24.556C31.046 23.74 30.326 22.768 29.798 21.64C29.27 20.488 29.006 19.216 29.006 17.824C29.006 16.528 29.246 15.328 29.726 14.224C30.206 13.096 30.878 12.1 31.742 11.236C32.606 10.372 33.59 9.7 34.694 9.22C35.822 8.716 37.022 8.464 38.294 8.464C40.022 8.464 41.582 8.884 42.974 9.724C44.39 10.54 45.518 11.656 46.358 13.072C47.198 14.488 47.618 16.06 47.618 17.788C47.618 19.252 47.342 20.56 46.79 21.712C46.262 22.84 45.542 23.812 44.63 24.628C43.742 25.444 42.746 26.068 41.642 26.5C40.562 26.908 39.47 27.112 38.366 27.112ZM38.294 21.676C38.87 21.676 39.458 21.532 40.058 21.244C40.658 20.956 41.162 20.524 41.57 19.948C41.978 19.372 42.182 18.64 42.182 17.752C42.182 16.984 42.014 16.312 41.678 15.736C41.342 15.16 40.874 14.716 40.274 14.404C39.698 14.068 39.026 13.9 38.258 13.9C37.538 13.9 36.89 14.068 36.314 14.404C35.762 14.74 35.306 15.208 34.946 15.808C34.61 16.384 34.442 17.044 34.442 17.788C34.442 18.652 34.634 19.384 35.018 19.984C35.426 20.56 35.93 20.992 36.53 21.28C37.13 21.544 37.718 21.676 38.294 21.676ZM52.5354 26.788C51.6474 26.788 51.0114 26.668 50.6274 26.428C50.2674 26.164 50.0394 25.828 49.9434 25.42C49.8714 24.988 49.8354 24.544 49.8354 24.088V11.416C49.8354 10.96 49.8834 10.54 49.9794 10.156C50.0754 9.748 50.3034 9.424 50.6634 9.184C51.0474 8.944 51.6834 8.824 52.5714 8.824C53.3394 8.824 53.9034 8.932 54.2634 9.148C54.6234 9.34 54.8514 9.58 54.9474 9.868C55.0674 10.156 55.1274 10.432 55.1274 10.696C55.1274 10.936 55.1514 11.104 55.1994 11.2L54.9834 11.884C55.0314 11.524 55.2114 11.164 55.5234 10.804C55.8594 10.42 56.2674 10.084 56.7474 9.796C57.2514 9.484 57.7794 9.244 58.3314 9.076C58.9074 8.908 59.4714 8.824 60.0234 8.824C61.1754 8.824 62.1954 9.04 63.0834 9.472C63.9954 9.88 64.7634 10.48 65.3874 11.272C66.0114 12.064 66.4794 13 66.7914 14.08C67.1274 15.136 67.2954 16.3 67.2954 17.572V24.124C67.2954 24.58 67.2474 25.024 67.1514 25.456C67.0794 25.864 66.8514 26.188 66.4674 26.428C66.1074 26.668 65.4834 26.788 64.5954 26.788C63.6834 26.788 63.0354 26.668 62.6514 26.428C62.2914 26.164 62.0634 25.828 61.9674 25.42C61.8714 24.988 61.8234 24.544 61.8234 24.088V17.572C61.8234 16.852 61.7034 16.24 61.4634 15.736C61.2234 15.232 60.8634 14.848 60.3834 14.584C59.9034 14.296 59.3154 14.152 58.6194 14.152C57.9234 14.152 57.3234 14.296 56.8194 14.584C56.3154 14.872 55.9194 15.268 55.6314 15.772C55.3674 16.276 55.2354 16.876 55.2354 17.572V24.124C55.2354 24.58 55.1874 25.024 55.0914 25.456C55.0194 25.864 54.7914 26.188 54.4074 26.428C54.0474 26.668 53.4234 26.788 52.5354 26.788ZM84.9885 21.928C85.7325 22.576 86.1285 23.2 86.1765 23.8C86.2245 24.376 85.9005 25.048 85.2045 25.816C84.6765 26.368 84.2085 26.728 83.8005 26.896C83.4165 27.064 83.0325 27.064 82.6485 26.896C82.2645 26.752 81.8205 26.452 81.3165 25.996L75.6285 21.028V24.124C75.6285 24.604 75.5805 25.048 75.4845 25.456C75.4125 25.864 75.1845 26.2 74.8005 26.464C74.4405 26.704 73.8165 26.824 72.9285 26.824C72.0645 26.824 71.4405 26.704 71.0565 26.464C70.6725 26.2 70.4325 25.864 70.3365 25.456C70.2645 25.024 70.2285 24.568 70.2285 24.088V3.316C70.2285 2.836 70.2765 2.392 70.3725 1.984C70.4685 1.576 70.7085 1.252 71.0925 1.012C71.4765 0.747999 72.1005 0.615999 72.9645 0.615999C73.8285 0.615999 74.4405 0.747999 74.8005 1.012C75.1845 1.252 75.4125 1.588 75.4845 2.02C75.5805 2.428 75.6285 2.872 75.6285 3.352V14.224L79.6605 10.336C80.1405 9.88 80.5845 9.568 80.9925 9.4C81.4245 9.232 81.8445 9.22 82.2525 9.364C82.6605 9.508 83.0925 9.832 83.5485 10.336C84.3165 11.176 84.6885 11.86 84.6645 12.388C84.6405 12.892 84.2685 13.504 83.5485 14.224L79.6605 17.752L84.9885 21.928ZM96.0993 27.148C94.4193 27.148 92.9673 26.872 91.7433 26.32C90.5433 25.768 89.5593 25.048 88.7913 24.16C88.0233 23.248 87.4473 22.24 87.0633 21.136C86.7033 20.032 86.5233 18.928 86.5233 17.824C86.5233 16.024 86.9313 14.428 87.7473 13.036C88.5633 11.644 89.6913 10.552 91.1313 9.76C92.5713 8.944 94.2273 8.536 96.0993 8.536C97.4913 8.536 98.6913 8.764 99.6993 9.22C100.731 9.652 101.571 10.228 102.219 10.948C102.891 11.644 103.383 12.4 103.695 13.216C104.031 14.032 104.199 14.812 104.199 15.556C104.199 16.876 103.875 17.86 103.227 18.508C102.603 19.132 101.799 19.444 100.815 19.444H92.2473C92.2953 20.068 92.5113 20.596 92.8953 21.028C93.3033 21.46 93.8073 21.796 94.4073 22.036C95.0073 22.276 95.6433 22.396 96.3153 22.396C96.8913 22.396 97.3953 22.372 97.8273 22.324C98.2593 22.252 98.6313 22.168 98.9433 22.072C99.2553 21.952 99.5433 21.844 99.8073 21.748C100.071 21.628 100.299 21.532 100.491 21.46C100.707 21.388 100.911 21.34 101.103 21.316C101.463 21.292 101.787 21.4 102.075 21.64C102.387 21.856 102.663 22.192 102.903 22.648C103.071 22.912 103.179 23.164 103.227 23.404C103.299 23.644 103.335 23.884 103.335 24.124C103.335 24.7 103.035 25.216 102.435 25.672C101.859 26.128 101.031 26.488 99.9513 26.752C98.8953 27.016 97.6113 27.148 96.0993 27.148ZM92.2473 16.492H97.9353C98.3193 16.492 98.5953 16.432 98.7633 16.312C98.9553 16.168 99.0513 15.904 99.0513 15.52C99.0513 15.088 98.9193 14.716 98.6553 14.404C98.3913 14.068 98.0313 13.816 97.5753 13.648C97.1433 13.456 96.6393 13.36 96.0633 13.36C95.3193 13.36 94.6593 13.504 94.0833 13.792C93.5073 14.08 93.0513 14.464 92.7153 14.944C92.4033 15.424 92.2473 15.94 92.2473 16.492ZM115.435 27.148C113.755 27.148 112.303 26.872 111.079 26.32C109.879 25.768 108.895 25.048 108.127 24.16C107.359 23.248 106.783 22.24 106.399 21.136C106.039 20.032 105.859 18.928 105.859 17.824C105.859 16.024 106.267 14.428 107.083 13.036C107.899 11.644 109.027 10.552 110.467 9.76C111.907 8.944 113.563 8.536 115.435 8.536C116.827 8.536 118.027 8.764 119.035 9.22C120.067 9.652 120.907 10.228 121.555 10.948C122.227 11.644 122.719 12.4 123.031 13.216C123.367 14.032 123.535 14.812 123.535 15.556C123.535 16.876 123.211 17.86 122.563 18.508C121.939 19.132 121.135 19.444 120.151 19.444H111.583C111.631 20.068 111.847 20.596 112.231 21.028C112.639 21.46 113.143 21.796 113.743 22.036C114.343 22.276 114.979 22.396 115.651 22.396C116.227 22.396 116.731 22.372 117.163 22.324C117.595 22.252 117.967 22.168 118.279 22.072C118.591 21.952 118.879 21.844 119.143 21.748C119.407 21.628 119.635 21.532 119.827 21.46C120.043 21.388 120.247 21.34 120.439 21.316C120.799 21.292 121.123 21.4 121.411 21.64C121.723 21.856 121.999 22.192 122.239 22.648C122.407 22.912 122.515 23.164 122.563 23.404C122.635 23.644 122.671 23.884 122.671 24.124C122.671 24.7 122.371 25.216 121.771 25.672C121.195 26.128 120.367 26.488 119.287 26.752C118.231 27.016 116.947 27.148 115.435 27.148ZM111.583 16.492H117.271C117.655 16.492 117.931 16.432 118.099 16.312C118.291 16.168 118.387 15.904 118.387 15.52C118.387 15.088 118.255 14.716 117.991 14.404C117.727 14.068 117.367 13.816 116.911 13.648C116.479 13.456 115.975 13.36 115.399 13.36C114.655 13.36 113.995 13.504 113.419 13.792C112.843 14.08 112.387 14.464 112.051 14.944C111.739 15.424 111.583 15.94 111.583 16.492ZM137.767 26.824C136.903 26.824 136.279 26.704 135.895 26.464C135.511 26.2 135.271 25.852 135.175 25.42C135.079 24.988 135.031 24.544 135.031 24.088V4.396C135.031 3.916 135.067 3.472 135.139 3.064C135.235 2.656 135.475 2.32 135.859 2.056C136.243 1.792 136.879 1.66 137.767 1.66C138.679 1.66 139.315 1.792 139.675 2.056C140.059 2.32 140.287 2.656 140.359 3.064C140.455 3.472 140.503 3.916 140.503 4.396V22.072H150.367C150.775 22.072 151.159 22.108 151.519 22.18C151.879 22.252 152.167 22.456 152.383 22.792C152.623 23.128 152.743 23.68 152.743 24.448C152.743 25.192 152.623 25.744 152.383 26.104C152.143 26.44 151.843 26.644 151.483 26.716C151.147 26.788 150.775 26.824 150.367 26.824H137.767ZM169.57 26.788C168.682 26.788 168.022 26.632 167.59 26.32C167.182 26.008 166.978 25.624 166.978 25.168L167.338 24.556C167.194 24.796 166.918 25.096 166.51 25.456C166.102 25.792 165.574 26.104 164.926 26.392C164.278 26.656 163.474 26.788 162.514 26.788C161.41 26.788 160.354 26.548 159.346 26.068C158.362 25.588 157.486 24.928 156.718 24.088C155.95 23.224 155.338 22.252 154.882 21.172C154.45 20.092 154.234 18.952 154.234 17.752C154.234 16.576 154.45 15.46 154.882 14.404C155.338 13.324 155.95 12.376 156.718 11.56C157.51 10.72 158.398 10.06 159.382 9.58C160.366 9.1 161.41 8.86 162.514 8.86C163.402 8.86 164.158 8.992 164.782 9.256C165.406 9.496 165.922 9.784 166.33 10.12C166.762 10.456 167.086 10.78 167.302 11.092L167.014 10.588C166.99 10.012 167.182 9.58 167.59 9.292C168.022 8.98 168.694 8.824 169.606 8.824C170.47 8.824 171.082 8.956 171.442 9.22C171.826 9.484 172.054 9.832 172.126 10.264C172.222 10.696 172.27 11.152 172.27 11.632V24.052C172.27 24.508 172.222 24.952 172.126 25.384C172.054 25.816 171.826 26.164 171.442 26.428C171.082 26.668 170.458 26.788 169.57 26.788ZM163.306 21.424C163.93 21.424 164.494 21.268 164.998 20.956C165.526 20.62 165.934 20.176 166.222 19.624C166.534 19.072 166.69 18.46 166.69 17.788C166.69 17.092 166.534 16.48 166.222 15.952C165.91 15.4 165.49 14.968 164.962 14.656C164.434 14.32 163.858 14.152 163.234 14.152C162.538 14.152 161.914 14.32 161.362 14.656C160.834 14.992 160.402 15.436 160.066 15.988C159.754 16.54 159.598 17.164 159.598 17.86C159.598 18.508 159.754 19.108 160.066 19.66C160.402 20.188 160.846 20.62 161.398 20.956C161.974 21.268 162.61 21.424 163.306 21.424ZM184.815 26.788C183.639 26.788 182.595 26.548 181.683 26.068C180.795 25.564 180.051 24.892 179.451 24.052C178.875 23.212 178.431 22.252 178.119 21.172C177.831 20.092 177.699 18.94 177.723 17.716C177.723 16.54 177.879 15.412 178.191 14.332C178.503 13.252 178.947 12.304 179.523 11.488C180.123 10.672 180.855 10.036 181.719 9.58C182.607 9.1 183.639 8.86 184.815 8.86C185.871 8.86 186.891 9.1 187.875 9.58C188.883 10.06 189.771 10.72 190.539 11.56C191.307 12.376 191.907 13.324 192.339 14.404C192.795 15.46 193.023 16.576 193.023 17.752C193.023 18.976 192.795 20.14 192.339 21.244C191.907 22.324 191.307 23.284 190.539 24.124C189.771 24.964 188.895 25.624 187.911 26.104C186.927 26.56 185.895 26.788 184.815 26.788ZM184.059 21.46C184.731 21.46 185.331 21.304 185.859 20.992C186.387 20.656 186.807 20.212 187.119 19.66C187.455 19.108 187.623 18.496 187.623 17.824C187.623 17.128 187.467 16.516 187.155 15.988C186.843 15.436 186.423 15.004 185.895 14.692C185.367 14.38 184.767 14.224 184.095 14.224C183.447 14.224 182.847 14.38 182.295 14.692C181.767 15.004 181.347 15.436 181.035 15.988C180.747 16.516 180.603 17.128 180.603 17.824C180.603 18.496 180.759 19.108 181.071 19.66C181.383 20.212 181.803 20.656 182.331 20.992C182.859 21.304 183.435 21.46 184.059 21.46ZM177.795 26.824C176.931 26.824 176.307 26.692 175.923 26.428C175.539 26.164 175.299 25.828 175.203 25.42C175.131 24.988 175.095 24.544 175.095 24.088V3.388C175.095 2.884 175.143 2.428 175.239 2.02C175.335 1.612 175.563 1.288 175.923 1.048C176.307 0.783998 176.943 0.651998 177.831 0.651998C178.695 0.651998 179.307 0.783998 179.667 1.048C180.027 1.312 180.243 1.66 180.315 2.092C180.387 2.5 180.411 2.932 180.387 3.388V25.204C180.267 25.756 180.015 26.164 179.631 26.428C179.247 26.692 178.635 26.824 177.795 26.824ZM201.933 27.112C201.285 27.112 200.577 27.04 199.809 26.896C199.065 26.752 198.333 26.548 197.613 26.284C196.893 25.996 196.293 25.672 195.813 25.312C195.333 24.928 195.057 24.496 194.985 24.016C194.937 23.776 194.937 23.524 194.985 23.26C195.057 22.972 195.177 22.684 195.345 22.396C195.513 22.084 195.717 21.76 195.957 21.424C196.149 21.16 196.365 20.992 196.605 20.92C196.845 20.848 197.121 20.86 197.433 20.956C197.817 21.028 198.201 21.16 198.585 21.352C198.993 21.52 199.389 21.712 199.773 21.928C200.181 22.12 200.601 22.3 201.033 22.468C201.465 22.612 201.909 22.684 202.365 22.684C203.037 22.684 203.553 22.588 203.913 22.396C204.297 22.18 204.489 21.892 204.489 21.532C204.489 21.268 204.405 21.052 204.237 20.884C204.093 20.716 203.877 20.572 203.589 20.452C203.325 20.308 203.013 20.188 202.653 20.092C202.293 19.996 201.897 19.9 201.465 19.804C201.057 19.684 200.637 19.564 200.205 19.444C199.605 19.276 199.029 19.06 198.477 18.796C197.925 18.532 197.421 18.196 196.965 17.788C196.509 17.356 196.149 16.84 195.885 16.24C195.621 15.616 195.489 14.86 195.489 13.972C195.489 12.796 195.765 11.812 196.317 11.02C196.869 10.228 197.673 9.628 198.729 9.22C199.785 8.788 201.069 8.572 202.581 8.572C203.013 8.572 203.445 8.596 203.877 8.644C204.309 8.692 204.729 8.776 205.137 8.896C205.569 9.016 205.989 9.16 206.397 9.328C206.805 9.496 207.213 9.7 207.621 9.94C208.341 10.276 208.713 10.732 208.737 11.308C208.761 11.884 208.557 12.472 208.125 13.072C207.861 13.48 207.585 13.78 207.297 13.972C207.009 14.14 206.709 14.188 206.397 14.116C206.013 14.02 205.593 13.864 205.137 13.648C204.705 13.432 204.237 13.228 203.733 13.036C203.253 12.844 202.773 12.748 202.293 12.748C201.885 12.748 201.537 12.808 201.249 12.928C200.961 13.024 200.745 13.168 200.601 13.36C200.457 13.528 200.385 13.732 200.385 13.972C200.385 14.284 200.469 14.536 200.637 14.728C200.829 14.896 201.081 15.04 201.393 15.16C201.705 15.28 202.065 15.388 202.473 15.484C202.881 15.58 203.325 15.676 203.805 15.772C204.453 15.892 205.113 16.06 205.785 16.276C206.481 16.468 207.105 16.756 207.657 17.14C208.233 17.524 208.689 18.04 209.025 18.688C209.385 19.336 209.565 20.188 209.565 21.244C209.565 23.14 208.905 24.592 207.585 25.6C206.265 26.608 204.381 27.112 201.933 27.112Z" fill="white"/>
</svg>
