<svg width="233" height="30" viewBox="0 0 233 30" fill="none" xmlns="http://www.w3.org/2000/svg">
<path d="M3.68 29.36C2.72 29.36 2.02667 29.2133 1.6 28.92C1.2 28.6267 0.946667 28.2533 0.84 27.8C0.733333 27.32 0.68 26.8133 0.68 26.28V4.4C0.68 3.89333 0.733333 3.42667 0.84 3C0.946667 2.54666 1.21333 2.17333 1.64 1.88C2.06667 1.58667 2.77333 1.44 3.76 1.44C4.42667 1.44 4.93333 1.48 5.28 1.56C5.62667 1.64 5.88 1.76 6.04 1.92C6.2 2.05333 6.37333 2.21333 6.56 2.4L15.56 14.56H14.96L24 2.4C24.2133 2.13333 24.4267 1.93333 24.64 1.8C24.8533 1.66666 25.12 1.57333 25.44 1.52C25.7867 1.46667 26.2667 1.44 26.88 1.44C27.84 1.44 28.5333 1.58667 28.96 1.88C29.3867 2.17333 29.6533 2.56 29.76 3.04C29.8667 3.49333 29.92 3.97333 29.92 4.48V26.36C29.92 26.8667 29.8667 27.3467 29.76 27.8C29.6533 28.2533 29.3867 28.6267 28.96 28.92C28.5333 29.2133 27.8267 29.36 26.84 29.36C25.88 29.36 25.1867 29.2133 24.76 28.92C24.3333 28.6267 24.0667 28.24 23.96 27.76C23.8533 27.28 23.8 26.7867 23.8 26.28V12L17.84 20.44C17.7333 20.5733 17.5867 20.76 17.4 21C17.2133 21.2133 16.9467 21.4 16.6 21.56C16.28 21.72 15.84 21.8 15.28 21.8C14.6933 21.8 14.2267 21.72 13.88 21.56C13.56 21.4 13.3067 21.2133 13.12 21C12.9333 20.7867 12.7733 20.6 12.64 20.44L6.72 12.04V26.36C6.72 26.8667 6.66667 27.3467 6.56 27.8C6.45333 28.2533 6.18667 28.6267 5.76 28.92C5.36 29.2133 4.66667 29.36 3.68 29.36ZM42.74 29.68C41.4867 29.68 40.2333 29.44 38.98 28.96C37.7533 28.4533 36.6333 27.7467 35.62 26.84C34.6067 25.9333 33.8067 24.8533 33.22 23.6C32.6333 22.32 32.34 20.9067 32.34 19.36C32.34 17.92 32.6067 16.5867 33.14 15.36C33.6733 14.1067 34.42 13 35.38 12.04C36.34 11.08 37.4333 10.3333 38.66 9.8C39.9133 9.24 41.2467 8.96 42.66 8.96C44.58 8.96 46.3133 9.42667 47.86 10.36C49.4333 11.2667 50.6867 12.5067 51.62 14.08C52.5533 15.6533 53.02 17.4 53.02 19.32C53.02 20.9467 52.7133 22.4 52.1 23.68C51.5133 24.9333 50.7133 26.0133 49.7 26.92C48.7133 27.8267 47.6067 28.52 46.38 29C45.18 29.4533 43.9667 29.68 42.74 29.68ZM42.66 23.64C43.3 23.64 43.9533 23.48 44.62 23.16C45.2867 22.84 45.8467 22.36 46.3 21.72C46.7533 21.08 46.98 20.2667 46.98 19.28C46.98 18.4267 46.7933 17.68 46.42 17.04C46.0467 16.4 45.5267 15.9067 44.86 15.56C44.22 15.1867 43.4733 15 42.62 15C41.82 15 41.1 15.1867 40.46 15.56C39.8467 15.9333 39.34 16.4533 38.94 17.12C38.5667 17.76 38.38 18.4933 38.38 19.32C38.38 20.28 38.5933 21.0933 39.02 21.76C39.4733 22.4 40.0333 22.88 40.7 23.2C41.3667 23.4933 42.02 23.64 42.66 23.64ZM58.4838 29.32C57.4971 29.32 56.7904 29.1867 56.3638 28.92C55.9638 28.6267 55.7104 28.2533 55.6038 27.8C55.5238 27.32 55.4838 26.8267 55.4838 26.32V12.24C55.4838 11.7333 55.5371 11.2667 55.6438 10.84C55.7504 10.3867 56.0038 10.0267 56.4038 9.76C56.8304 9.49333 57.5371 9.36 58.5238 9.36C59.3771 9.36 60.0038 9.48 60.4038 9.72C60.8038 9.93333 61.0571 10.2 61.1638 10.52C61.2971 10.84 61.3638 11.1467 61.3638 11.44C61.3638 11.7067 61.3904 11.8933 61.4438 12L61.2038 12.76C61.2571 12.36 61.4571 11.96 61.8038 11.56C62.1771 11.1333 62.6304 10.76 63.1638 10.44C63.7238 10.0933 64.3104 9.82667 64.9238 9.64C65.5638 9.45333 66.1904 9.36 66.8038 9.36C68.0838 9.36 69.2171 9.6 70.2038 10.08C71.2171 10.5333 72.0704 11.2 72.7638 12.08C73.4571 12.96 73.9771 14 74.3238 15.2C74.6971 16.3733 74.8838 17.6667 74.8838 19.08V26.36C74.8838 26.8667 74.8304 27.36 74.7238 27.84C74.6438 28.2933 74.3904 28.6533 73.9638 28.92C73.5638 29.1867 72.8704 29.32 71.8838 29.32C70.8704 29.32 70.1504 29.1867 69.7238 28.92C69.3238 28.6267 69.0704 28.2533 68.9638 27.8C68.8571 27.32 68.8038 26.8267 68.8038 26.32V19.08C68.8038 18.28 68.6704 17.6 68.4038 17.04C68.1371 16.48 67.7371 16.0533 67.2038 15.76C66.6704 15.44 66.0171 15.28 65.2438 15.28C64.4704 15.28 63.8038 15.44 63.2438 15.76C62.6838 16.08 62.2438 16.52 61.9238 17.08C61.6304 17.64 61.4838 18.3067 61.4838 19.08V26.36C61.4838 26.8667 61.4304 27.36 61.3238 27.84C61.2438 28.2933 60.9904 28.6533 60.5638 28.92C60.1638 29.1867 59.4704 29.32 58.4838 29.32ZM94.5428 23.92C95.3695 24.64 95.8095 25.3333 95.8628 26C95.9161 26.64 95.5561 27.3867 94.7828 28.24C94.1961 28.8533 93.6761 29.2533 93.2228 29.44C92.7961 29.6267 92.3695 29.6267 91.9428 29.44C91.5161 29.28 91.0228 28.9467 90.4628 28.44L84.1428 22.92V26.36C84.1428 26.8933 84.0895 27.3867 83.9828 27.84C83.9028 28.2933 83.6495 28.6667 83.2228 28.96C82.8228 29.2267 82.1295 29.36 81.1428 29.36C80.1828 29.36 79.4895 29.2267 79.0628 28.96C78.6361 28.6667 78.3695 28.2933 78.2628 27.84C78.1828 27.36 78.1428 26.8533 78.1428 26.32V3.24C78.1428 2.70667 78.1961 2.21333 78.3028 1.76C78.4095 1.30667 78.6761 0.946666 79.1028 0.68C79.5295 0.386666 80.2228 0.239998 81.1828 0.239998C82.1428 0.239998 82.8228 0.386666 83.2228 0.68C83.6495 0.946666 83.9028 1.32 83.9828 1.8C84.0895 2.25333 84.1428 2.74667 84.1428 3.28V15.36L88.6228 11.04C89.1561 10.5333 89.6495 10.1867 90.1028 10C90.5828 9.81333 91.0495 9.8 91.5028 9.96C91.9561 10.12 92.4361 10.48 92.9428 11.04C93.7961 11.9733 94.2095 12.7333 94.1828 13.32C94.1561 13.88 93.7428 14.56 92.9428 15.36L88.6228 19.28L94.5428 23.92ZM106.888 29.72C105.021 29.72 103.408 29.4133 102.048 28.8C100.715 28.1867 99.6215 27.3867 98.7681 26.4C97.9148 25.3867 97.2748 24.2667 96.8481 23.04C96.4481 21.8133 96.2481 20.5867 96.2481 19.36C96.2481 17.36 96.7015 15.5867 97.6081 14.04C98.5148 12.4933 99.7681 11.28 101.368 10.4C102.968 9.49333 104.808 9.04 106.888 9.04C108.435 9.04 109.768 9.29333 110.888 9.8C112.035 10.28 112.968 10.92 113.688 11.72C114.435 12.4933 114.981 13.3333 115.328 14.24C115.701 15.1467 115.888 16.0133 115.888 16.84C115.888 18.3067 115.528 19.4 114.808 20.12C114.115 20.8133 113.221 21.16 112.128 21.16H102.608C102.661 21.8533 102.901 22.44 103.328 22.92C103.781 23.4 104.341 23.7733 105.008 24.04C105.675 24.3067 106.381 24.44 107.128 24.44C107.768 24.44 108.328 24.4133 108.808 24.36C109.288 24.28 109.701 24.1867 110.048 24.08C110.395 23.9467 110.715 23.8267 111.008 23.72C111.301 23.5867 111.555 23.48 111.768 23.4C112.008 23.32 112.235 23.2667 112.448 23.24C112.848 23.2133 113.208 23.3333 113.528 23.6C113.875 23.84 114.181 24.2133 114.448 24.72C114.635 25.0133 114.755 25.2933 114.808 25.56C114.888 25.8267 114.928 26.0933 114.928 26.36C114.928 27 114.595 27.5733 113.928 28.08C113.288 28.5867 112.368 28.9867 111.168 29.28C109.995 29.5733 108.568 29.72 106.888 29.72ZM102.608 17.88H108.928C109.355 17.88 109.661 17.8133 109.848 17.68C110.061 17.52 110.168 17.2267 110.168 16.8C110.168 16.32 110.021 15.9067 109.728 15.56C109.435 15.1867 109.035 14.9067 108.528 14.72C108.048 14.5067 107.488 14.4 106.848 14.4C106.021 14.4 105.288 14.56 104.648 14.88C104.008 15.2 103.501 15.6267 103.128 16.16C102.781 16.6933 102.608 17.2667 102.608 17.88ZM128.373 29.72C126.506 29.72 124.893 29.4133 123.533 28.8C122.199 28.1867 121.106 27.3867 120.253 26.4C119.399 25.3867 118.759 24.2667 118.333 23.04C117.933 21.8133 117.733 20.5867 117.733 19.36C117.733 17.36 118.186 15.5867 119.093 14.04C119.999 12.4933 121.253 11.28 122.853 10.4C124.453 9.49333 126.293 9.04 128.373 9.04C129.919 9.04 131.253 9.29333 132.373 9.8C133.519 10.28 134.453 10.92 135.173 11.72C135.919 12.4933 136.466 13.3333 136.812 14.24C137.186 15.1467 137.372 16.0133 137.372 16.84C137.372 18.3067 137.013 19.4 136.293 20.12C135.599 20.8133 134.706 21.16 133.613 21.16H124.093C124.146 21.8533 124.386 22.44 124.813 22.92C125.266 23.4 125.826 23.7733 126.493 24.04C127.159 24.3067 127.866 24.44 128.613 24.44C129.253 24.44 129.813 24.4133 130.293 24.36C130.773 24.28 131.186 24.1867 131.533 24.08C131.879 23.9467 132.199 23.8267 132.493 23.72C132.786 23.5867 133.039 23.48 133.253 23.4C133.493 23.32 133.719 23.2667 133.933 23.24C134.333 23.2133 134.693 23.3333 135.013 23.6C135.359 23.84 135.666 24.2133 135.933 24.72C136.119 25.0133 136.239 25.2933 136.293 25.56C136.373 25.8267 136.413 26.0933 136.413 26.36C136.413 27 136.079 27.5733 135.413 28.08C134.773 28.5867 133.853 28.9867 132.653 29.28C131.479 29.5733 130.053 29.72 128.373 29.72ZM124.093 17.88H130.413C130.839 17.88 131.146 17.8133 131.333 17.68C131.546 17.52 131.653 17.2267 131.653 16.8C131.653 16.32 131.506 15.9067 131.213 15.56C130.919 15.1867 130.519 14.9067 130.013 14.72C129.533 14.5067 128.973 14.4 128.333 14.4C127.506 14.4 126.773 14.56 126.133 14.88C125.493 15.2 124.986 15.6267 124.613 16.16C124.266 16.6933 124.093 17.2667 124.093 17.88ZM153.185 29.36C152.225 29.36 151.532 29.2267 151.105 28.96C150.679 28.6667 150.412 28.28 150.305 27.8C150.199 27.32 150.145 26.8267 150.145 26.32V4.44C150.145 3.90667 150.185 3.41333 150.265 2.96C150.372 2.50667 150.639 2.13333 151.065 1.84C151.492 1.54666 152.199 1.4 153.185 1.4C154.199 1.4 154.905 1.54666 155.305 1.84C155.732 2.13333 155.985 2.50667 156.065 2.96C156.172 3.41333 156.225 3.90667 156.225 4.44V24.08H167.185C167.639 24.08 168.065 24.12 168.465 24.2C168.865 24.28 169.185 24.5067 169.425 24.88C169.692 25.2533 169.825 25.8667 169.825 26.72C169.825 27.5467 169.692 28.16 169.425 28.56C169.159 28.9333 168.825 29.16 168.425 29.24C168.052 29.32 167.639 29.36 167.185 29.36H153.185ZM188.523 29.32C187.536 29.32 186.803 29.1467 186.323 28.8C185.869 28.4533 185.643 28.0267 185.643 27.52L186.043 26.84C185.883 27.1067 185.576 27.44 185.123 27.84C184.669 28.2133 184.083 28.56 183.363 28.88C182.643 29.1733 181.749 29.32 180.683 29.32C179.456 29.32 178.283 29.0533 177.163 28.52C176.069 27.9867 175.096 27.2533 174.243 26.32C173.389 25.36 172.709 24.28 172.203 23.08C171.723 21.88 171.483 20.6133 171.483 19.28C171.483 17.9733 171.723 16.7333 172.203 15.56C172.709 14.36 173.389 13.3067 174.243 12.4C175.123 11.4667 176.109 10.7333 177.203 10.2C178.296 9.66667 179.456 9.4 180.683 9.4C181.669 9.4 182.509 9.54667 183.203 9.84C183.896 10.1067 184.469 10.4267 184.923 10.8C185.403 11.1733 185.763 11.5333 186.003 11.88L185.683 11.32C185.656 10.68 185.869 10.2 186.323 9.88C186.803 9.53333 187.549 9.36 188.563 9.36C189.523 9.36 190.203 9.50667 190.603 9.8C191.029 10.0933 191.283 10.48 191.363 10.96C191.469 11.44 191.523 11.9467 191.523 12.48V26.28C191.523 26.7867 191.469 27.28 191.363 27.76C191.283 28.24 191.029 28.6267 190.603 28.92C190.203 29.1867 189.509 29.32 188.523 29.32ZM181.563 23.36C182.256 23.36 182.883 23.1867 183.443 22.84C184.029 22.4667 184.483 21.9733 184.803 21.36C185.149 20.7467 185.323 20.0667 185.323 19.32C185.323 18.5467 185.149 17.8667 184.803 17.28C184.456 16.6667 183.989 16.1867 183.403 15.84C182.816 15.4667 182.176 15.28 181.483 15.28C180.709 15.28 180.016 15.4667 179.403 15.84C178.816 16.2133 178.336 16.7067 177.963 17.32C177.616 17.9333 177.443 18.6267 177.443 19.4C177.443 20.12 177.616 20.7867 177.963 21.4C178.336 21.9867 178.829 22.4667 179.443 22.84C180.083 23.1867 180.789 23.36 181.563 23.36ZM205.462 29.32C204.155 29.32 202.995 29.0533 201.982 28.52C200.995 27.96 200.168 27.2133 199.502 26.28C198.862 25.3467 198.368 24.28 198.022 23.08C197.702 21.88 197.555 20.6 197.582 19.24C197.582 17.9333 197.755 16.68 198.102 15.48C198.448 14.28 198.942 13.2267 199.582 12.32C200.248 11.4133 201.062 10.7067 202.022 10.2C203.008 9.66667 204.155 9.4 205.462 9.4C206.635 9.4 207.768 9.66667 208.862 10.2C209.982 10.7333 210.968 11.4667 211.822 12.4C212.675 13.3067 213.342 14.36 213.822 15.56C214.328 16.7333 214.582 17.9733 214.582 19.28C214.582 20.64 214.328 21.9333 213.822 23.16C213.342 24.36 212.675 25.4267 211.822 26.36C210.968 27.2933 209.995 28.0267 208.902 28.56C207.808 29.0667 206.662 29.32 205.462 29.32ZM204.622 23.4C205.368 23.4 206.035 23.2267 206.622 22.88C207.208 22.5067 207.675 22.0133 208.022 21.4C208.395 20.7867 208.582 20.1067 208.582 19.36C208.582 18.5867 208.408 17.9067 208.062 17.32C207.715 16.7067 207.248 16.2267 206.662 15.88C206.075 15.5333 205.408 15.36 204.662 15.36C203.942 15.36 203.275 15.5333 202.662 15.88C202.075 16.2267 201.608 16.7067 201.262 17.32C200.942 17.9067 200.782 18.5867 200.782 19.36C200.782 20.1067 200.955 20.7867 201.302 21.4C201.648 22.0133 202.115 22.5067 202.702 22.88C203.288 23.2267 203.928 23.4 204.622 23.4ZM197.662 29.36C196.702 29.36 196.008 29.2133 195.582 28.92C195.155 28.6267 194.888 28.2533 194.782 27.8C194.702 27.32 194.662 26.8267 194.662 26.32V3.32C194.662 2.76 194.715 2.25333 194.822 1.8C194.928 1.34667 195.182 0.986666 195.582 0.719999C196.008 0.426665 196.715 0.279998 197.702 0.279998C198.662 0.279998 199.342 0.426665 199.742 0.719999C200.142 1.01333 200.382 1.4 200.462 1.88C200.542 2.33333 200.568 2.81333 200.542 3.32V27.56C200.408 28.1733 200.128 28.6267 199.702 28.92C199.275 29.2133 198.595 29.36 197.662 29.36ZM224.481 29.68C223.761 29.68 222.974 29.6 222.121 29.44C221.294 29.28 220.481 29.0533 219.681 28.76C218.881 28.44 218.214 28.08 217.681 27.68C217.147 27.2533 216.841 26.7733 216.761 26.24C216.707 25.9733 216.707 25.6933 216.761 25.4C216.841 25.08 216.974 24.76 217.161 24.44C217.347 24.0933 217.574 23.7333 217.841 23.36C218.054 23.0667 218.294 22.88 218.561 22.8C218.827 22.72 219.134 22.7333 219.481 22.84C219.907 22.92 220.334 23.0667 220.761 23.28C221.214 23.4667 221.654 23.68 222.081 23.92C222.534 24.1333 223.001 24.3333 223.481 24.52C223.961 24.68 224.454 24.76 224.961 24.76C225.707 24.76 226.281 24.6533 226.681 24.44C227.107 24.2 227.321 23.88 227.321 23.48C227.321 23.1867 227.227 22.9467 227.041 22.76C226.881 22.5733 226.641 22.4133 226.321 22.28C226.027 22.12 225.681 21.9867 225.281 21.88C224.881 21.7733 224.441 21.6667 223.961 21.56C223.507 21.4267 223.041 21.2933 222.561 21.16C221.894 20.9733 221.254 20.7333 220.641 20.44C220.027 20.1467 219.467 19.7733 218.961 19.32C218.454 18.84 218.054 18.2667 217.761 17.6C217.467 16.9067 217.321 16.0667 217.321 15.08C217.321 13.7733 217.627 12.68 218.241 11.8C218.854 10.92 219.747 10.2533 220.921 9.8C222.094 9.32 223.521 9.08 225.201 9.08C225.681 9.08 226.161 9.10667 226.641 9.16C227.121 9.21333 227.587 9.30667 228.041 9.44C228.521 9.57333 228.987 9.73333 229.441 9.92C229.894 10.1067 230.347 10.3333 230.801 10.6C231.601 10.9733 232.014 11.48 232.041 12.12C232.067 12.76 231.841 13.4133 231.361 14.08C231.067 14.5333 230.761 14.8667 230.441 15.08C230.121 15.2667 229.787 15.32 229.441 15.24C229.014 15.1333 228.547 14.96 228.041 14.72C227.561 14.48 227.041 14.2533 226.481 14.04C225.947 13.8267 225.414 13.72 224.881 13.72C224.427 13.72 224.041 13.7867 223.721 13.92C223.401 14.0267 223.161 14.1867 223.001 14.4C222.841 14.5867 222.761 14.8133 222.761 15.08C222.761 15.4267 222.854 15.7067 223.041 15.92C223.254 16.1067 223.534 16.2667 223.881 16.4C224.227 16.5333 224.627 16.6533 225.081 16.76C225.534 16.8667 226.027 16.9733 226.561 17.08C227.281 17.2133 228.014 17.4 228.761 17.64C229.534 17.8533 230.227 18.1733 230.841 18.6C231.481 19.0267 231.987 19.6 232.361 20.32C232.761 21.04 232.961 21.9867 232.961 23.16C232.961 25.2667 232.227 26.88 230.761 28C229.294 29.12 227.201 29.68 224.481 29.68Z" fill="#D21F35"/>
</svg>
