<svg width="105" height="108" viewBox="0 0 105 108" fill="none" xmlns="http://www.w3.org/2000/svg">
<path d="M10.9256 25.7652H28.1388L53.4903 53.6815H36.2772L10.9256 25.7652ZM29.6629 22.3208H3.14421L34.7532 57.1259H61.2713L29.6629 22.3208" fill="#44494F"/>
<path d="M56.3468 0L29.6629 20.9797H3.14421L8.98358 16.3901C22.4867 5.77398 39.1686 0 56.3468 0Z" fill="#44494F"/>
<path d="M50.7296 25.6436H67.9384L93.2943 53.5599H76.0812L50.7296 25.6436ZM69.4668 22.1992H42.9482L74.5571 57.0043H101.076L69.4668 22.1992Z" fill="#44494F"/>
<path d="M101.076 58.3452L95.2359 62.9348C88.4866 68.2429 80.9364 72.3404 72.9329 75.1098C64.929 77.8836 56.464 79.3249 47.8727 79.3249L74.5571 58.3452H101.076Z" fill="#44494F"/>
<path d="M6.68816 96.4598C6.18754 96.923 5.49901 97.211 4.76046 97.211C3.18284 97.211 1.90589 95.9463 1.90589 94.3692C1.90589 92.8041 3.18284 91.5274 4.76046 91.5274C5.49901 91.5274 6.18754 91.8154 6.68816 92.2913L8.02762 90.9392C7.17647 90.1253 6.02477 89.6245 4.76046 89.6245C2.14406 89.6245 0.0156326 91.7526 0.0156326 94.3692C0.0156326 96.9852 2.14406 99.1133 4.76046 99.1133C6.02477 99.1133 7.17647 98.613 8.02762 97.7992L6.68816 96.4598Z" fill="#44494F"/>
<path d="M20.5333 97.2235C18.9557 97.2235 17.679 95.9463 17.679 94.3692C17.679 92.8041 18.9557 91.5274 20.5333 91.5274C22.0983 91.5274 23.375 92.8041 23.375 94.3692C23.375 95.9463 22.0983 97.2235 20.5333 97.2235ZM20.5333 89.6245C17.9172 89.6245 15.7887 91.7526 15.7887 94.3692C15.7887 96.9852 17.9172 99.1133 20.5333 99.1133C23.1494 99.1133 25.2775 96.9852 25.2775 94.3692C25.2775 91.7526 23.1494 89.6245 20.5333 89.6245Z" fill="#44494F"/>
<path d="M38.4836 96.5599L35.7046 89.6245H33.6641V99.1133H35.5544V94.3692L37.4573 99.1133H39.4978L41.4006 94.3692V99.1133H43.2909V89.6245H41.25L38.4836 96.5599" fill="#44494F"/>
<path d="M54.3316 93.4177H53.5679V91.5274H54.3316C54.8572 91.5274 55.2831 91.953 55.2831 92.4789C55.2831 92.9919 54.8572 93.4177 54.3316 93.4177V93.4177ZM54.3316 89.6245H51.6776V99.1133H53.5679V95.3207H54.3438C55.9088 95.3207 57.1729 94.0434 57.1729 92.4789C57.1729 90.9013 55.9088 89.6245 54.3316 89.6245Z" fill="#44494F"/>
<path d="M67.9758 94.5568L68.7396 92.4161L69.516 94.5568H67.9758ZM67.7385 89.6245L64.3081 99.1133H66.3237L67.2874 96.4598H70.2044L71.1685 99.1133H73.1838L69.7537 89.6245H67.7385Z" fill="#44494F"/>
<path d="M89.2194 89.6245H87.3291V95.959L83.536 89.6245H81.32V99.1133H83.2102V92.7915L87.016 99.1133H89.2194V89.6245" fill="#44494F"/>
<path d="M101.724 99.1133V94.5947L104.203 89.6245H102.088L100.786 92.2533L99.4715 89.6245H97.3557L99.8346 94.5947V99.1133H101.724" fill="#44494F"/>
<path d="M0 103.722H1.10004V107.2H1.71216V103.722H2.81273V103.179H0V103.722Z" fill="#44494F"/>
<path d="M6.92375 105.76L7.50562 104.003H7.51673L8.09845 105.76H6.92375ZM7.25471 103.179L5.79327 107.2H6.43846L6.7472 106.3H8.2721L8.58389 107.2H9.22663L7.76486 103.179H7.25471" fill="#44494F"/>
<path d="M14.2477 105.561H15.0668V105.771C15.0631 106.023 14.9841 106.225 14.8294 106.38C14.6749 106.542 14.4793 106.622 14.242 106.622C14.0983 106.622 13.9756 106.592 13.8724 106.532C13.7678 106.48 13.6833 106.413 13.6185 106.33C13.5396 106.244 13.4874 106.131 13.4617 105.991C13.4321 105.851 13.4178 105.584 13.4178 105.189C13.4178 104.793 13.4321 104.524 13.4617 104.381C13.4874 104.245 13.5397 104.133 13.6185 104.047C13.6834 103.964 13.7678 103.895 13.8724 103.84C13.9755 103.787 14.0983 103.758 14.242 103.755C14.4371 103.758 14.6026 103.814 14.7384 103.923C14.8691 104.037 14.9592 104.175 15.0089 104.336H15.6542C15.5898 104 15.4352 103.718 15.1909 103.49C14.9462 103.264 14.63 103.149 14.242 103.145C13.9259 103.149 13.662 103.224 13.4508 103.371C13.2355 103.517 13.0793 103.682 12.9817 103.867C12.9213 103.965 12.876 104.093 12.8468 104.251C12.8193 104.409 12.8053 104.722 12.8053 105.189C12.8053 105.648 12.8193 105.959 12.8468 106.121C12.8612 106.207 12.8798 106.279 12.902 106.336C12.9258 106.391 12.9523 106.449 12.9817 106.51C13.0794 106.695 13.2355 106.859 13.4508 107C13.662 107.148 13.9259 107.225 14.2421 107.232C14.6518 107.225 14.9923 107.086 15.2623 106.815C15.531 106.544 15.6686 106.206 15.676 105.803V104.984H14.2477V105.561" fill="#44494F"/>
<path d="M20.3853 103.179H19.7761V107.2H22.3435V106.623H20.3853V103.179Z" fill="#44494F"/>
<path d="M26.3055 107.2H26.9152V103.179H26.3055V107.2Z" fill="#44494F"/>
<path d="M33.5553 106.036H33.5442L31.7244 103.179H31.1505V107.2H31.7601V104.343H31.7712L33.5884 107.2H34.1649V103.179H33.5557V106.036" fill="#44494F"/>
<path d="M38.4022 107.2H40.9696V106.623H39.0118V105.443H40.6831V104.902H39.0118V103.755H40.9696V103.179H38.4022V107.2Z" fill="#44494F"/>
<path d="M50.9791 105.561H51.7982V105.771C51.7945 106.023 51.7155 106.225 51.5609 106.38C51.4068 106.542 51.2108 106.622 50.9735 106.622C50.8298 106.622 50.707 106.592 50.6042 106.532C50.4993 106.48 50.4148 106.413 50.3503 106.33C50.2711 106.244 50.2188 106.131 50.1931 105.991C50.1635 105.851 50.1492 105.584 50.1492 105.189C50.1492 104.793 50.1635 104.524 50.1931 104.381C50.2188 104.245 50.271 104.133 50.3503 104.047C50.4148 103.964 50.4993 103.895 50.6042 103.84C50.707 103.787 50.8298 103.758 50.9735 103.755C51.1686 103.758 51.334 103.814 51.4699 103.923C51.6005 104.037 51.6906 104.175 51.7403 104.336H52.3856C52.3212 104 52.1666 103.718 51.9223 103.49C51.6776 103.264 51.3615 103.149 50.9735 103.145C50.6574 103.149 50.3939 103.224 50.1823 103.371C49.9672 103.517 49.8108 103.682 49.7133 103.867C49.6528 103.965 49.6075 104.093 49.5783 104.251C49.5504 104.409 49.537 104.722 49.537 105.189C49.537 105.648 49.5504 105.959 49.5783 106.121C49.5926 106.207 49.6114 106.279 49.6331 106.336C49.6571 106.391 49.6836 106.449 49.7132 106.51C49.8107 106.695 49.9671 106.859 50.1822 107C50.3938 107.148 50.6573 107.225 50.9734 107.232C51.3836 107.225 51.7237 107.086 51.9941 106.815C52.2623 106.544 52.3999 106.206 52.4073 105.803V104.984H50.9791V105.561" fill="#44494F"/>
<path d="M58.5898 105.991C58.5602 106.131 58.5058 106.244 58.427 106.33C58.3665 106.413 58.2854 106.48 58.1844 106.531C58.0778 106.593 57.9514 106.622 57.8064 106.622C57.6628 106.622 57.5399 106.592 57.4368 106.531C57.3322 106.48 57.2478 106.413 57.1829 106.33C57.104 106.244 57.0518 106.131 57.0257 105.991C56.9966 105.851 56.9818 105.584 56.9818 105.189C56.9818 104.793 56.9966 104.524 57.0257 104.381C57.0518 104.245 57.1041 104.133 57.1829 104.047C57.2478 103.964 57.3322 103.895 57.4368 103.84C57.5399 103.787 57.6628 103.758 57.8064 103.755C57.9514 103.758 58.0777 103.787 58.1844 103.84C58.2854 103.895 58.3664 103.964 58.427 104.047C58.5058 104.133 58.5602 104.245 58.5898 104.381C58.6172 104.524 58.6312 104.793 58.6312 105.189C58.6312 105.584 58.6172 105.851 58.5898 105.991ZM59.064 103.867C58.97 103.682 58.8176 103.517 58.6064 103.371C58.393 103.224 58.1265 103.149 57.8064 103.145C57.4903 103.149 57.2264 103.224 57.0148 103.371C56.7997 103.517 56.6438 103.682 56.5458 103.867C56.4857 103.965 56.4404 104.093 56.4113 104.251C56.3834 104.409 56.3694 104.722 56.3694 105.189C56.3694 105.648 56.3834 105.959 56.4113 106.121C56.4256 106.207 56.444 106.279 56.4661 106.336C56.49 106.391 56.5166 106.449 56.5458 106.51C56.6438 106.695 56.7997 106.859 57.0148 107C57.2264 107.148 57.4903 107.225 57.8064 107.232C58.1265 107.225 58.393 107.148 58.6063 107C58.8175 106.859 58.97 106.695 59.064 106.51C59.1319 106.412 59.1785 106.282 59.2046 106.121C59.2286 105.959 59.2403 105.648 59.2403 105.189C59.2403 104.722 59.228 104.409 59.2046 104.251C59.1785 104.093 59.1319 103.965 59.064 103.867" fill="#44494F"/>
<path d="M63.3405 107.2H65.9075V106.623H63.9497V105.443H65.6209V104.902H63.9497V103.755H65.9075V103.179H63.3405V107.2Z" fill="#44494F"/>
<path d="M71.3649 104.907C71.1737 104.884 71.0231 104.863 70.9125 104.844C70.7144 104.807 70.5698 104.741 70.4792 104.646C70.3895 104.552 70.3442 104.447 70.3442 104.331C70.3479 104.138 70.4152 103.993 70.5458 103.895C70.6708 103.802 70.8271 103.755 71.0144 103.755C71.3767 103.762 71.7085 103.865 72.0102 104.063L72.349 103.562C71.9797 103.295 71.5447 103.156 71.0448 103.145C70.6294 103.149 70.3085 103.257 70.0825 103.471C69.8491 103.685 69.7324 103.969 69.7324 104.32C69.7324 104.612 69.8251 104.861 70.0106 105.065C70.1909 105.263 70.4539 105.391 70.7992 105.448C70.9926 105.476 71.1698 105.5 71.3318 105.522C71.6849 105.583 71.8591 105.763 71.8556 106.063C71.8482 106.429 71.5835 106.616 71.0614 106.622C70.6203 106.619 70.2397 106.486 69.9196 106.223L69.5199 106.68C69.9484 107.048 70.4605 107.232 71.0562 107.232C71.9771 107.221 72.4474 106.831 72.4679 106.063C72.4679 105.778 72.3786 105.528 72.2005 105.313C72.0202 105.094 71.7415 104.959 71.3649 104.907" fill="#44494F"/>
<path d="M83.4424 104.902H81.8508V103.179H81.2416V107.2H81.8508V105.443H83.4424V107.2H84.0515V103.179H83.4424V104.902Z" fill="#44494F"/>
<path d="M88.2897 107.2H90.8571V106.623H88.8989V105.443H90.5701V104.902H88.8989V103.755H90.8571V103.179H88.2897V107.2Z" fill="#44494F"/>
<path d="M95.4284 104.941V103.722H96.3829C96.5775 103.722 96.7265 103.763 96.8297 103.846C96.9599 103.94 97.0269 104.092 97.0308 104.301C97.0308 104.476 96.9747 104.623 96.8627 104.742C96.7487 104.871 96.5775 104.937 96.3498 104.941H95.4284ZM97.6069 104.301C97.5958 103.93 97.4628 103.644 97.2072 103.443C96.9955 103.267 96.723 103.179 96.3881 103.179H94.8192V107.2H95.4284V105.482H96.2061L97.036 107.2H97.7615L96.8297 105.415C97.3404 105.219 97.5999 104.847 97.6069 104.301" fill="#44494F"/>
<path d="M101.652 107.2H104.219V106.623H102.261V105.443H103.933V104.902H102.261V103.755H104.219V103.179H101.652V107.2Z" fill="#44494F"/>
</svg>
