<svg width="100" height="105" viewBox="0 0 100 105" fill="none" xmlns="http://www.w3.org/2000/svg">
<path d="M4.54973 96.3825C5.75792 96.3825 6.85876 95.904 7.67217 95.1263L6.392 93.8461C5.91354 94.2889 5.25528 94.5641 4.54973 94.5641C3.04218 94.5641 1.82172 93.3558 1.82172 91.8482C1.82172 90.3529 3.04218 89.1324 4.54973 89.1324C5.25528 89.1324 5.91354 89.4076 6.392 89.8622L7.67217 88.5702C6.85876 87.7925 5.75792 87.314 4.54973 87.314C2.04933 87.314 0.0153198 89.3475 0.0153198 91.8482C0.0153198 94.3486 2.04933 96.3825 4.54973 96.3825Z" fill="#44494F"/>
<path d="M19.6236 94.5759C18.1161 94.5759 16.896 93.3558 16.896 91.8482C16.896 90.3529 18.1161 89.1324 19.6236 89.1324C21.1193 89.1324 22.3394 90.3529 22.3394 91.8482C22.3394 93.3558 21.1193 94.5759 19.6236 94.5759ZM24.1579 91.8482C24.1579 89.3475 22.1239 87.314 19.6236 87.314C17.1232 87.314 15.0893 89.3475 15.0893 91.8482C15.0893 94.3486 17.1232 96.3825 19.6236 96.3825C22.1239 96.3825 24.1579 94.3486 24.1579 91.8482Z" fill="#44494F"/>
<path d="M41.3732 96.3825V87.314H39.4228L36.7792 93.9419L34.123 87.314H32.1731V96.3825H33.9793V91.8482L35.7982 96.3825H37.7481L39.567 91.8482V96.3825H41.3732Z" fill="#44494F"/>
<path d="M51.1946 89.1324H51.9248C52.4269 89.1324 52.834 89.5391 52.834 90.0416C52.834 90.5323 52.4269 90.939 51.9248 90.939H51.1946V89.1324ZM51.1946 92.7575H51.9366C53.4319 92.7575 54.6403 91.5369 54.6403 90.0416C54.6403 88.5341 53.4319 87.314 51.9248 87.314H49.3884V96.3825H51.1946V92.7575Z" fill="#44494F"/>
<path d="M64.9646 92.0276L65.6944 89.9815L66.4364 92.0276H64.9646ZM66.6637 87.314H64.7373L61.4593 96.3825H63.3857L64.3067 93.8461H67.0944L68.0158 96.3825H69.9417L66.6637 87.314" fill="#44494F"/>
<path d="M85.2668 96.3825V87.314H83.4606V93.3675L79.8355 87.314H77.7175V96.3825H79.5242V90.3407L83.1614 96.3825H85.2668" fill="#44494F"/>
<path d="M95.0647 87.314H93.0429L95.4118 92.0634V96.3825H97.2184V92.0634L99.5872 87.314H97.565L96.3209 89.8265L95.0647 87.314Z" fill="#44494F"/>
<path d="M1.05167 104.11H1.63648V100.787H2.68815V100.268H0V100.787H1.05167V104.11Z" fill="#44494F"/>
<path d="M6.6172 102.734L7.17341 101.056H7.18452L7.74059 102.734H6.6172ZM6.93358 100.268L5.53674 104.11H6.15334L6.44844 103.251H7.90584L8.20369 104.11H8.81788L7.42105 100.268H6.93358" fill="#44494F"/>
<path d="M13.0153 101.098C13.0772 101.019 13.1581 100.953 13.2583 100.9C13.3567 100.849 13.4743 100.822 13.6114 100.818C13.7974 100.822 13.9559 100.875 14.0857 100.979C14.2106 101.088 14.2964 101.22 14.3439 101.375H14.9605C14.8995 101.053 14.7515 100.783 14.5181 100.565C14.2842 100.349 13.982 100.24 13.6114 100.236C13.3092 100.24 13.0571 100.312 12.8546 100.452C12.6495 100.591 12.4998 100.749 12.4066 100.926C12.349 101.02 12.306 101.142 12.2777 101.293C12.2515 101.444 12.238 101.742 12.238 102.189C12.238 102.628 12.2515 102.925 12.2777 103.08C12.2916 103.162 12.3095 103.231 12.3304 103.285C12.3534 103.338 12.3788 103.393 12.4065 103.452C12.4997 103.629 12.6495 103.785 12.8546 103.921C13.0571 104.061 13.3092 104.135 13.6114 104.142C14.0033 104.134 14.3282 104.002 14.5864 103.744C14.8429 103.484 14.9748 103.162 14.9818 102.777V101.994H13.6166V102.545H14.3991V102.745C14.3954 102.986 14.3203 103.18 14.1727 103.327C14.0251 103.482 13.8378 103.56 13.6114 103.56C13.4742 103.56 13.3567 103.53 13.2583 103.472C13.1582 103.423 13.0771 103.359 13.0153 103.28C12.94 103.198 12.8899 103.089 12.8655 102.956C12.8372 102.822 12.8233 102.567 12.8233 102.189C12.8233 101.811 12.8372 101.554 12.8655 101.417C12.8899 101.287 12.9399 101.18 13.0153 101.098" fill="#44494F"/>
<path d="M18.9003 100.268V104.11H21.3536V103.56H19.4825V100.268H18.9003Z" fill="#44494F"/>
<path d="M25.1407 100.268V104.11H25.7228V100.268H25.1407Z" fill="#44494F"/>
<path d="M32.0686 102.998H32.0587L30.3191 100.268H29.7709V104.11H30.3535V101.38H30.3634L32.1004 104.11H32.6512V100.268H32.0686V102.998" fill="#44494F"/>
<path d="M39.155 100.818V100.268H36.7012V104.11H39.155V103.56H37.2835V102.431H38.8806V101.915H37.2835V100.818H39.155Z" fill="#44494F"/>
<path d="M47.9588 100.452C47.7537 100.591 47.6044 100.749 47.5112 100.926C47.4533 101.02 47.4102 101.142 47.3819 101.293C47.3557 101.444 47.3422 101.742 47.3422 102.189C47.3422 102.628 47.3557 102.925 47.3819 103.08C47.3962 103.162 47.4137 103.231 47.4346 103.285C47.4576 103.338 47.483 103.393 47.5112 103.452C47.6044 103.629 47.7537 103.785 47.9588 103.921C48.1613 104.061 48.4134 104.135 48.7156 104.142C49.1075 104.134 49.4324 104.002 49.691 103.744C49.9471 103.484 50.079 103.162 50.086 102.777V101.994H48.7209V102.545H49.5034V102.745C49.4997 102.986 49.4245 103.18 49.2769 103.328C49.1293 103.482 48.9421 103.56 48.7156 103.56C48.5785 103.56 48.4609 103.53 48.3625 103.472C48.2624 103.423 48.1814 103.359 48.12 103.28C48.0442 103.198 47.9945 103.089 47.9697 102.956C47.9415 102.822 47.9275 102.567 47.9275 102.189C47.9275 101.811 47.9415 101.554 47.9697 101.417C47.9945 101.287 48.0442 101.18 48.12 101.098C48.1813 101.019 48.2624 100.953 48.3625 100.9C48.4609 100.849 48.5785 100.822 48.7156 100.818C48.902 100.822 49.0601 100.875 49.1903 100.979C49.3148 101.088 49.401 101.22 49.4481 101.375H50.0647C50.0037 101.053 49.8557 100.783 49.6223 100.565C49.3884 100.349 49.0862 100.24 48.7156 100.236C48.4134 100.24 48.1613 100.312 47.9588 100.452" fill="#44494F"/>
<path d="M55.8386 103.28C55.7807 103.359 55.7032 103.423 55.6065 103.473C55.5051 103.53 55.3844 103.56 55.2455 103.56C55.1084 103.56 54.9908 103.531 54.8924 103.473C54.7923 103.423 54.7117 103.359 54.6498 103.28C54.5745 103.198 54.5244 103.089 54.4996 102.956C54.4717 102.822 54.4574 102.567 54.4574 102.189C54.4574 101.811 54.4717 101.554 54.4996 101.417C54.5244 101.287 54.5745 101.18 54.6498 101.098C54.7117 101.019 54.7922 100.953 54.8924 100.9C54.9907 100.849 55.1084 100.822 55.2455 100.819C55.3844 100.822 55.5051 100.849 55.6065 100.9C55.7032 100.953 55.7807 101.019 55.8386 101.098C55.9144 101.18 55.9662 101.287 55.9941 101.417C56.0206 101.554 56.0337 101.811 56.0337 102.189C56.0337 102.567 56.0206 102.822 55.9941 102.956C55.9662 103.089 55.9143 103.198 55.8386 103.28ZM56.4474 103.452C56.5127 103.358 56.5571 103.234 56.5819 103.08C56.6045 102.925 56.6159 102.628 56.6159 102.189C56.6159 101.742 56.6048 101.444 56.5819 101.293C56.5571 101.142 56.5127 101.02 56.4474 100.926C56.3581 100.749 56.2122 100.591 56.0101 100.452C55.8059 100.312 55.5516 100.24 55.2455 100.236C54.9438 100.24 54.6912 100.312 54.4892 100.452C54.2836 100.591 54.1343 100.749 54.0411 100.926C53.9832 101.02 53.9401 101.142 53.9122 101.293C53.8856 101.444 53.8726 101.742 53.8726 102.189C53.8726 102.628 53.8856 102.925 53.9122 103.08C53.9261 103.162 53.9436 103.231 53.9649 103.285C53.9875 103.338 54.0133 103.393 54.0411 103.452C54.1342 103.629 54.2836 103.785 54.4891 103.921C54.6912 104.061 54.9438 104.135 55.2455 104.142C55.5516 104.134 55.8059 104.061 56.0101 103.921C56.2122 103.785 56.3581 103.629 56.4473 103.452" fill="#44494F"/>
<path d="M62.9882 100.818V100.268H60.5344V104.11H62.9882V103.56H61.117V102.431H62.7138V101.915H61.117V100.818H62.9882Z" fill="#44494F"/>
<path d="M67.9135 103.56C67.4915 103.556 67.1279 103.428 66.8223 103.177L66.4404 103.615C66.8497 103.966 67.3387 104.142 67.9082 104.142C68.7883 104.132 69.2381 103.759 69.2577 103.024C69.2577 102.752 69.1724 102.513 69.0021 102.308C68.8296 102.099 68.5636 101.969 68.2035 101.92C68.0206 101.897 67.8765 101.877 67.7711 101.86C67.5812 101.824 67.4436 101.761 67.3574 101.67C67.2713 101.58 67.2281 101.48 67.2281 101.369C67.2318 101.185 67.296 101.046 67.4205 100.953C67.5399 100.863 67.6897 100.818 67.8686 100.818C68.2148 100.826 68.5318 100.924 68.8201 101.114L69.144 100.634C68.7909 100.379 68.3755 100.247 67.8978 100.236C67.5007 100.24 67.1941 100.343 66.9777 100.547C66.7548 100.753 66.6433 101.023 66.6433 101.359C66.6433 101.638 66.7322 101.875 66.9093 102.07C67.0818 102.26 67.3326 102.382 67.6631 102.437C67.8477 102.463 68.0171 102.487 68.1717 102.508C68.5092 102.566 68.6759 102.738 68.6725 103.024C68.6651 103.374 68.4125 103.553 67.9135 103.56" fill="#44494F"/>
<path d="M80.328 104.11V100.268H79.7458V101.915H78.2248V100.268H77.6426V104.11H78.2248V102.431H79.7458V104.11H80.328Z" fill="#44494F"/>
<path d="M86.8318 100.818V100.268H84.3785V104.11H86.8318V103.56H84.9611V102.431H86.5579V101.915H84.9611V100.818H86.8318Z" fill="#44494F"/>
<path d="M91.201 100.787H92.1128C92.2992 100.787 92.4416 100.826 92.54 100.905C92.6645 100.995 92.7285 101.14 92.7325 101.34C92.7325 101.507 92.6789 101.648 92.5718 101.762C92.4629 101.885 92.2992 101.948 92.0815 101.952H91.201V100.787ZM91.201 102.468H91.9443L92.7372 104.11H93.4309L92.54 102.405C93.0281 102.217 93.2763 101.862 93.2829 101.34C93.273 100.986 93.1453 100.712 92.901 100.521C92.6989 100.352 92.4381 100.268 92.1185 100.268H90.6188V104.11H91.201V102.468" fill="#44494F"/>
<path d="M99.6024 100.818V100.268H97.1487V104.11H99.6024V103.56H97.7314V102.431H99.3281V101.915H97.7314V100.818H99.6024Z" fill="#44494F"/>
<path d="M73.458 8.38034L73.4678 8.38812L73.458 8.37935C73.3961 8.3271 73.3317 8.2766 73.269 8.22695L73.2681 8.22607L73.2685 8.22651C73.3307 8.27702 73.3957 8.32754 73.4584 8.38022" fill="#44494F"/>
<path d="M72.6167 7.71697L72.6229 7.72092L72.6266 7.72524C72.8391 7.88679 73.0511 8.0527 73.2536 8.21642L73.2573 8.21814L73.2536 8.21592C73.0503 8.0522 72.8395 7.88716 72.627 7.72431L72.6221 7.71999L72.6159 7.71604C72.5601 7.67249 72.5022 7.62894 72.4448 7.5854L72.3747 7.53271L72.4439 7.5854C72.5027 7.62982 72.5593 7.67251 72.6159 7.71692" fill="#44494F"/>
<path d="M72.3048 7.47957C72.301 7.47691 72.2985 7.47426 72.2947 7.47199L72.301 7.47641L72.2921 7.47021L72.2947 7.47249C72.2972 7.47477 72.301 7.47691 72.3035 7.47957" fill="#44494F"/>
<path d="M72.2796 7.46102L72.2698 7.45411L72.1504 7.36572L72.2693 7.45455L72.2792 7.4611" fill="#44494F"/>
<path d="M71.802 7.11045C71.833 7.13222 71.8633 7.15443 71.8943 7.17663C71.8638 7.15486 71.8338 7.13266 71.8025 7.11045L71.7363 7.06299L71.7372 7.06385L71.8021 7.11045" fill="#44494F"/>
<path d="M71.7293 7.0579L71.7255 7.05481C71.662 7.00909 71.5984 6.96337 71.534 6.91895C71.598 6.96336 71.6616 7.00865 71.7251 7.05612L71.7301 7.05784" fill="#44494F"/>
<path d="M70.979 6.53139L70.9728 6.52744C70.9023 6.4791 70.8313 6.4312 70.7603 6.3833C70.8313 6.43121 70.9018 6.47953 70.9724 6.52831L70.9785 6.5314" fill="#44494F"/>
<path d="M55.9832 0.506846H55.9869L55.9844 0.50598C55.8333 0.480293 55.6822 0.456331 55.5311 0.433694C55.4606 0.422831 55.3909 0.412799 55.3204 0.402344C55.3909 0.412836 55.4606 0.423239 55.5307 0.433694C55.6822 0.455899 55.8338 0.480293 55.9836 0.506856" fill="#44494F"/>
<path d="M70.3842 6.1336C70.3779 6.13006 70.3728 6.12602 70.3669 6.12248L70.3659 6.12158V6.12204C70.3723 6.12608 70.3786 6.12999 70.3843 6.13366" fill="#44494F"/>
<path d="M65.7175 3.52769L65.7225 3.52905L65.7175 3.52732C65.3361 3.34792 64.9864 3.1916 64.6498 3.0479L64.6399 3.04395L64.6486 3.04827C64.986 3.19196 65.3361 3.34785 65.7163 3.52769" fill="#44494F"/>
<path d="M70.0506 5.91796C70.1273 5.96629 70.2035 6.01637 70.2801 6.066C70.2039 6.01593 70.1277 5.96629 70.0515 5.91796L70.0392 5.91006L70.0379 5.90918L70.0388 5.90962L70.0511 5.91789" fill="#44494F"/>
<path d="M61.1928 1.75651C61.1022 1.72733 61.0112 1.69774 60.9198 1.66987C60.8249 1.64113 60.7317 1.61326 60.6376 1.58496C60.7317 1.61326 60.8253 1.64156 60.9189 1.67074C61.0104 1.69861 61.1014 1.72692 61.1928 1.75653" fill="#44494F"/>
<path d="M59.7711 1.33683C59.7298 1.32548 59.6884 1.31375 59.6466 1.30243L59.6217 1.2959L59.6471 1.3033C59.6884 1.31466 59.7297 1.32551 59.7711 1.33683" fill="#44494F"/>
<path d="M59.864 1.36252L59.8615 1.36163L59.8564 1.35986L59.8615 1.36214L59.864 1.36258" fill="#44494F"/>
<path d="M64.3385 2.91458L64.3729 2.92894C64.4556 2.96334 64.5366 2.99731 64.6176 3.03389L64.6263 3.03734L64.6189 3.0334C64.5374 2.99725 64.4565 2.96242 64.3742 2.92845L64.3389 2.91408L64.3158 2.90359L64.3108 2.90137L64.3158 2.90446L64.3402 2.91446" fill="#44494F"/>
<path d="M68.8969 5.2061L68.8954 5.20508L68.8965 5.2056L68.8969 5.2061Z" fill="#44494F"/>
<path d="M69.1022 5.32932L69.2925 5.44427C69.4136 5.51524 69.5329 5.59015 69.6505 5.66505L69.6666 5.67504L69.6691 5.67639L69.6666 5.67418L69.6523 5.66505C69.5343 5.58972 69.4141 5.51612 69.294 5.4434L69.1032 5.32888L69.1008 5.32629C69.0716 5.30931 69.0424 5.29189 69.0137 5.2749C69.0429 5.29232 69.0713 5.3093 69.1013 5.32715L69.1025 5.32937" fill="#44494F"/>
<path d="M73.7493 8.6194L73.7793 8.64422L73.7488 8.61854C73.6626 8.54669 73.5785 8.47789 73.4949 8.41039L73.4819 8.3999L73.4944 8.41077C73.5789 8.47783 73.6621 8.54662 73.7492 8.61934" fill="#44494F"/>
<path d="M68.5645 5.01357C68.6515 5.06365 68.7373 5.11285 68.8236 5.16293C68.7374 5.11285 68.6516 5.06278 68.5653 5.01314L68.5 4.97525C68.47 4.95784 68.4408 4.94173 68.4108 4.92432C68.4408 4.94173 68.4695 4.95784 68.4996 4.97525L68.5646 5.01358" fill="#44494F"/>
<path d="M65.782 3.55772L66.1038 3.71144C66.2269 3.76804 66.3481 3.82683 66.4674 3.88952L66.48 3.8952L66.4836 3.89694L66.4787 3.89435L66.4664 3.88867C66.3466 3.82727 66.2256 3.76893 66.1032 3.71014L65.7814 3.55685L65.7806 3.5555C65.7707 3.55118 65.7609 3.54636 65.7514 3.54199C65.7613 3.54631 65.7711 3.55076 65.7797 3.5555L65.7809 3.55772" fill="#44494F"/>
<path d="M63.0017 2.3827C63.2747 2.48373 63.5721 2.60087 63.934 2.74674C63.9583 2.75637 63.9819 2.76589 64.0067 2.77592C63.9819 2.76592 63.9583 2.75589 63.9335 2.74631C63.5712 2.6 63.2751 2.4846 63.0016 2.38227L62.8383 2.32174L62.8157 2.31348L62.838 2.32174L63.0017 2.3827" fill="#44494F"/>
<path d="M12.5729 32.4351L12.5704 32.4507L12.5692 32.4659L12.5716 32.4507L12.5729 32.4351Z" fill="#44494F"/>
<path d="M12.5637 32.5044L12.5613 32.5283V32.5333L12.5617 32.5283L12.5642 32.5044" fill="#44494F"/>
<path d="M12.6177 32.1173C12.6264 32.0529 12.636 31.988 12.646 31.9231L12.6534 31.8774L12.646 31.9231C12.6361 31.9872 12.6263 32.0524 12.6181 32.1173L12.6172 32.1235L12.6168 32.1284L12.618 32.1235V32.1173" fill="#44494F"/>
<path d="M12.6108 32.1675C12.6059 32.2054 12.6009 32.2441 12.5946 32.2824L12.5803 32.3847L12.5956 32.2833C12.6006 32.2436 12.6055 32.2053 12.6108 32.1675Z" fill="#44494F"/>
<path d="M12.4562 33.3873C12.4611 33.3442 12.4661 33.302 12.4705 33.2593C12.4656 33.3024 12.4606 33.3442 12.4557 33.3873L12.4552 33.391L12.4544 33.3972L12.4556 33.391V33.3873" fill="#44494F"/>
<path d="M12.2816 35.4956C12.2779 35.5697 12.2729 35.6441 12.2692 35.7186V35.7247L12.2701 35.7186C12.2726 35.6441 12.2775 35.5696 12.2812 35.4956" fill="#44494F"/>
<path d="M12.3613 34.3472C12.3576 34.3899 12.3539 34.4325 12.3501 34.4757C12.3489 34.4974 12.3464 34.5192 12.3452 34.541C12.3477 34.5192 12.3489 34.497 12.3514 34.4752C12.3539 34.4325 12.3588 34.3899 12.3613 34.3472" fill="#44494F"/>
<path d="M12.3247 34.8187C12.3259 34.8 12.3271 34.7805 12.3284 34.7617C12.3271 34.7809 12.3259 34.8 12.3234 34.8196C12.3111 34.9581 12.3021 35.1035 12.293 35.2712L12.2925 35.2736L12.2934 35.2712C12.302 35.1035 12.3117 34.9581 12.3239 34.8183" fill="#44494F"/>
<path d="M47.1615 0.0902652C47.245 0.0845872 47.3291 0.0823642 47.4127 0.0776367C47.3292 0.0824506 47.2451 0.0845502 47.1615 0.0902652Z" fill="#44494F"/>
<path d="M44.0594 0.435508L44.059 0.435948C44.0615 0.435063 44.0627 0.43457 44.0652 0.43457C44.064 0.43457 44.0615 0.435017 44.0602 0.43546" fill="#44494F"/>
<path d="M31.8504 50.2104C31.8661 50.2458 31.8835 50.2801 31.8997 50.3154C31.8835 50.2801 31.8661 50.2458 31.8504 50.2104Z" fill="#44494F"/>
<path d="M51.2155 0.0268555C52.0642 0.0586395 52.912 0.116992 53.7537 0.204511C52.912 0.116984 52.0642 0.0586432 51.2155 0.0268555Z" fill="#44494F"/>
<path d="M57.667 0.830566C57.907 0.881952 58.1447 0.934634 58.382 0.990376C58.1447 0.934634 57.907 0.881952 57.667 0.830566Z" fill="#44494F"/>
<path d="M66.5261 3.91846C67.0722 4.19017 67.616 4.4767 68.1486 4.77498C67.616 4.47626 67.0717 4.1893 66.5261 3.91846Z" fill="#44494F"/>
<path d="M74.2832 9.06964C74.2113 9.00737 74.1399 8.94598 74.0654 8.88371L73.9191 8.76221L74.0646 8.88371C74.1399 8.94554 74.2113 9.00737 74.2832 9.06964" fill="#44494F"/>
<path d="M37.5051 16.3927C40.7074 12.9405 44.6408 10.2599 49.0705 8.54509C50.4126 8.02517 51.7824 7.60148 53.175 7.2749C51.782 7.60148 50.4117 8.02473 49.0697 8.54422C44.6403 10.2594 40.707 12.94 37.5051 16.3927Z" fill="#44494F"/>
<path d="M44.1935 64.2132H44.1939C40.4883 61.9728 37.2821 58.9744 34.7635 55.3645C33.8504 54.0565 33.0449 52.6909 32.3503 51.2783C33.0449 52.6909 33.8504 54.0569 34.7635 55.3654C37.2808 58.9744 40.4875 61.9728 44.1935 64.2132" fill="#44494F"/>
<path d="M12.2254 37.2637V37.2646C12.2254 37.3065 12.225 37.3473 12.225 37.3891C12.2245 37.4257 12.2245 37.4623 12.2245 37.4989C12.2245 37.4618 12.2245 37.4253 12.2254 37.3886V37.2637" fill="#44494F"/>
<path d="M20.2898 56.8553C15.196 51.8328 12.3329 45.1296 12.2276 37.9831L12.2251 37.8825V37.7632C12.2242 37.7266 12.2242 37.6908 12.2242 37.6548C12.2242 37.6905 12.2242 37.7261 12.2247 37.7619C12.2247 37.8019 12.2251 37.842 12.2251 37.8821L12.2263 37.9836C12.3321 45.1305 15.1952 51.8325 20.2886 56.8553C25.3867 61.8838 32.1379 64.6528 39.2996 64.6528C40.4392 64.6528 41.5678 64.5779 42.6839 64.439C41.5674 64.5775 40.4387 64.6528 39.3009 64.6528C32.1383 64.6528 25.3867 61.8843 20.2894 56.8553" fill="#44494F"/>
<path d="M75.1218 9.81185L75.1344 9.82358C75.201 9.88367 75.2663 9.9442 75.333 10.0065C75.2663 9.9442 75.201 9.88368 75.1344 9.82315L75.1218 9.81142L75.0343 9.73217C75.0203 9.71911 75.006 9.70647 74.9921 9.69385C75.0064 9.70691 75.0203 9.71954 75.0352 9.73261L75.1218 9.81186" fill="#44494F"/>
<path d="M75.7559 10.4049L75.7415 10.3916L75.7353 10.3857L75.7403 10.3924L75.755 10.405" fill="#44494F"/>
<path d="M76.1251 10.7621C76.1275 10.7638 76.13 10.7669 76.1325 10.7699C76.1334 10.7703 76.1349 10.7712 76.1349 10.7716C76.1325 10.7682 76.1288 10.7651 76.1251 10.7616C76.0806 10.719 76.0358 10.6754 75.9914 10.631C75.9326 10.5731 75.872 10.516 75.8116 10.459C75.8717 10.5165 75.9321 10.5735 75.9905 10.631C76.035 10.6754 76.0815 10.7198 76.1242 10.7621" fill="#44494F"/>
<path d="M75.5634 10.2235C75.5055 10.1686 75.451 10.1159 75.3901 10.0598L75.3826 10.0532L75.3888 10.0606C75.4503 10.1159 75.5051 10.1686 75.563 10.2235" fill="#44494F"/>
<path d="M12.2681 35.7435L12.2677 35.7485C12.2672 35.7571 12.2672 35.7655 12.2668 35.7733C12.2672 35.7659 12.2676 35.7576 12.268 35.7493V35.7432" fill="#44494F"/>
<path d="M12.2642 35.8467L12.2637 35.8494V35.8507L12.2642 35.848V35.8467Z" fill="#44494F"/>
<path d="M12.2337 36.8005V36.75C12.2337 36.7256 12.2337 36.7016 12.2349 36.6791C12.2374 36.5314 12.2411 36.3882 12.2475 36.2345C12.2484 36.1979 12.25 36.1626 12.2512 36.127C12.2503 36.1623 12.2487 36.1979 12.2463 36.2332C12.2401 36.3878 12.2364 36.5324 12.2332 36.6787C12.2332 36.7026 12.2327 36.7261 12.2323 36.7497L12.2319 36.7627V36.7872L12.2314 36.8015C12.229 36.9212 12.2265 37.0414 12.2253 37.1629L12.2244 37.2308L12.2256 37.1624C12.2256 37.0413 12.2281 36.9221 12.2318 36.8006" fill="#44494F"/>
<path d="M12.6583 31.8425L12.6533 31.8774L12.6459 31.923C12.636 31.988 12.6259 32.0528 12.6176 32.1172V32.1234L12.6164 32.1283L12.6155 32.1296C12.6143 32.1419 12.6131 32.1549 12.6106 32.1675C12.6057 32.2054 12.6007 32.2436 12.5954 32.2833L12.5801 32.3847L12.5776 32.4026L12.5727 32.4331L12.5723 32.4356L12.571 32.4512L12.5686 32.4664L12.5673 32.4738L12.5636 32.5043L12.5611 32.5283L12.5607 32.5332L12.557 32.5492C12.5408 32.6724 12.5243 32.7974 12.5083 32.9229C12.4952 33.0331 12.483 33.1471 12.4704 33.2603C12.4654 33.303 12.4605 33.3453 12.4561 33.3883V33.392L12.4548 33.3982L12.4544 33.4007C12.4382 33.5361 12.4244 33.6737 12.4099 33.8091C12.4001 33.9101 12.3917 34.0129 12.3817 34.1161V34.126L12.3718 34.2271C12.3681 34.2671 12.3644 34.3077 12.3619 34.3477C12.3582 34.3904 12.3545 34.433 12.352 34.4757C12.3496 34.4974 12.3483 34.5196 12.3459 34.5415C12.3434 34.5742 12.3397 34.6068 12.3372 34.6395C12.3348 34.6808 12.3311 34.7213 12.3286 34.7623C12.3274 34.7811 12.3261 34.8006 12.3249 34.8193C12.3125 34.9591 12.3027 35.1045 12.2944 35.2722L12.2935 35.2747L12.2927 35.2771V35.2833C12.289 35.3543 12.2853 35.4257 12.2816 35.4971C12.2779 35.5712 12.2729 35.6456 12.2705 35.7201L12.2696 35.7262L12.2683 35.7336V35.7447V35.7509C12.2679 35.7596 12.2675 35.767 12.2671 35.7749C12.2662 35.7914 12.2659 35.8076 12.2647 35.8253V35.8479V35.8492L12.2642 35.8516L12.263 35.8756C12.258 35.9596 12.2556 36.0437 12.2531 36.1281C12.2519 36.1638 12.2506 36.1991 12.2494 36.2356C12.2432 36.3894 12.2395 36.5326 12.2368 36.6802C12.2356 36.7028 12.2356 36.7269 12.2356 36.7512V36.8017C12.2319 36.9232 12.2294 37.0425 12.2294 37.1635L12.2282 37.2319L12.2273 37.2629V37.2654V37.3904C12.2264 37.4269 12.2264 37.4635 12.2264 37.5006C12.2264 37.5263 12.2256 37.5524 12.2256 37.5785C12.2256 37.6038 12.2264 37.6303 12.2264 37.6565C12.2264 37.6926 12.2264 37.7283 12.2273 37.7648V37.8842L12.2298 37.9848C12.3352 45.1313 15.1982 51.8345 20.292 56.8569C25.3893 61.8859 32.1409 64.6544 39.3035 64.6544C40.4413 64.6544 41.57 64.5791 42.6865 64.4406C43.1924 64.3779 43.6967 64.3061 44.1966 64.2155C44.1962 64.2151 44.1962 64.2151 44.1957 64.2146C40.4897 61.9743 37.283 58.9758 34.7657 55.3669C33.8526 54.0584 33.0471 52.6924 32.3525 51.2798C32.1962 50.9615 32.0473 50.6401 31.9018 50.317C31.8857 50.2817 31.8682 50.2474 31.8526 50.2121C30.0955 46.2648 29.1829 41.9813 29.1829 37.5786C29.1829 31.1749 31.1141 25.0234 34.7657 19.7907C35.6048 18.588 36.5223 17.4558 37.5072 16.3942C40.7091 12.9416 44.6424 10.261 49.0718 8.54577C50.4138 8.02628 51.7842 7.60303 53.1771 7.27644C55.4985 6.73214 57.8826 6.45694 60.3023 6.45694C65.9583 6.45694 71.3913 7.95922 76.1372 10.7739C76.1368 10.7731 76.136 10.7726 76.1348 10.7717C76.1323 10.7686 76.1298 10.7657 76.1273 10.7639C76.0846 10.7217 76.0381 10.6773 75.9937 10.6329C75.9353 10.5754 75.8748 10.5183 75.8147 10.4609C75.7959 10.4434 75.7777 10.4256 75.7594 10.4082L75.7581 10.4064L75.7438 10.3942L75.7389 10.3877L75.7303 10.3777C75.6793 10.3289 75.6214 10.2762 75.567 10.2253C75.5091 10.1704 75.4542 10.1177 75.3928 10.0624L75.3866 10.055L75.3804 10.0481L75.366 10.0359C75.3561 10.0268 75.3464 10.018 75.3364 10.0084C75.2697 9.94617 75.2044 9.88566 75.1378 9.82556L75.1252 9.81383L75.0386 9.73457C75.0237 9.72151 75.0098 9.70889 74.9955 9.69582C74.8992 9.60829 74.8039 9.52208 74.709 9.4376C74.5997 9.3405 74.4947 9.24948 74.3893 9.15848C74.3566 9.1293 74.3206 9.10013 74.2865 9.07139C74.2147 9.00911 74.1433 8.94729 74.0679 8.88545L73.9225 8.76395L73.8436 8.69734L73.8411 8.69339L73.7824 8.64548L73.7524 8.62066C73.6653 8.54795 73.5822 8.47915 73.4977 8.41209L73.4851 8.40122L73.4789 8.39641L73.4703 8.38986L73.4604 8.3821C73.3977 8.3294 73.3328 8.27889 73.2705 8.22838L73.2701 8.22795L73.2639 8.22227L73.2603 8.22004L73.2565 8.21831C73.054 8.05459 72.842 7.88869 72.6295 7.72714L72.6258 7.72282L72.6196 7.71886C72.563 7.67445 72.5064 7.63178 72.4476 7.58736L72.3784 7.53467L72.3365 7.50244C72.3279 7.49466 72.3174 7.48807 72.3074 7.4811C72.305 7.4785 72.3012 7.47628 72.2988 7.47418L72.2963 7.47196L72.2889 7.46628L72.2827 7.46234L72.2728 7.45579L72.154 7.36696L72.1109 7.33474L71.9489 7.21499C71.9324 7.20326 71.915 7.1906 71.8979 7.17842C71.8669 7.15621 71.8366 7.13401 71.8056 7.11224L71.7407 7.06564L71.7398 7.06476L71.7373 7.06167L71.7336 7.05946L71.7287 7.05773C71.6651 7.01027 71.6015 6.96498 71.5375 6.92057C71.5223 6.90971 71.5075 6.89793 71.4922 6.88748L71.474 6.87525L71.4579 6.86353C71.302 6.75423 71.1466 6.64494 70.9885 6.53564L70.9848 6.53391L70.9836 6.53255L70.9774 6.52946C70.9069 6.48069 70.8363 6.43236 70.7653 6.38447C70.7483 6.37311 70.7318 6.36095 70.7144 6.34963L70.7131 6.34741L70.707 6.34345C70.6015 6.27465 70.4962 6.20368 70.3891 6.13444C70.3829 6.13098 70.3767 6.12704 70.3712 6.12309V6.12265L70.3638 6.11697L70.3539 6.11092C70.3313 6.09613 70.3086 6.08175 70.286 6.06695C70.2094 6.0173 70.1332 5.96723 70.0565 5.9189L70.0442 5.91062L70.0433 5.91019L70.0322 5.90279C69.9186 5.82789 69.8036 5.7569 69.6861 5.68418L69.6737 5.67765L69.6713 5.67629L69.6551 5.66629C69.5374 5.59139 69.4182 5.5165 69.2971 5.44553L69.1068 5.33057L69.1056 5.32835C69.0756 5.3105 69.0472 5.29352 69.0181 5.2761C68.9819 5.25433 68.9454 5.23255 68.9092 5.21123L68.9018 5.20727L68.9014 5.20684L68.9005 5.2064L68.8956 5.20295C68.8734 5.18944 68.8508 5.17769 68.8289 5.16419C68.7427 5.11411 68.6569 5.06491 68.5698 5.01483L68.5049 4.9765C68.4749 4.95909 68.4461 4.94298 68.416 4.92556C68.3363 4.87941 68.2571 4.83281 68.1774 4.78839C68.17 4.78407 68.1617 4.78062 68.154 4.77618C67.6214 4.4779 67.0775 4.19138 66.5315 3.91966C66.5191 3.91361 66.5075 3.90703 66.4953 3.90094L66.4891 3.89834L66.4855 3.89661L66.4729 3.89094C66.3535 3.82823 66.2325 3.76944 66.1093 3.71284L65.7875 3.55913L65.7863 3.55691C65.7776 3.55209 65.7675 3.54777 65.758 3.5434C65.7518 3.54081 65.7457 3.53822 65.7397 3.53464L65.7311 3.53069L65.7286 3.52982L65.7237 3.52846C65.3435 3.34862 64.9934 3.19274 64.656 3.04904L64.6473 3.04472L64.6399 3.04126L64.6325 3.03867L64.6239 3.03522C64.5429 2.99864 64.4619 2.96467 64.3791 2.93027L64.3447 2.9159L64.3203 2.90591L64.3153 2.90282L64.3141 2.90195L64.1687 2.84099C64.1173 2.82052 64.065 2.79874 64.0128 2.7774C63.988 2.7674 63.9644 2.75781 63.9401 2.74823C63.5782 2.60235 63.2808 2.48522 63.0078 2.3842L62.8441 2.32323L62.8218 2.31496L62.6498 2.25052C62.1909 2.08505 61.7137 1.92088 61.2347 1.76935L61.2285 1.76762L61.2223 1.7654C61.2149 1.76281 61.2066 1.76058 61.1988 1.75799C61.1074 1.72838 61.0164 1.70008 60.9249 1.67221C60.8313 1.64303 60.7377 1.61472 60.6437 1.58642C60.588 1.56943 60.5322 1.55202 60.476 1.53461C60.2679 1.47407 60.0697 1.41747 59.8795 1.36479L59.8696 1.36342L59.8671 1.36299L59.8622 1.36076L59.856 1.35854C59.8303 1.35163 59.8038 1.34461 59.7776 1.33765C59.7363 1.32629 59.6949 1.31544 59.6535 1.30412L59.6282 1.29672L59.5912 1.28586C59.1963 1.18004 58.7926 1.08512 58.3885 0.991065C58.1512 0.935322 57.9134 0.88264 57.6735 0.831255C57.2707 0.745469 56.8671 0.660121 56.4608 0.586531C56.3093 0.559968 56.1595 0.533838 56.0079 0.50946L55.9993 0.507737H55.9931H55.9894C55.8396 0.481174 55.6881 0.456793 55.5365 0.434575C55.4664 0.424083 55.3968 0.41368 55.3262 0.403225C55.2382 0.390166 55.1499 0.376226 55.0632 0.364031C54.6313 0.303944 54.1963 0.250819 53.7599 0.20553C52.9182 0.118004 52.0704 0.0596531 51.2217 0.0278655C50.7497 0.010017 50.2777 0 49.8061 0C49.011 0 48.2141 0.0287357 47.419 0.0788124C47.3354 0.0836263 47.2514 0.0857259 47.1678 0.0914409C46.289 0.152836 45.4142 0.243838 44.5486 0.364021C44.3927 0.386227 44.2372 0.410173 44.0835 0.432823C44.0786 0.434181 44.0749 0.434558 44.0709 0.435422C44.0697 0.435422 44.0672 0.435856 44.0648 0.436778L12.6662 31.8331L12.6637 31.843" fill="#44494F"/>
<path d="M86.9511 43.2628L86.956 43.2349L86.9597 43.2044C86.9671 43.1517 86.9759 43.0972 86.9819 43.0446L86.9844 43.0322L86.9856 43.0122L86.9893 42.9896C86.9992 42.9213 87.0119 42.8503 87.0198 42.7815L87.0235 42.7353L87.0322 42.6887C87.0359 42.6661 87.0383 42.6442 87.042 42.6237L87.0703 42.389L87.0929 42.2275C87.1129 42.0716 87.129 41.9262 87.1451 41.7807L87.1476 41.7602C87.1637 41.6209 87.1776 41.4894 87.1898 41.3561C87.1997 41.2447 87.2124 41.1393 87.2203 41.0365V41.0304L87.2301 40.9294C87.2388 40.8545 87.2445 40.7818 87.2484 40.7086L87.2497 40.6804L87.2521 40.6521C87.262 40.5572 87.2683 40.4622 87.2743 40.3673V40.353L87.2768 40.3285C87.2892 40.1914 87.299 40.0455 87.3073 39.8818V39.8719C87.3172 39.7243 87.3252 39.5806 87.3335 39.4391L87.3359 39.3969V39.3381L87.3372 39.2797C87.3458 39.1604 87.3495 39.0389 87.3533 38.9174C87.3595 38.7537 87.3632 38.5982 87.3676 38.4424L87.3689 38.4219V38.3513C87.3714 38.2398 87.3738 38.127 87.3738 38.0134V37.8862L87.3751 37.8657C87.3775 37.7686 87.3775 37.672 87.3775 37.5766C87.3775 37.4755 87.3775 37.3724 87.3751 37.2735V37.2649L87.3738 37.1677C87.2684 30.0221 84.4054 23.3189 79.3138 18.296C74.2138 13.2671 67.4627 10.4985 60.3001 10.4985C58.6463 10.4985 57.0103 10.6466 55.4066 10.9375C59.1135 13.1783 62.3201 16.1789 64.8379 19.7883C68.4895 25.021 70.4207 31.1725 70.4207 37.5762C70.4207 43.9803 68.4895 50.1313 64.8379 55.3645C61.2707 60.4762 56.3228 64.3647 50.5296 66.6072C46.9524 67.9924 43.1754 68.6961 39.3012 68.6961C33.6452 68.6961 28.2139 67.1933 23.4663 64.3808L23.4737 64.3894L23.496 64.4094L23.5164 64.4299C23.5387 64.4539 23.5609 64.4761 23.5852 64.4966L23.6601 64.5693C23.7206 64.6298 23.7812 64.6886 23.8439 64.7474L23.8537 64.7573L23.8661 64.7671C23.9671 64.8643 24.0864 64.9792 24.204 65.0867L24.2223 65.1007L24.2383 65.1169C24.315 65.1901 24.3916 65.2627 24.4709 65.3333L24.477 65.3394L24.4844 65.3456C24.6198 65.471 24.7574 65.5947 24.899 65.7179L24.9076 65.7241L24.9163 65.7327C25.0069 65.8137 25.0978 65.8947 25.191 65.9757L25.2089 65.9897L25.2699 66.0419L25.2761 66.0443L25.543 66.2751L25.5974 66.3217L25.6097 66.334C25.6824 66.395 25.7534 66.4555 25.8283 66.5143L25.8566 66.5365L25.8828 66.5605C25.9455 66.6153 26.016 66.6719 26.0953 66.7346L26.1214 66.7546L26.1459 66.7751C26.2025 66.8235 26.2591 66.87 26.3135 66.9106L26.3318 66.9245L26.348 66.9388C26.5483 67.1004 26.7564 67.2623 26.9667 67.4217C27.0111 67.4583 27.0577 67.4927 27.1022 67.5271C27.1549 67.5676 27.2053 67.606 27.2576 67.6448C27.2881 67.6665 27.3164 67.687 27.3429 67.7092L27.3934 67.7457C27.4761 67.8084 27.561 67.8711 27.6459 67.9338L27.7248 67.9905C27.7675 68.0205 27.8101 68.051 27.8524 68.0815L27.8686 68.0938L27.8868 68.1062C27.9473 68.1528 28.0122 68.1971 28.0745 68.2416L28.1437 68.2903C28.2975 68.3996 28.4547 68.5085 28.6127 68.6178L28.6272 68.6264L28.6411 68.6363C28.7099 68.6847 28.7809 68.7312 28.8492 68.7778L28.9019 68.8123L29.0757 68.9277L29.2599 69.0509C29.3531 69.1113 29.4502 69.1763 29.549 69.2368C29.6483 69.3012 29.745 69.3622 29.8403 69.4227H30.0785L30.5053 69.829C30.5702 69.87 30.6368 69.91 30.7038 69.9487C30.8332 70.0254 30.9646 70.102 31.0957 70.1752L31.1081 70.1826L31.1204 70.1912C31.2236 70.2517 31.3268 70.3084 31.4317 70.3671C31.9861 70.6802 32.5478 70.9776 33.11 71.255C33.2358 71.3172 33.359 71.3782 33.4822 71.4366C33.5005 71.4464 33.5184 71.4548 33.5367 71.4653C33.6542 71.5198 33.7697 71.5742 33.8868 71.6308C34.2408 71.7967 34.6027 71.9582 34.9563 72.1102L34.9649 72.1127L34.9723 72.1164C35.0594 72.1547 35.1504 72.1931 35.2375 72.2296C35.2637 72.2395 35.2919 72.2518 35.3224 72.2661C35.4395 72.3145 35.5571 72.3628 35.676 72.4116C35.9655 72.5287 36.2786 72.6502 36.6061 72.7734L36.6159 72.7771L36.6258 72.7821C36.7268 72.8203 36.8279 72.8587 36.9311 72.8949L36.9454 72.8998L36.9577 72.9035C37.4372 73.0794 37.9122 73.241 38.3694 73.3847L38.3856 73.3909L38.3996 73.3946C38.4927 73.4273 38.5838 73.4555 38.6769 73.4838L38.6909 73.485L38.7032 73.49C38.8425 73.5344 38.9824 73.5766 39.1217 73.6193L39.2393 73.6537C39.407 73.7003 39.5729 73.7486 39.7388 73.7953C39.8315 73.8214 39.9143 73.8436 39.9974 73.8659L40.0174 73.8708C41.0529 74.1499 42.1062 74.3842 43.1456 74.5684L43.158 74.5721L43.1703 74.5745C43.2957 74.5968 43.4311 74.6211 43.601 74.6495H43.6108L43.6195 74.6507C43.7871 74.679 43.9269 74.7012 44.054 74.7195L44.0745 74.7219L44.0945 74.7256C44.2404 74.7499 44.3876 74.7701 44.5335 74.7906L44.5458 74.7918C46.2767 75.0326 48.0438 75.1558 49.8012 75.1558C51.5604 75.1558 53.3296 75.0327 55.0605 74.7918L55.097 74.7856C55.2364 74.7656 55.3739 74.7474 55.5111 74.7251L55.5316 74.7214L55.5456 74.719L86.9445 43.3204C86.9458 43.3021 86.9483 43.2839 86.952 43.2656" fill="#44494F"/>
</svg>
