<svg width="1440" height="229" viewBox="0 0 1440 229" fill="none" xmlns="http://www.w3.org/2000/svg">
<rect x="400" y="124" width="1040" height="3" fill="white"/>
<path d="M437 125.564C398.42 125.564 319.911 125.564 315.223 125.564C302.5 125.564 305.5 118 298 119C290.5 120 296.343 144.177 291 145.5C277.896 148.744 286.494 91.0495 279.5 90C268.625 88.3682 279.619 140.2 268.631 148.982C257.644 157.764 268.631 43.5 258.148 36.5C245.575 28.1045 256.846 217.326 241 226.5C222 237.5 242.5 2 225 2C216 2 216.508 42.1359 214.311 78.7269C212.113 115.318 218.753 157.031 207.765 163.618C196.777 170.204 199 110.209 199 98.5C199 88 199 35 192 36.5C183.286 38.3672 193.72 136.768 182 137.5C170.28 138.232 179 90 172 90C161.593 90 167.5 145.5 160.5 145.5C153.5 145.5 158 126.5 150 126.5C142 126.5 95 126.5 95 126.5" stroke="white" stroke-width="3"/>
<rect y="125" width="95" height="3" fill="white"/>
</svg>
